SplineFontDB: 3.2
FontName: xkcdScriptMono
FullName: xkcd-Script-Monospace
FamilyName: xkcd Script
Weight: Regular
Copyright: Copyright (c) ipython/xkcd-font contributors, Creative Commons Attribution-NonCommercial 3.0 License
UComments: "Created with FontForge (http://fontforge.org)"
Version: 1.0
ItalicAngle: 0
UnderlinePosition: -102.4
UnderlineWidth: 51.2
Ascent: 600
Descent: 256
InvalidEm: 0
LayerCount: 2
Layer: 0 0 "Back" 1
Layer: 1 0 "Fore" 0
XUID: [-1]
UniqueID: -1
StyleMap: 0x0000
FSType: 0
OS2Version: 0
OS2_WeightWidthSlopeOnly: 0
OS2_UseTypoMetrics: 1
CreationTime: 946684800
ModificationTime: 946684800
PfmFamily: 64
TTFWeight: 400
TTFWidth: 5
LineGap: 77
VLineGap: 77
Panose: 2 0 5 9 0 0 0 0 0 0
OS2TypoAscent: 855
OS2TypoAOffset: 0
OS2TypoDescent: -270
OS2TypoDOffset: 0
OS2TypoLinegap: 77
OS2WinAscent: 855
OS2WinAOffset: 0
OS2WinDescent: 270
OS2WinDOffset: 0
HheadAscent: 855
HheadAOffset: 0
HheadDescent: -270
HheadDOffset: 0
OS2SubXSize: 556
OS2SubYSize: 599
OS2SubXOff: 0
OS2SubYOff: 119
OS2SupXSize: 556
OS2SupYSize: 599
OS2SupXOff: 0
OS2SupYOff: 410
OS2StrikeYSize: 42
OS2StrikeYPos: 221
OS2CapHeight: 592
OS2XHeight: 338
OS2Vendor: 'PfEd'
Lookup: 4 0 1 "ligatures" { "liga"  } ['liga' ('latn' <'dflt' > ) ]
Lookup: 260 0 0 "above" { "above_sub"  } ['mark' ('latn' <'dflt' > ) ]
DEI: 91125
Encoding: UnicodeFull
UnicodeInterp: none
NameList: AGL For New Fonts
DisplaySize: -48
AntiAlias: 1
FitToEm: 0
BeginPrivate: 8
BlueValues 24 [-20 20 411 450 573 613]
OtherBlues 11 [-241 -190]
BlueScale 9 0.0208333
BlueShift 2 16
StdHW 2 74
StdVW 2 76
StemSnapH 30 [53 61 70 74 78 83 87 172 220]
StemSnapV 16 [60 70 76 80 85]
EndPrivate
AnchorClass2: "above" "above_sub"
BeginChars: 1114238 480

StartChar: a
Encoding: 97 97 3
Width: 514
VWidth: 130
Flags: HW
AnchorPoint: "above" 247.367 446.651 basechar 0
LayerCount: 2
Fore
SplineSet
236 424 m 0
 266 432 311 421 328 403 c 0
 330 401 333 398 334 397 c 0
 337 395 350 376 350 373 c 0
 350 371 354 369 359 368 c 0
 375 364 377 362 383 351 c 2
 389 340 l 1
 387 325 l 2
 384 309 385 275 388 256 c 0
 392 234 389 162 410 114 c 0
 417 98 429 84 438 81 c 0
 442 80 444 76 448 65 c 0
 449 62 440 26 425 19 c 0
 418 15 400 16 393 21 c 0
 384 27 380 24 366 39 c 0
 342 65 339 98 334 91 c 0
 279 22 186 5 179 6 c 0
 177 6 168 6 159 6 c 0
 128 6 97 17 82 34 c 0
 63 56 57 68 50 102 c 0
 36 174 65 310 156 385 c 0
 171 397 195 412 198 412 c 0
 201 412 222 422 223 421 c 0
 223 421 229 422 236 424 c 0
284 344 m 0
 275 352 245 349 245 349 c 0
 221 340 220 339 197 317 c 0
 178 298 154 274 138 223 c 0
 126 185 125 182 125 150 c 0
 125 112 128 97 137 88 c 2
 144 81 l 1
 166 83 l 2
 181 84 193 85 200 88 c 0
 214 93 243 109 253 117 c 0
 265 126 286 154 290 165 c 0
 302 201 305 300 306 311 c 0
 307 320 307 320 298 327 c 0
 293 331 289 336 289 337 c 0
 289 338 287 341 284 344 c 0
EndSplineSet
EndChar

StartChar: k
Encoding: 107 107 4
Width: 514
VWidth: 128
Flags: HW
AnchorPoint: "above" 247.58 559.497 basechar 0
LayerCount: 2
Fore
SplineSet
91 516 m 0
 91 542 113 540 127 539 c 0
 145 538 150 536 150 529 c 0
 150 527 151 522 153 520 c 0
 161 508 154 340 149 301 c 2
 148 292 l 1
 161 304 l 2
 194 335 255 375 256 375 c 0
 260 375 343 434 344 434 c 0
 357 438 370 437 374 434 c 0
 377 432 390 410 396 399 c 0
 400 391 399 381 393 376 c 0
 386 370 373 360 367 357 c 0
 361 353 309 319 293 311 c 0
 292 310 213 254 205 244 c 0
 201 239 218 230 218 230 c 0
 222 230 254 202 259 199 c 0
 285 181 320 129 353 96 c 0
 401 47 429 19 428 17 c 0
 425 14 436 10 437 -6 c 0
 438 -12 438 -16 439 -17 c 0
 440 -19 433 -31 430 -31 c 0
 427 -31 428 -35 411 -40 c 0
 405 -42 398 -44 397 -45 c 0
 394 -47 379 -46 379 -43 c 0
 379 -42 377 -41 376 -41 c 0
 372 -41 374 -36 351 -13 c 0
 336 2 305 33 246 103 c 0
 230 123 194 155 179 164 c 0
 168 171 148 179 144 179 c 0
 141 179 136 99 136 98 c 0
 136 67 134 23 132 20 c 0
 121 -2 74 1 62 14 c 0
 56 21 55 25 57 48 c 0
 57 49 57 90 59 108 c 0
 59 111 74 291 76 365 c 0
 79 463 91 500 91 516 c 0
EndSplineSet
EndChar

StartChar: l
Encoding: 108 108 5
Width: 514
VWidth: 182
Flags: HW
AnchorPoint: "above" 247.5 683 basechar 0
LayerCount: 2
Fore
SplineSet
331 20 m 0
 331 -16 279 -22 274 -22 c 0
 257 -22 216 -14 203 62 c 0
 201 75 189 115 189 133 c 0
 189 134 l 0
 189 147 183 176 183 194 c 0
 183 197 183 201 183 204 c 0
 183 206 186 349 194 367 c 1
 195 382 196 426 198 443 c 0
 198 444 203 497 204 499 c 0
 206 513 209 568 212 573 c 0
 212 574 212 576 212 578 c 1
 202 574 202 574 198 574 c 0
 176 574 164 609 164 622 c 0
 164 650 220 663 227 663 c 0
 233 663 240 659 247 659 c 0
 256 659 259 656 262 653 c 0
 272 652 289 640 289 604 c 0
 289 584 281 506 280 497 c 0
 279 487 260 239 260 224 c 0
 260 222 263 113 284 60 c 1
 288 62 291 64 295 64 c 0
 307 64 331 37 331 20 c 0
EndSplineSet
EndChar

StartChar: m
Encoding: 109 109 6
Width: 514
VWidth: 49
Flags: HW
AnchorPoint: "above" 247 407 basechar 0
LayerCount: 2
Fore
SplineSet
25 4 m 2
 7 4 -8 28 -8 42 c 0
 -8 61 2 79 2 123 c 0
 2 261 -7 317 -7 330 c 0
 -7 374 3 375 31 380 c 0
 38 381 41 382 45 382 c 0
 51 382 62 376 64 363 c 1
 64 355 64 355 64 363 c 1
 64 363 71 347 74 319 c 1
 82 329 74 326 92 341 c 0
 100 348 142 381 194 381 c 0
 206 381 223 377 236 370 c 0
 255 360 259 356 271 331 c 1
 304 375 362 387 387 387 c 0
 388 387 422 379 438 366 c 0
 440 366 443 366 455 353 c 0
 461 347 467 339 469 338 c 0
 479 329 498 283 499 269 c 0
 499 266 499 269 499 269 c 1
 499 269 l 2
 499 263 502 263 502 249 c 0
 502 233 498 209 492 194 c 0
 492 193 462 106 462 78 c 0
 462 64 479 49 479 37 c 0
 479 9 442 0 440 0 c 0
 416 0 406 16 396 34 c 0
 393 40 385 53 385 78 c 0
 385 136 423 209 423 240 c 0
 423 258 416 280 405 294 c 0
 399 302 382 309 377 309 c 0
 372 309 353 303 341 293 c 0
 296 256 293 130 285 105 c 0
 282 95 280 38 268 31 c 1
 263 19 224 18 224 18 c 0
 214 18 207 27 201 34 c 0
 193 44 191 53 191 78 c 0
 191 132 198 191 198 192 c 0
 198 210 201 213 201 247 c 0
 201 263 201 285 194 304 c 0
 194 304 l 0
 172 304 144 294 125 254 c 0
 98 199 79 93 79 87 c 0
 79 86 77 36 71 28 c 0
 70 27 67 22 66 21 c 0
 63 14 53 2 36 2 c 0
 28 2 30 4 25 4 c 2
 25 4 l 2
EndSplineSet
EndChar

StartChar: n
Encoding: 110 110 7
Width: 514
VWidth: 114
Flags: HW
AnchorPoint: "above" 247.818 449.904 basechar 0
LayerCount: 2
Fore
SplineSet
196 416 m 0
 225 430 265 439 309 415 c 0
 327 405 347 395 366 373 c 0
 369 369 375 364 378 361 c 0
 390 349 409 303 410 302 c 0
 415 299 433 201 423 145 c 0
 418 118 412 78 411 71 c 0
 408 48 385 -7 377 -14 c 0
 366 -24 354 -18 340 -11 c 0
 322 -2 321 0 317 8 c 0
 315 13 313 17 313 19 c 0
 313 23 329 58 332 73 c 0
 348 152 347 143 347 193 c 0
 347 233 346 285 308 321 c 0
 281 347 270 353 245 351 c 0
 231 350 229 349 222 341 c 0
 218 337 177 293 166 192 c 0
 154 80 167 75 160 29 c 0
 158 13 154 3 152 3 c 0
 151 3 150 0 149 -3 c 0
 143 -16 123 -12 112 -16 c 0
 66 -32 68 86 71 101 c 0
 71 102 84 241 85 243 c 0
 94 266 86 349 98 364 c 0
 102 369 103 369 119 369 c 0
 129 369 138 368 140 367 c 0
 148 362 160 397 196 416 c 0
EndSplineSet
EndChar

StartChar: o
Encoding: 111 111 8
Width: 514
VWidth: 125
Flags: HW
AnchorPoint: "above" 247.361 438.174 basechar 0
LayerCount: 2
Fore
SplineSet
227 417 m 0
 253 423 271 404 290 405 c 0
 306 406 327 398 342 385 c 0
 349 380 357 374 361 371 c 0
 371 365 388 348 391 342 c 0
 392 340 426 293 429 278 c 0
 431 270 434 267 433 267 c 0
 432 267 449 208 441 180 c 0
 423 116 417 116 417 115 c 0
 417 110 378 68 367 61 c 0
 335 39 309 19 271 10 c 0
 237 1 196 -1 172 4 c 0
 146 10 113 35 110 35 c 0
 108 35 85 59 85 61 c 0
 85 65 67 82 56 133 c 0
 48 172 59 157 53 169 c 0
 45 184 73 277 79 284 c 0
 88 295 86 316 136 366 c 0
 159 389 180 404 190 407 c 0
 199 409 205 415 214 415 c 0
 217 415 224 416 227 417 c 0
260 335 m 0
 248 333 240 354 239 354 c 0
 185 338 149 271 149 270 c 0
 149 260 128 251 124 174 c 0
 123 154 121 99 182 77 c 0
 214 65 266 81 277 87 c 0
 311 104 414 167 351 276 c 0
 351 277 325 310 299 328 c 1
 288 320 287 319 276 329 c 0
 274 331 272 332 272 331 c 0
 272 328 264 336 260 335 c 0
EndSplineSet
EndChar

StartChar: p
Encoding: 112 112 9
Width: 514
VWidth: -13
Flags: HW
AnchorPoint: "above" 247.095 464.314 basechar 0
LayerCount: 2
Fore
SplineSet
255 443 m 0
 259 445 258 445 277 441 c 0
 310 433 326 428 341 417 c 0
 346 413 352 410 353 410 c 0
 354 411 405 367 422 298 c 0
 425 285 427 289 430 277 c 0
 440 237 439 207 435 171 c 0
 435 170 428 132 419 119 c 0
 415 113 412 107 412 106 c 0
 412 105 385 72 364 62 c 0
 357 59 352 55 351 54 c 0
 350 53 283 28 225 43 c 0
 207 47 185 51 157 65 c 2
 142 72 l 1
 142 53 l 2
 142 52 139 29 138 -46 c 0
 137 -89 133 -169 133 -170 c 0
 133 -185 122 -205 114 -205 c 0
 112 -205 108 -206 106 -207 c 0
 99 -210 70 -199 69 -198 c 0
 57 -191 54 -175 58 -146 c 0
 62 -118 71 199 75 221 c 0
 77 236 76 257 72 265 c 0
 69 272 69 316 77 334 c 0
 80 340 82 346 82 348 c 0
 82 356 115 393 119 399 c 0
 127 411 192 435 193 436 c 0
 196 441 255 443 255 443 c 0
262 368 m 0
 234 371 222 370 201 363 c 0
 177 356 159 346 149 333 c 2
 142 324 l 1
 143 311 l 2
 144 304 144 264 145 223 c 2
 147 148 l 1
 153 148 l 2
 157 148 165 145 177 138 c 0
 200 124 205 122 231 117 c 0
 267 109 329 105 355 157 c 0
 376 199 358 358 262 368 c 0
EndSplineSet
EndChar

StartChar: q
Encoding: 113 113 10
Width: 514
VWidth: -62
Flags: HW
AnchorPoint: "above" 266.5 384 basechar 0
LayerCount: 2
Fore
SplineSet
136 131 m 0
 136 60 201 58 209 58 c 0
 221 58 256 58 297 84 c 0
 316 96 320 100 321 107 c 0
 334 170 336 183 337 189 c 0
 338 201 346 224 351 251 c 1
 330 259 302 282 302 282 c 0
 302 282 281 293 264 293 c 0
 219 293 168 230 152 203 c 0
 142 183 136 165 136 131 c 0
308 8 m 1
 307 8 260 -12 212 -12 c 0
 195 -12 195 -13 163 -6 c 0
 141 -1 93 34 91 46 c 0
 90 47 90 47 88 49 c 0
 70 73 65 114 65 117 c 0
 65 121 63 128 63 135 c 0
 63 178 85 220 86 221 c 0
 87 223 90 230 93 237 c 0
 106 264 156 327 169 328 c 1
 175 334 175 334 178 334 c 0
 198 349 218 356 222 356 c 0
 222 356 237 363 260 364 c 0
 265 364 267 363 275 363 c 0
 293 363 312 353 312 353 c 2
 312 353 l 1
 317 350 330 345 338 338 c 0
 352 327 362 324 370 313 c 1
 375 320 380 322 390 322 c 0
 431 322 431 314 431 305 c 0
 431 252 400 150 400 113 c 0
 400 111 402 107 402 100 c 0
 402 93 400 88 396 82 c 0
 387 67 382 -4 382 -33 c 0
 382 -59 382 -106 406 -154 c 0
 410 -161 416 -169 417 -170 c 0
 420 -167 424 -165 428 -165 c 0
 440 -165 450 -177 456 -179 c 0
 467 -184 470 -206 470 -210 c 0
 470 -219 456 -237 438 -241 c 0
 422 -245 422 -245 418 -245 c 0
 406 -245 367 -238 341 -186 c 0
 332 -168 321 -138 317 -122 c 0
 315 -114 313 -106 312 -104 c 0
 309 -96 307 -83 307 -76 c 0
 307 -72 308 -72 308 -71 c 0
 308 -70 l 0
 306 -55 305 -44 305 -32 c 0
 305 -20 306 -8 308 8 c 1
EndSplineSet
EndChar

StartChar: r
Encoding: 114 114 11
Width: 514
VWidth: 123
Flags: HW
AnchorPoint: "above" 247.299 446.044 basechar 0
LayerCount: 2
Fore
SplineSet
104 376 m 0
 105 376 150 421 240 424 c 0
 255 425 268 426 269 426 c 0
 274 427 351 411 402 382 c 0
 407 379 415 370 423 362 c 0
 437 345 437 346 434 327 c 0
 433 319 424 311 416 309 c 0
 413 308 407 307 405 305 c 0
 395 299 380 302 363 316 c 0
 311 359 220 350 212 348 c 0
 182 341 158 325 146 305 c 0
 140 294 139 291 143 291 c 0
 145 291 146 288 146 278 c 0
 146 195 152 124 153 92 c 0
 154 67 155 42 157 35 c 0
 162 13 164 -6 111 -6 c 0
 90 -6 83 -5 76 52 c 0
 67 102 59 148 59 220 c 0
 59 276 59 280 63 296 c 0
 74 338 100 365 101 369 c 0
 102 373 103 376 104 376 c 0
EndSplineSet
EndChar

StartChar: s
Encoding: 115 115 12
Width: 514
VWidth: 107
Flags: HW
AnchorPoint: "above" 246.907 471.219 basechar 0
LayerCount: 2
Fore
SplineSet
77 337 m 0
 77 361 110 402 110 403 c 0
 110 407 139 430 144 430 c 0
 147 430 153 438 161 440 c 0
 178 445 195 449 199 450 c 0
 219 453 284 450 284 446 c 0
 284 445 286 444 287 444 c 0
 291 444 327 427 330 423 c 0
 348 404 341 392 333 381 c 0
 312 352 305 350 280 365 c 2
 266 373 l 1
 232 373 l 2
 201 373 198 373 191 369 c 0
 181 364 157 339 156 333 c 0
 153 316 148 286 149 279 c 0
 150 271 151 271 155 270 c 0
 163 269 200 278 214 285 c 0
 295 323 322 326 323 326 c 0
 331 330 392 316 401 269 c 0
 407 238 423 224 423 168 c 0
 423 143 419 109 416 105 c 0
 415 104 398 43 385 28 c 0
 382 24 376 18 374 14 c 0
 365 1 342 -20 332 -23 c 0
 332 -23 355 -16 297 -36 c 0
 296 -36 236 -45 205 -31 c 0
 196 -27 202 -34 177 -21 c 0
 156 -11 128 11 120 22 c 0
 105 44 105 44 102 51 c 0
 96 67 89 102 89 113 c 0
 90 132 103 137 120 141 c 0
 142 146 143 145 150 122 c 0
 158 96 162 100 162 95 c 0
 162 93 163 92 164 92 c 0
 165 92 167 88 168 84 c 0
 170 76 178 69 196 55 c 0
 197 54 319 -22 344 136 c 0
 347 157 346 190 343 192 c 0
 340 194 331 227 331 234 c 0
 331 241 327 249 324 250 c 0
 322 251 308 245 291 237 c 0
 216 203 195 197 156 196 c 0
 127 195 126 195 96 211 c 0
 93 213 90 217 88 220 c 0
 86 223 83 227 82 229 c 0
 73 240 66 302 75 326 c 0
 76 329 77 334 77 337 c 0
EndSplineSet
EndChar

StartChar: t
Encoding: 116 116 13
Width: 514
VWidth: 151
Flags: HW
AnchorPoint: "above" 246.844 619.032 basechar 0
LayerCount: 2
Fore
SplineSet
144 330 m 2
 91 330 85 338 84 338 c 0
 82 338 78 341 74 345 c 0
 64 355 53 402 87 402 c 0
 101 402 82 405 139 406 c 0
 173 406 177 407 176 410 c 0
 174 416 203 580 229 596 c 0
 235 600 235 601 259 593 c 0
 275 588 279 585 280 582 c 0
 285 568 263 494 264 481 c 0
 264 475 260 436 253 409 c 1
 262 410 l 2
 267 411 291 411 314 412 c 2
 356 414 l 1
 374 395 362 397 373 382 c 0
 382 369 372 355 372 355 c 0
 364 355 381 351 349 340 c 0
 324 331 246 337 244 328 c 0
 243 323 241 285 241 240 c 0
 242 127 271 90 292 68 c 0
 320 37 335 28 348 47 c 0
 360 64 352 69 371 88 c 2
 382 99 l 1
 396 98 l 2
 431 95 431 81 429 46 c 0
 428 32 414 1 408 -1 c 0
 406 -2 404 -3 404 -4 c 0
 404 -8 384 -25 373 -31 c 0
 359 -39 359 -39 335 -40 c 2
 314 -40 l 1
 295 -30 l 2
 265 -15 231 14 222 31 c 0
 220 35 215 44 211 49 c 0
 194 74 156 135 166 306 c 2
 167 330 l 1
 144 330 l 2
EndSplineSet
EndChar

StartChar: b
Encoding: 98 98 14
Width: 514
VWidth: 173
Flags: HW
AnchorPoint: "above" 247.535 629 basechar 0
LayerCount: 2
Fore
SplineSet
79 599 m 2
 86 609 88 609 106 609 c 0
 126 609 133 605 133 591 c 0
 133 585 153 479 152 410 c 0
 152 395 152 381 153 380 c 0
 155 378 181 395 192 398 c 0
 199 399 214 406 257 409 c 0
 263 409 269 410 270 411 c 0
 271 412 305 404 309 402 c 0
 323 394 331 397 358 377 c 0
 390 352 395 342 416 300 c 0
 419 294 425 272 425 267 c 0
 425 244 435 292 434 195 c 0
 434 154 433 149 428 130 c 0
 420 99 418 91 396 58 c 0
 390 49 385 42 386 41 c 0
 387 40 355 10 351 9 c 0
 346 8 338 0 324 -4 c 0
 318 -6 313 -8 313 -9 c 0
 313 -13 237 -12 226 -4 c 0
 222 0 197 2 154 24 c 0
 145 28 138 31 138 31 c 0
 134 6 133 6 124 -3 c 0
 121 -6 87 -15 61 9 c 1
 62 62 l 2
 62 91 63 130 65 148 c 0
 65 153 81 339 74 466 c 0
 73 481 72 517 72 543 c 2
 73 591 l 1
 79 599 l 2
356 227 m 0
 356 244 337 351 231 329 c 0
 203 323 191 314 179 288 c 0
 167 263 154 207 150 168 c 0
 149 149 141 105 142 102 c 0
 143 98 149 103 153 100 c 0
 156 98 165 97 181 90 c 0
 182 90 257 58 290 65 c 0
 339 75 364 164 358 200 c 0
 357 207 356 219 356 227 c 0
EndSplineSet
EndChar

StartChar: u
Encoding: 117 117 15
Width: 514
VWidth: 130
Flags: HW
AnchorPoint: "above" 246.804 442.421 basechar 0
LayerCount: 2
Fore
SplineSet
349 411 m 0
 372 426 388 432 407 392 c 0
 419 366 423 351 425 323 c 0
 427 290 428 206 426 199 c 0
 425 195 423 183 421 171 c 0
 416 135 405 105 391 87 c 0
 379 72 363 55 359 54 c 0
 358 54 326 29 257 14 c 0
 204 2 112 -3 82 92 c 0
 67 140 62 197 71 243 c 0
 76 271 75 302 83 313 c 0
 85 316 95 355 95 358 c 0
 95 365 110 400 114 405 c 0
 119 410 125 416 125 415 c 0
 125 414 126 415 128 416 c 0
 130 418 135 417 152 410 c 0
 178 400 179 397 175 381 c 0
 171 366 177 371 169 349 c 0
 148 285 149 229 144 224 c 0
 142 221 144 156 147 137 c 0
 151 116 155 106 165 94 c 0
 174 84 176 84 208 83 c 0
 237 83 274 90 295 102 c 0
 329 121 340 137 346 179 c 0
 348 193 350 206 351 207 c 0
 353 212 353 288 351 292 c 0
 343 307 358 321 333 377 c 0
 325 396 333 401 349 411 c 0
EndSplineSet
EndChar

StartChar: v
Encoding: 118 118 16
Width: 514
VWidth: 130
Flags: HW
AnchorPoint: "above" 246.991 452 basechar 0
LayerCount: 2
Fore
SplineSet
275 28 m 0
 275 16 244 1 227 2 c 0
 207 4 190 30 190 30 c 0
 184 48 150 96 111 233 c 0
 69 376 69 400 72 408 c 0
 75 415 76 416 94 421 c 0
 115 428 117 427 120 424 c 0
 121 423 122 422 122 423 c 0
 122 425 134 411 134 408 c 0
 134 404 137 408 144 386 c 0
 147 376 165 335 168 314 c 0
 169 307 180 272 181 264 c 0
 182 253 197 197 230 120 c 1
 235 132 l 2
 276 222 338 372 339 374 c 0
 346 388 347 393 347 403 c 0
 348 423 355 428 385 430 c 0
 395 431 405 432 406 432 c 0
 407 432 444 420 406 337 c 0
 405 336 356 218 344 191 c 0
 343 189 275 32 275 28 c 0
EndSplineSet
EndChar

StartChar: w
Encoding: 119 119 17
Width: 514
VWidth: 87
Flags: HW
AnchorPoint: "above" 247 421 basechar 0
LayerCount: 2
Fore
SplineSet
398 342 m 0
 398 371 438 380 442 380 c 0
 460 380 466 371 471 363 c 0
 484 342 485 321 485 295 c 0
 485 206 467 155 467 154 c 0
 467 144 436 81 426 71 c 0
 426 71 404 34 390 23 c 0
 368 6 354 -5 324 -5 c 0
 285 -5 254 28 251 37 c 0
 251 38 240 49 220 93 c 1
 217 88 212 81 207 73 c 0
 192 48 188 42 167 24 c 0
 150 9 137 3 118 3 c 0
 117 3 l 0
 81 3 59 40 51 63 c 0
 51 64 50 65 50 66 c 0
 40 74 19 222 19 224 c 0
 18 234 17 245 16 250 c 0
 11 281 9 312 9 336 c 0
 9 362 12 379 19 388 c 0
 22 392 30 401 38 401 c 0
 39 401 53 399 53 399 c 0
 75 396 80 386 80 367 c 0
 81 315 92 283 100 201 c 0
 100 200 113 118 123 90 c 1
 132 103 149 129 167 156 c 0
 172 163 187 178 196 185 c 0
 203 191 213 192 225 192 c 0
 226 192 l 0
 291 192 281 110 327 71 c 1
 352 88 388 154 393 174 c 0
 397 188 398 214 402 222 c 1
 406 238 407 290 407 291 c 0
 407 291 407 313 407 320 c 1
 400 330 398 335 398 342 c 0
EndSplineSet
EndChar

StartChar: x
Encoding: 120 120 18
Width: 514
VWidth: 131
Flags: HW
AnchorPoint: "above" 284.802 431.047 basechar 0
LayerCount: 2
Fore
SplineSet
142 329 m 0
 142 333 131 342 131 354 c 0
 131 365 154 387 161 386 c 0
 174 384 182 371 187 372 c 0
 189 373 280 282 285 282 c 0
 288 282 349 362 356 370 c 0
 367 383 362 387 370 393 c 0
 377 398 381 408 386 410 c 0
 393 413 413 409 413 405 c 0
 413 400 436 396 437 375 c 0
 438 363 408 328 408 328 c 0
 404 323 387 302 372 283 c 0
 333 232 336 236 338 233 c 0
 348 218 395 206 455 98 c 0
 461 87 467 76 469 74 c 0
 473 70 474 60 470 56 c 0
 469 55 466 51 465 48 c 0
 463 42 458 38 453 38 c 0
 448 38 440 28 437 29 c 0
 436 29 432 30 429 30 c 0
 422 31 420 37 415 39 c 0
 410 41 380 96 372 107 c 0
 356 128 320 165 307 173 c 0
 304 175 300 178 298 180 c 0
 295 183 291 186 283 174 c 0
 278 166 229 114 222 105 c 0
 221 103 221 103 171 43 c 0
 146 13 139 9 121 22 c 0
 96 40 93 44 101 59 c 0
 111 81 226 212 228 213 c 0
 229 214 233 217 237 221 c 2
 243 228 l 1
 235 236 l 2
 231 241 226 244 225 244 c 0
 223 244 142 323 142 329 c 0
EndSplineSet
EndChar

StartChar: y
Encoding: 121 121 19
Width: 514
VWidth: -13
Flags: HW
AnchorPoint: "above" 247 376 basechar 0
LayerCount: 2
Fore
SplineSet
401 350 m 0
 407 350 433 343 433 319 c 0
 433 309 431 293 431 283 c 0
 431 269 451 188 451 125 c 0
 451 71 446 38 440 6 c 0
 436 -14 425 -35 424 -45 c 0
 424 -63 386 -119 386 -119 c 0
 342 -170 287 -170 242 -170 c 0
 176 -170 96 -136 69 -111 c 0
 59 -102 62 -105 58 -101 c 0
 49 -90 43 -72 43 -60 c 0
 43 -39 61 -32 64 -32 c 0
 65 -32 65 -32 66 -32 c 0
 66 -32 71 -30 74 -30 c 0
 89 -30 115 -59 163 -76 c 0
 211 -92 215 -93 270 -93 c 0
 282 -93 284 -93 287 -92 c 0
 295 -89 318 -78 318 -77 c 0
 321 -72 332 -61 341 -46 c 0
 342 -45 370 8 373 86 c 0
 373 86 373 90 373 94 c 1
 347 64 309 36 270 19 c 0
 237 4 243 12 227 6 c 0
 223 3 214 2 201 2 c 0
 129 2 110 49 99 81 c 0
 91 103 90 111 90 128 c 0
 90 148 87 142 87 166 c 0
 87 227 87 227 98 311 c 0
 102 340 102 341 110 348 c 0
 116 354 120 356 130 356 c 0
 131 356 132 356 133 356 c 0
 165 356 173 355 173 292 c 0
 173 264 167 240 167 175 c 0
 167 158 167 108 179 82 c 0
 180 79 189 67 197 67 c 0
 210 67 245 79 266 94 c 0
 321 133 341 175 343 181 c 0
 343 185 345 191 348 198 c 0
 352 210 352 208 352 252 c 2
 352 253 l 2
 352 289 353 288 358 328 c 0
 358 338 375 348 386 348 c 0
 390 348 397 350 401 350 c 0
EndSplineSet
EndChar

StartChar: z
Encoding: 122 122 20
Width: 514
VWidth: 116
Flags: HW
AnchorPoint: "above" 247 402 basechar 0
LayerCount: 2
Fore
SplineSet
96 375 m 0
 104 375 105 379 143 379 c 0
 155 379 157 379 159 378 c 0
 189 382 270 382 271 382 c 0
 365 382 409 381 418 370 c 0
 425 368 432 353 432 353 c 0
 438 348 440 338 440 338 c 0
 440 334 438 333 437 328 c 1
 437 328 l 2
 436 319 421 304 415 303 c 0
 409 298 402 288 397 286 c 0
 396 285 321 217 311 205 c 0
 310 204 227 116 189 88 c 1
 207 90 212 91 221 91 c 0
 222 91 221 91 222 91 c 0
 226 91 252 96 272 96 c 0
 275 96 276 95 278 95 c 2
 279 95 l 1
 279 99 279 99 279 95 c 1
 280 95 l 0
 291 95 305 96 322 96 c 0
 361 96 389 83 405 82 c 0
 419 81 421 80 430 70 c 0
 433 67 435 64 435 59 c 0
 435 57 434 51 434 42 c 0
 434 41 434 41 434 40 c 0
 434 13 407 11 400 11 c 0
 384 11 354 19 347 19 c 0
 336 19 344 22 314 22 c 0
 272 22 254 18 247 18 c 0
 246 18 l 0
 245 18 l 0
 228 18 189 13 185 13 c 0
 176 13 164 9 157 9 c 0
 156 9 l 0
 156 9 155 10 154 10 c 0
 154 10 164 10 122 6 c 0
 121 5 119 3 116 3 c 0
 114 3 l 0
 101 3 73 12 72 22 c 1
 66 32 63 37 63 47 c 0
 63 69 72 92 99 117 c 0
 100 118 225 235 240 253 c 0
 251 266 264 270 269 279 c 0
 272 284 281 293 297 306 c 1
 297 306 250 304 249 304 c 0
 246 304 240 304 240 304 c 0
 215 304 103 299 102 299 c 0
 84 299 58 302 58 324 c 0
 58 329 54 342 54 350 c 0
 54 357 57 364 64 367 c 0
 66 370 69 372 71 372 c 0
 74 376 78 376 82 376 c 0
 87 376 91 375 96 375 c 0
EndSplineSet
EndChar

StartChar: c
Encoding: 99 99 21
Width: 514
VWidth: 124
Flags: HW
AnchorPoint: "above" 247.418 475.516 basechar 0
LayerCount: 2
Fore
SplineSet
230 443 m 0
 259 457 268 456 284 455 c 0
 306 454 314 452 329 443 c 0
 334 440 343 436 347 434 c 0
 358 429 357 422 368 415 c 0
 370 414 402 388 402 370 c 0
 402 354 413 353 403 331 c 0
 398 320 394 317 383 314 c 0
 368 310 366 311 360 320 c 0
 351 333 343 336 340 343 c 0
 338 347 305 374 294 379 c 0
 277 387 261 383 221 343 c 0
 185 307 162 270 151 231 c 0
 148 221 146 211 145 208 c 0
 141 198 141 149 144 131 c 0
 147 114 165 52 247 57 c 0
 290 60 335 87 360 107 c 0
 390 131 395 131 415 112 c 2
 429 99 l 1
 429 88 l 2
 429 82 427 76 426 73 c 0
 424 68 398 42 382 31 c 0
 381 30 306 -21 234 -17 c 0
 213 -16 192 -13 183 -9 c 0
 180 -8 176 -6 173 -5 c 0
 169 -4 151 5 129 16 c 0
 124 19 103 40 103 43 c 0
 103 46 81 74 72 110 c 0
 57 173 72 245 89 277 c 0
 91 280 94 289 97 296 c 0
 103 310 126 346 143 367 c 0
 165 395 209 433 230 443 c 0
EndSplineSet
EndChar

StartChar: d
Encoding: 100 100 22
Width: 514
VWidth: 215
Flags: HW
AnchorPoint: "above" 246.64 669.172 basechar 0
LayerCount: 2
Fore
SplineSet
376 632 m 0
 376 635 383 651 393 649 c 0
 396 648 403 648 409 647 c 0
 419 646 420 646 431 634 c 1
 430 613 l 2
 430 609 411 262 412 244 c 0
 413 229 413 127 412 104 c 0
 411 77 404 57 396 54 c 0
 393 53 358 49 348 54 c 0
 337 59 322 44 287 40 c 0
 282 39 278 40 277 39 c 0
 273 36 224 31 204 31 c 0
 158 31 122 43 92 70 c 0
 82 78 68 106 64 126 c 0
 58 154 69 233 77 244 c 0
 78 245 99 315 154 360 c 0
 161 365 188 382 191 382 c 0
 194 382 215 392 227 393 c 0
 230 393 301 407 320 399 c 0
 333 393 332 395 343 390 c 0
 345 389 346 389 346 389 c 2
 346 389 347 405 348 423 c 0
 353 510 367 619 374 625 c 0
 375 626 376 629 376 632 c 0
310 329 m 0
 298 335 230 331 194 302 c 0
 174 286 126 216 135 146 c 0
 139 111 154 103 202 101 c 0
 264 99 320 122 321 122 c 2
 333 128 l 1
 333 136 l 2
 333 168 341 250 334 281 c 0
 329 304 320 324 310 329 c 0
EndSplineSet
EndChar

StartChar: e
Encoding: 101 101 23
Width: 514
VWidth: 140
Flags: HW
AnchorPoint: "above" 247.339 465.24 basechar 0
LayerCount: 2
Fore
SplineSet
151 200 m 0
 143 200 142 202 135 212 c 1
 121 146 140 123 155 108 c 0
 170 93 181 87 196 84 c 0
 225 79 327 97 330 96 c 0
 333 95 338 94 342 94 c 0
 362 92 369 55 361 52 c 0
 359 51 349 33 342 33 c 0
 341 33 337 31 333 29 c 0
 291 10 195 5 159 21 c 0
 81 55 68 115 68 116 c 0
 68 119 66 128 64 136 c 0
 53 187 74 298 120 346 c 0
 124 350 129 356 130 359 c 0
 135 371 179 409 203 421 c 0
 204 421 238 437 258 440 c 0
 262 440 268 442 272 443 c 0
 312 453 370 428 400 398 c 0
 427 371 436 346 433 305 c 0
 432 282 427 269 416 251 c 0
 408 239 386 214 383 214 c 0
 372 212 368 204 326 200 c 0
 263 194 177 187 160 198 c 0
 158 200 154 200 151 200 c 0
317 370 m 0
 295 379 273 376 240 360 c 0
 179 331 151 264 152 263 c 0
 155 260 271 273 302 275 c 0
 338 277 339 277 347 287 c 0
 365 309 352 343 352 343 c 0
 348 350 328 366 317 370 c 0
EndSplineSet
EndChar

StartChar: f
Encoding: 102 102 24
Width: 514
VWidth: 173
Flags: HW
AnchorPoint: "above" 247.107 611.75 basechar 0
LayerCount: 2
Fore
SplineSet
113 304 m 0
 57 304 50 320 49 320 c 0
 49 320 42 343 48 354 c 0
 55 366 59 369 75 372 c 0
 97 377 111 379 128 380 c 2
 144 381 l 1
 144 406 l 2
 145 433 148 461 151 464 c 0
 153 467 160 494 159 494 c 0
 159 494 162 504 173 522 c 0
 191 552 201 562 227 575 c 0
 254 589 265 586 265 589 c 0
 265 593 319 592 329 590 c 0
 330 590 406 575 436 539 c 0
 440 534 444 529 444 528 c 0
 444 522 452 514 447 503 c 0
 443 494 432 484 424 482 c 0
 412 480 412 474 399 476 c 0
 379 478 391 488 350 504 c 0
 308 521 272 512 267 510 c 0
 240 500 226 468 221 400 c 2
 220 380 l 1
 239 381 l 2
 302 385 300 385 305 380 c 0
 313 373 317 365 318 345 c 2
 319 327 l 1
 311 320 l 2
 302 311 298 311 232 306 c 2
 220 305 l 1
 221 296 l 2
 221 294 234 127 236 117 c 0
 236 116 247 26 238 10 c 0
 233 -1 232 -1 207 -4 c 0
 189 -6 175 -8 168 10 c 0
 158 32 160 111 156 134 c 0
 153 150 149 248 147 251 c 0
 145 255 144 301 142 303 c 0
 141 304 128 304 113 304 c 0
EndSplineSet
EndChar

StartChar: g
Encoding: 103 103 25
Width: 514
VWidth: -43
Flags: HW
AnchorPoint: "above" 247.511 438.705 basechar 0
LayerCount: 2
Fore
SplineSet
371 -196 m 0
 371 -200 315 -232 297 -232 c 0
 296 -232 244 -251 185 -233 c 0
 177 -231 168 -228 166 -228 c 0
 162 -228 121 -209 102 -198 c 0
 88 -190 56 -163 46 -150 c 0
 8 -101 26 -59 48 -59 c 0
 51 -59 62 -48 62 -45 c 0
 62 -44 69 -44 66 -54 c 0
 62 -67 76 -52 89 -81 c 0
 94 -92 114 -115 127 -126 c 0
 156 -149 208 -167 250 -167 c 0
 277 -167 309 -153 330 -131 c 0
 384 -73 398 49 396 53 c 0
 395 54 363 29 336 21 c 0
 289 6 246 11 234 18 c 0
 226 23 216 24 216 26 c 0
 216 27 216 27 215 27 c 0
 208 25 169 59 158 76 c 0
 153 83 140 112 134 128 c 0
 112 188 134 273 136 275 c 0
 146 290 152 334 192 365 c 0
 192 365 222 391 223 391 c 0
 228 391 237 406 279 415 c 0
 328 426 364 409 365 409 c 0
 369 409 379 403 389 401 c 0
 390 401 421 385 430 368 c 0
 432 364 437 357 440 352 c 0
 445 344 446 341 446 331 c 0
 446 306 430 290 433 286 c 0
 434 285 440 284 444 284 c 0
 446 284 463 267 466 262 c 0
 471 254 472 210 468 183 c 0
 463 150 476 59 469 28 c 0
 465 13 463 -17 455 -40 c 0
 452 -50 449 -61 448 -66 c 0
 448 -67 431 -132 376 -189 c 0
 373 -192 371 -195 371 -196 c 0
334 343 m 0
 312 348 313 348 294 343 c 0
 234 326 200 271 200 193 c 0
 200 156 211 126 232 105 c 0
 280 58 354 107 371 136 c 0
 377 146 385 173 387 177 c 0
 389 180 385 233 390 249 c 0
 393 259 393 259 388 262 c 0
 378 269 390 283 383 309 c 0
 382 313 382 317 382 318 c 0
 382 319 376 334 334 343 c 0
EndSplineSet
EndChar

StartChar: h
Encoding: 104 104 26
Width: 514
VWidth: 180
Flags: HW
AnchorPoint: "above" 246.868 606.28 basechar 0
LayerCount: 2
Fore
SplineSet
274 423 m 0
 301 424 326 413 326 414 c 0
 326 415 358 404 379 383 c 0
 428 334 430 248 431 198 c 0
 432 153 432 146 427 106 c 0
 422 62 417 35 412 22 c 0
 410 17 402 5 382 9 c 0
 340 17 336 22 344 58 c 0
 351 89 360 196 353 245 c 0
 352 253 351 264 350 269 c 0
 346 300 329 330 309 340 c 0
 293 348 260 345 241 336 c 0
 227 329 220 323 208 305 c 0
 178 261 167 227 158 168 c 0
 154 141 153 65 156 48 c 0
 159 31 142 23 142 23 c 0
 134 20 106 16 99 17 c 0
 87 19 80 32 74 67 c 0
 66 112 60 243 63 273 c 0
 69 323 61 314 78 442 c 0
 97 583 98 588 123 586 c 0
 155 583 156 580 155 545 c 0
 155 543 148 407 143 355 c 2
 142 344 l 1
 149 353 152 357 154 361 c 0
 165 378 191 399 212 407 c 0
 233 415 254 423 274 423 c 0
EndSplineSet
EndChar

StartChar: i
Encoding: 105 105 27
Width: 514
VWidth: 171
Flags: HW
AnchorPoint: "above" 247.352 510.398 basechar 0
LayerCount: 2
Fore
SplineSet
189 465 m 0
 196 472 249 500 285 487 c 0
 299 482 310 477 311 475 c 0
 313 473 329 462 330 460 c 0
 330 459 331 457 331 454 c 0
 332 450 324 423 317 416 c 0
 314 413 311 410 311 409 c 0
 311 409 300 398 279 409 c 0
 254 422 248 407 236 408 c 0
 230 408 223 403 217 403 c 0
 208 403 198 394 186 397 c 0
 180 399 177 400 171 412 c 0
 160 434 161 448 176 456 c 0
 180 458 186 463 189 465 c 0
211 314 m 2
 216 321 l 1
 235 321 l 2
 251 321 255 320 260 317 c 0
 264 315 266 311 266 309 c 0
 266 308 280 269 272 222 c 0
 269 206 269 166 272 151 c 0
 277 119 273 99 283 80 c 2
 288 69 l 1
 283 59 281 53 277 52 c 0
 263 47 271 38 246 38 c 0
 228 38 206 38 200 112 c 0
 199 127 197 143 196 148 c 0
 192 165 195 292 211 314 c 2
EndSplineSet
EndChar

StartChar: j
Encoding: 106 106 28
Width: 514
VWidth: 26
Flags: HW
AnchorPoint: "above" 247 556 basechar 0
LayerCount: 2
Fore
SplineSet
333 114 m 0
 333 198 325 235 325 236 c 0
 325 238 325 239 325 241 c 0
 325 244 325 244 325 244 c 1
 318 250 320 268 317 286 c 0
 312 293 312 327 312 335 c 0
 312 353 312 378 363 378 c 0
 366 378 373 378 381 366 c 0
 384 362 392 304 395 295 c 0
 397 292 397 289 397 287 c 0
 397 285 397 284 397 283 c 0
 397 278 402 246 402 240 c 0
 402 230 405 236 405 216 c 0
 405 178 410 197 410 159 c 0
 410 152 410 133 410 117 c 0
 410 110 410 75 410 75 c 0
 410 61 410 56 410 56 c 0
 411 54 411 52 411 50 c 0
 411 49 404 -48 384 -77 c 0
 382 -80 381 -82 381 -82 c 0
 381 -83 381 -84 381 -85 c 0
 381 -89 381 -89 369 -105 c 1
 367 -114 331 -145 328 -149 c 0
 325 -157 292 -169 277 -177 c 0
 273 -181 231 -190 224 -190 c 0
 210 -190 184 -188 176 -185 c 0
 175 -185 175 -186 173 -186 c 0
 168 -186 166 -182 166 -182 c 0
 162 -181 123 -162 112 -151 c 0
 110 -149 110 -153 93 -137 c 0
 85 -130 83 -121 83 -103 c 0
 83 -86 88 -80 103 -73 c 0
 110 -70 115 -68 121 -68 c 0
 124 -68 144 -70 151 -81 c 0
 158 -93 174 -103 190 -106 c 0
 206 -108 202 -110 208 -110 c 0
 209 -110 249 -103 280 -82 c 0
 281 -77 311 -52 320 -23 c 0
 320 -23 325 -6 328 3 c 0
 333 20 333 98 333 114 c 0
334 399 m 0
 313 399 281 417 281 456 c 0
 281 469 294 503 296 506 c 0
 298 519 337 536 348 536 c 0
 352 536 369 534 374 523 c 0
 381 512 403 502 403 479 c 0
 403 473 403 455 395 443 c 0
 395 443 391 437 389 433 c 0
 385 426 364 403 355 403 c 0
 355 403 l 0
 351 400 338 399 334 399 c 0
EndSplineSet
EndChar

StartChar: quotedblright
Encoding: 8221 8221 30
Width: 514
VWidth: 818
Flags: HW
LayerCount: 2
Fore
SplineSet
276 647 m 0
 273 647 264 659 261 659 c 0
 258 659 251 668 253 669 c 0
 255 672 239 693 252 709 c 0
 255 712 258 716 258 717 c 0
 259 721 263 725 270 727 c 0
 276 729 279 728 291 721 c 0
 299 717 307 712 310 711 c 0
 318 708 312 706 322 701 c 0
 332 696 330 690 336 685 c 0
 339 682 364 646 364 646 c 0
 364 641 380 613 381 602 c 0
 382 587 385 587 384 572 c 0
 381 532 382 533 381 533 c 0
 377 535 367 503 337 516 c 0
 334 517 330 519 329 519 c 0
 315 522 311 529 308 556 c 0
 307 568 306 578 307 579 c 0
 310 584 287 633 286 633 c 0
 284 633 278 647 276 647 c 0
244 576 m 0
 245 566 252 563 252 560 c 0
 252 557 258 547 259 540 c 0
 260 530 270 495 269 486 c 0
 269 482 268 471 267 462 c 0
 266 443 265 442 260 442 c 0
 255 442 253 437 244 436 c 0
 241 436 238 435 238 434 c 0
 238 432 234 435 234 433 c 0
 234 431 218 428 216 430 c 0
 214 433 204 435 204 439 c 0
 204 441 203 442 201 442 c 0
 186 442 184 497 184 498 c 0
 182 504 184 508 179 513 c 0
 173 519 172 544 168 549 c 0
 166 552 153 579 153 581 c 0
 153 583 119 616 114 619 c 0
 111 621 110 624 110 636 c 0
 110 658 113 672 120 676 c 0
 129 681 176 677 178 671 c 0
 179 669 179 667 180 668 c 0
 187 675 213 633 216 633 c 0
 218 633 219 631 218 627 c 0
 217 622 244 587 244 576 c 0
EndSplineSet
EndChar

StartChar: Aring
Encoding: 197 197 32
Width: 514
VWidth: 1099
Flags: HW
AnchorPoint: "above" 247.5 859 basechar 0
LayerCount: 2
Fore
SplineSet
251 473 m 0
 289 473 345 350 345 320 c 0
 345 310 336 309 324 308 c 0
 222 297 175 289 173 289 c 0
 171 289 163 291 163 300 c 0
 163 302 187 413 233 462 c 0
 238 467 244 473 251 473 c 0
386 55 m 0
 386 12 382 1 382 0 c 0
 382 -3 387 -19 391 -20 c 0
 403 -23 405 -29 410 -31 c 0
 416 -31 426 -32 432 -33 c 0
 435 -32 446 -26 450 -23 c 0
 454 -16 452 -14 456 -9 c 0
 465 2 457 12 464 23 c 0
 464 25 465 30 465 35 c 0
 465 128 451 193 428 306 c 0
 416 361 392 425 365 468 c 0
 355 485 330 519 323 525 c 0
 316 527 312 535 294 546 c 0
 287 550 272 559 243 559 c 0
 219 559 218 558 214 554 c 0
 205 543 195 539 185 528 c 1
 184 516 166 516 133 438 c 0
 102 370 88 315 87 314 c 0
 83 306 61 220 58 201 c 0
 54 177 49 148 45 126 c 0
 45 125 30 42 30 1 c 0
 30 -37 30 -38 61 -38 c 0
 73 -38 86 -37 90 -36 c 0
 95 -30 97 -22 97 -21 c 0
 97 -10 104 -5 113 52 c 0
 121 103 135 180 135 181 c 2
 135 181 l 2
 135 182 135 186 135 190 c 2
 135 206 l 1
 162 206 l 2
 186 206 191 210 245 213 c 0
 282 215 299 219 361 230 c 1
 375 194 372 162 383 103 c 0
 385 93 386 74 386 55 c 0
272 769 m 2
 273 769 l 2
 285 769 293 749 293 735 c 0
 293 716 278 687 267 676 c 0
 257 666 251 664 213 647 c 1
 213 657 204 667 204 657 c 1
 198 663 197 672 197 685 c 0
 197 707 198 731 216 753 c 0
 221 759 227 766 235 766 c 0
 240 766 242 763 246 763 c 0
 250 765 266 768 272 769 c 2
346 692 m 1
 346 702 352 710 352 733 c 2
 352 734 l 2
 352 735 352 735 352 736 c 0
 352 744 350 765 349 771 c 0
 348 777 332 808 325 818 c 0
 322 821 310 829 296 837 c 1
 296 837 287 839 276 839 c 0
 250 839 212 821 212 820 c 0
 212 820 177 798 167 783 c 0
 166 782 145 752 141 698 c 0
 140 688 141 682 140 678 c 0
 141 673 146 645 148 638 c 0
 152 627 174 602 181 598 c 0
 193 592 213 588 218 588 c 0
 236 588 273 604 274 604 c 0
 283 609 301 626 309 630 c 0
 315 634 341 672 346 692 c 1
EndSplineSet
EndChar

StartChar: Udieresis
Encoding: 220 220 33
Width: 514
VWidth: 1008
Flags: HW
AnchorPoint: "above" 246.5 785 basechar 0
LayerCount: 2
Fore
SplineSet
343 133 m 0
 343 132 338 35 246 35 c 0
 228 35 221 36 209 44 c 0
 140 86 139 247 138 378 c 0
 136 520 136 545 130 551 c 0
 123 555 96 559 92 559 c 0
 91 559 l 0
 87 559 80 538 79 530 c 0
 79 522 73 525 71 495 c 0
 69 459 60 417 60 344 c 0
 60 342 62 197 81 120 c 1
 90 107 95 69 114 42 c 0
 114 41 122 30 123 25 c 0
 126 21 145 -2 155 -10 c 0
 170 -18 183 -25 185 -28 c 0
 188 -30 222 -43 252 -43 c 0
 265 -43 265 -42 312 -31 c 0
 318 -30 333 -19 341 -19 c 1
 357 -11 391 37 395 40 c 0
 412 72 433 113 433 416 c 0
 433 455 431 509 429 524 c 0
 427 535 415 562 412 564 c 0
 407 568 402 568 400 568 c 0
 400 568 379 562 377 557 c 0
 377 557 373 555 366 553 c 0
 352 545 352 545 348 531 c 1
 348 512 355 525 355 452 c 0
 355 449 354 203 349 186 c 0
 348 181 342 141 342 134 c 0
 343 134 l 0
 343 133 l 0
133 661 m 0
 144 661 195 702 195 710 c 0
 195 711 195 712 195 712 c 0
 195 718 194 719 183 739 c 0
 168 764 165 764 156 764 c 0
 155 764 156 764 155 764 c 0
 146 764 95 724 95 696 c 0
 95 695 95 695 95 694 c 0
 95 691 96 690 108 680 c 0
 123 665 129 661 133 661 c 0
274 687 m 0
 274 685 274 648 319 648 c 0
 322 648 332 648 348 655 c 0
 350 657 378 673 383 688 c 0
 383 688 389 714 389 715 c 0
 389 724 381 744 375 749 c 0
 369 753 355 757 328 765 c 1
 301 748 288 741 276 703 c 0
 274 697 274 692 274 687 c 0
EndSplineSet
EndChar

StartChar: uni226A
Encoding: 8810 8810 34
Width: 514
VWidth: 797
Flags: HW
LayerCount: 2
Fore
SplineSet
509 112 m 0
 509 120 514 125 514 127 c 0
 514 141 448 187 429 206 c 0
 412 222 324 281 319 300 c 1
 312 309 312 309 282 339 c 1
 290 346 l 2
 300 355 341 392 342 392 c 0
 362 410 394 437 403 446 c 0
 412 455 476 506 477 506 c 0
 478 507 483 521 483 522 c 0
 483 525 483 527 471 540 c 0
 454 558 451 560 441 560 c 0
 439 560 439 561 431 560 c 0
 422 559 426 563 376 518 c 0
 332 479 313 462 300 453 c 0
 287 444 235 399 229 396 c 0
 226 393 213 377 209 372 c 0
 206 367 203 322 203 321 c 0
 203 316 216 292 221 284 c 0
 233 276 261 249 267 238 c 0
 277 219 340 179 369 152 c 0
 379 143 452 78 473 78 c 0
 477 78 481 79 488 83 c 0
 491 85 505 93 505 93 c 0
 507 94 511 101 511 104 c 0
 511 105 509 107 509 112 c 0
264 114 m 0
 264 120 251 139 243 139 c 0
 240 139 233 139 217 160 c 0
 185 200 126 259 89 287 c 0
 45 321 41 324 41 332 c 0
 41 340 41 340 173 458 c 0
 198 480 251 534 261 546 c 0
 263 553 283 571 283 575 c 0
 283 580 253 612 247 612 c 0
 243 612 243 610 227 602 c 0
 213 594 192 567 183 565 c 0
 179 562 174 556 157 543 c 0
 123 517 67 459 59 457 c 0
 58 456 -24 388 -37 364 c 0
 -37 364 -44 352 -45 345 c 0
 -40 316 -14 274 -14 273 c 0
 6 246 52 225 123 146 c 0
 172 91 204 62 224 62 c 0
 238 62 233 72 248 72 c 0
 253 75 257 82 257 84 c 0
 257 97 264 107 264 114 c 0
EndSplineSet
EndChar

StartChar: uni226B
Encoding: 8811 8811 35
Width: 514
VWidth: 797
Flags: HW
LayerCount: 2
Fore
SplineSet
-40 112 m 0
 -40 107 -42 105 -42 104 c 0
 -42 101 -39 95 -36 93 c 0
 -32 91 -24 86 -19 83 c 0
 -12 79 -7 78 -3 78 c 0
 18 78 90 142 100 152 c 0
 129 180 192 220 202 239 c 0
 208 250 237 277 248 284 c 0
 248 284 266 314 266 321 c 0
 266 322 264 367 261 372 c 0
 261 372 248 390 237 399 c 0
 224 409 180 446 169 454 c 0
 160 460 155 463 91 520 c 0
 43 563 47 559 38 560 c 0
 29 561 29 560 27 560 c 0
 22 560 20 559 17 558 c 0
 17 558 -14 532 -14 523 c 0
 -14 522 l 0
 -14 521 -9 507 -7 506 c 0
 4 499 27 478 46 464 c 0
 56 456 159 364 160 363 c 2
 188 339 l 1
 180 331 l 2
 161 312 155 306 150 300 c 0
 147 288 104 254 84 240 c 0
 41 209 37 201 3 175 c 0
 -9 166 -45 137 -45 127 c 0
 -45 125 -40 120 -40 112 c 0
226 139 m 0
 218 139 205 120 205 114 c 0
 205 107 212 97 212 84 c 0
 212 82 216 75 221 72 c 0
 223 72 233 72 236 65 c 0
 238 64 244 62 248 62 c 0
 254 62 277 73 301 97 c 0
 337 132 371 180 435 229 c 0
 455 245 478 266 483 272 c 0
 485 274 510 321 514 345 c 1
 507 371 493 383 455 418 c 0
 435 436 417 453 411 457 c 0
 403 459 346 517 312 543 c 0
 295 556 291 562 287 565 c 0
 278 567 256 594 242 602 c 0
 242 602 226 611 222 612 c 0
 214 612 186 579 186 575 c 0
 186 571 206 553 208 546 c 0
 255 489 413 358 425 340 c 0
 426 339 428 337 428 332 c 0
 428 324 425 321 380 287 c 0
 343 259 285 200 253 160 c 0
 248 154 236 139 226 139 c 0
EndSplineSet
EndChar

StartChar: uni203D
Encoding: 8253 8253 36
Width: 514
VWidth: 1123
Flags: HW
LayerCount: 2
Fore
SplineSet
229 -14 m 0
 230 -14 289 1 289 62 c 0
 289 66 287 64 284 72 c 1
 282 73 273 77 272 86 c 1
 265 93 249 98 239 98 c 0
 227 98 196 74 190 68 c 1
 190 61 181 54 181 36 c 0
 181 32 184 28 185 20 c 0
 190 -5 228 -14 229 -14 c 0
367 587 m 0
 367 547 338 501 303 487 c 0
 296 484 288 481 281 478 c 1
 281 682 l 1
 310 687 310 687 316 687 c 0
 342 687 351 665 358 643 c 0
 364 625 367 604 367 587 c 0
272 341 m 1
 306 405 308 408 320 409 c 2
 320 409 l 1
 321 409 l 1
 321 409 324 410 353 425 c 0
 363 431 406 473 415 486 c 0
 415 486 416 493 421 497 c 0
 430 511 445 550 446 559 c 0
 447 569 447 579 447 588 c 0
 447 669 401 732 400 733 c 0
 398 734 393 736 390 742 c 1
 380 743 372 755 355 760 c 0
 355 760 331 765 317 765 c 0
 314 765 314 765 287 763 c 1
 279 821 278 825 276 835 c 0
 271 840 275 842 270 846 c 0
 268 848 267 848 261 848 c 0
 251 848 223 845 211 842 c 1
 204 832 203 829 203 807 c 0
 203 805 203 787 203 787 c 0
 203 754 201 755 201 755 c 0
 201 754 200 752 200 749 c 2
 200 732 l 1
 157 707 131 692 108 666 c 0
 100 657 92 649 87 645 c 0
 86 645 82 638 80 633 c 0
 73 614 36 576 36 556 c 0
 36 542 78 521 83 521 c 0
 87 521 93 523 104 534 c 0
 110 541 123 554 132 563 c 0
 148 580 152 591 153 593 c 1
 153 603 165 615 169 619 c 2
 199 648 l 1
 202 584 202 584 202 570 c 0
 202 476 188 385 188 383 c 0
 188 365 193 351 193 322 c 0
 193 282 184 270 184 248 c 0
 184 248 185 239 186 221 c 1
 197 208 206 207 229 205 c 0
 246 205 259 216 267 217 c 0
 272 220 276 223 276 282 c 0
 276 302 276 304 272 341 c 1
EndSplineSet
EndChar

StartChar: Emacron
Encoding: 274 274 37
Width: 514
VWidth: 1039
Flags: HW
AnchorPoint: "above" 247.5 804 basechar 0
LayerCount: 2
Fore
SplineSet
114 333 m 1
 114 335 104 423 104 492 c 0
 104 493 104 495 104 496 c 0
 104 499 105 510 117 511 c 0
 119 511 321 524 336 524 c 0
 354 524 354 520 359 520 c 0
 362 520 372 523 383 523 c 0
 385 523 398 526 407 532 c 0
 407 532 409 553 409 575 c 0
 409 593 408 594 402 595 c 0
 389 598 391 603 382 603 c 0
 380 603 376 603 374 602 c 0
 363 599 213 595 157 590 c 0
 146 589 135 588 131 588 c 0
 105 587 89 573 54 570 c 0
 32 568 32 568 32 544 c 0
 32 498 33 383 34 358 c 1
 34 362 33 361 33 357 c 1
 34 354 35 348 35 296 c 0
 35 183 32 20 32 17 c 0
 32 -7 33 -23 34 -33 c 0
 35 -43 37 -52 37 -57 c 0
 45 -64 49 -64 70 -64 c 0
 139 -64 222 -35 392 -21 c 1
 413 -32 416 -33 424 -33 c 0
 436 -33 435 -25 450 -21 c 0
 456 -19 463 -12 463 12 c 0
 463 14 463 22 462 27 c 0
 438 45 447 44 439 46 c 0
 430 48 427 51 425 53 c 0
 413 55 393 56 384 56 c 0
 298 56 199 26 109 18 c 1
 111 200 113 266 113 270 c 1
 113 270 l 0
 113 272 116 280 123 280 c 2
 123 280 l 2
 129 279 135 277 137 277 c 0
 154 274 201 274 215 272 c 0
 229 270 226 264 234 264 c 0
 242 264 255 271 260 276 c 1
 261 285 270 300 270 309 c 0
 270 316 266 320 262 333 c 0
 260 339 254 337 246 345 c 0
 237 350 208 350 197 350 c 0
 196 350 142 350 135 345 c 0
 128 341 121 337 114 333 c 1
360 784 m 0
 359 784 318 771 290 771 c 0
 289 771 215 774 204 774 c 0
 161 774 137 766 115 766 c 0
 103 766 105 760 75 756 c 0
 52 753 51 751 51 732 c 0
 51 719 51 713 60 703 c 0
 62 703 66 701 70 697 c 0
 73 696 89 694 106 694 c 0
 149 694 139 701 200 701 c 0
 233 701 272 699 294 699 c 0
 294 699 318 699 325 700 c 0
 330 702 356 711 365 711 c 1
 372 712 378 717 380 719 c 0
 383 728 394 740 394 745 c 0
 394 751 373 775 365 783 c 0
 363 783 362 784 360 784 c 0
EndSplineSet
EndChar

StartChar: Ohungarumlaut
Encoding: 336 336 38
Width: 514
VWidth: 1117
Flags: HW
AnchorPoint: "above" 247.5 873 basechar 0
LayerCount: 2
Fore
SplineSet
260 502 m 0
 265 502 272 515 284 528 c 1
 288 528 l 2
 294 528 303 520 325 511 c 0
 338 506 356 486 362 471 c 0
 379 429 396 322 396 254 c 0
 396 252 396 251 396 250 c 0
 396 211 392 194 377 162 c 0
 372 150 365 137 356 130 c 0
 352 127 342 118 335 112 c 0
 301 81 238 61 210 61 c 0
 203 61 198 63 190 66 c 0
 152 81 135 97 119 132 c 0
 109 153 97 178 97 248 c 0
 97 269 100 259 100 272 c 0
 100 302 116 371 129 403 c 0
 149 454 193 517 214 517 c 0
 222 517 225 513 234 510 c 0
 236 511 l 0
 236 511 l 2
 238 511 238 510 260 502 c 0
466 166 m 1
 466 172 476 187 476 259 c 0
 476 311 450 438 450 440 c 0
 447 461 426 514 413 532 c 0
 364 597 268 610 266 610 c 0
 264 609 259 605 246 605 c 0
 221 605 232 589 201 589 c 0
 191 589 190 588 181 583 c 0
 176 580 170 577 166 575 c 0
 158 570 117 528 97 500 c 0
 79 474 65 435 58 427 c 1
 39 385 19 288 19 240 c 0
 19 237 20 238 20 236 c 0
 20 235 l 0
 20 235 20 227 20 206 c 0
 21 118 57 78 60 58 c 1
 71 44 108 -1 151 -19 c 0
 160 -23 169 -27 173 -29 c 0
 177 -30 194 -31 212 -31 c 0
 212 -31 248 -31 257 -28 c 0
 263 -26 270 -25 274 -24 c 0
 294 -21 349 9 382 35 c 0
 392 43 420 72 426 80 c 0
 427 87 456 120 466 166 c 1
266 610 m 1
 266 600 266 600 266 610 c 1
106 715 m 0
 106 704 134 687 137 687 c 0
 143 687 156 705 165 711 c 0
 171 717 184 738 211 767 c 0
 237 795 241 808 241 820 c 0
 241 822 240 824 240 824 c 0
 237 827 220 841 213 846 c 0
 208 845 203 844 199 840 c 0
 191 832 141 778 136 772 c 0
 136 772 106 734 106 715 c 0
283 712 m 0
 283 697 315 681 316 681 c 0
 332 681 347 711 358 713 c 1
 370 722 379 742 395 750 c 0
 402 754 421 772 426 779 c 0
 429 795 446 794 446 825 c 0
 446 827 446 828 442 832 c 0
 425 849 414 851 412 853 c 0
 399 853 352 800 344 798 c 0
 339 793 334 784 326 779 c 1
 314 767 296 742 295 740 c 0
 293 730 283 726 283 713 c 2
 283 713 l 2
 283 712 l 0
EndSplineSet
EndChar

StartChar: quotedblleft
Encoding: 8220 8220 39
Width: 514
VWidth: 798
Flags: HW
LayerCount: 2
Fore
SplineSet
158 666 m 0
 158 669 166 672 166 675 c 0
 166 679 183 693 184 696 c 0
 185 699 229 715 234 708 c 0
 235 707 236 706 237 707 c 0
 240 709 259 664 253 664 c 0
 252 664 251 663 251 661 c 0
 251 659 250 658 248 658 c 0
 246 658 245 657 245 656 c 0
 245 655 235 638 230 638 c 0
 223 638 213 624 205 600 c 0
 202 590 196 579 196 576 c 0
 196 572 191 570 191 567 c 0
 184 534 183 534 183 524 c 0
 183 494 118 485 113 522 c 0
 109 557 129 606 129 607 c 0
 130 611 135 616 133 616 c 0
 131 616 139 626 137 626 c 0
 135 626 143 634 141 634 c 0
 138 634 158 664 158 666 c 0
300 666 m 0
 306 666 322 695 341 695 c 0
 350 695 351 694 364 680 c 0
 372 672 378 664 378 663 c 0
 378 659 382 665 382 655 c 0
 382 647 368 621 362 618 c 0
 360 617 358 615 358 614 c 0
 358 610 354 613 346 597 c 0
 336 578 332 575 333 573 c 0
 335 571 326 566 326 561 c 0
 326 556 319 549 319 545 c 0
 319 541 312 533 314 533 c 0
 315 533 310 525 309 523 c 0
 309 516 296 504 296 463 c 0
 296 441 296 441 289 433 c 0
 285 428 281 424 280 424 c 0
 277 424 273 418 271 419 c 0
 270 420 269 420 269 419 c 0
 269 415 246 409 236 420 c 0
 234 422 231 424 230 424 c 0
 229 424 227 426 227 427 c 0
 227 428 224 432 221 435 c 0
 219 437 213 444 213 476 c 0
 210 486 251 591 251 592 c 0
 251 596 277 639 277 639 c 0
 281 643 296 666 300 666 c 0
EndSplineSet
EndChar

StartChar: A
Encoding: 65 65 40
Width: 514
VWidth: 145
Flags: HW
AnchorPoint: "above" 247.643 577.673 basechar 0
LayerCount: 2
Fore
SplineSet
229 553 m 0
 234 553 234 556 243 557 c 0
 271 560 292 552 292 552 c 0
 292 553 305 544 308 544 c 0
 315 544 357 507 357 501 c 0
 357 499 386 460 413 346 c 0
 414 340 417 334 418 332 c 0
 419 330 456 163 466 82 c 0
 467 72 469 62 470 61 c 0
 473 57 474 12 472 3 c 0
 468 -16 467 -16 466 -16 c 0
 461 -16 454 -34 436 -30 c 0
 433 -29 428 -29 426 -29 c 0
 420 -29 407 -22 405 -17 c 0
 404 -15 401 -10 398 -6 c 0
 386 10 402 -4 392 57 c 0
 347 343 375 162 375 163 c 0
 372 184 363 220 361 235 c 2
 358 248 l 1
 347 246 l 2
 345 246 208 220 147 217 c 0
 141 217 140 217 126 169 c 0
 119 143 106 99 100 92 c 0
 95 87 95 70 79 63 c 0
 67 58 30 73 30 73 c 0
 10 84 35 136 35 136 c 0
 43 146 56 206 62 217 c 0
 69 233 58 283 77 287 c 0
 86 289 87 328 116 402 c 0
 127 430 154 480 170 502 c 0
 196 538 221 545 224 549 c 0
 225 551 227 553 229 553 c 0
273 478 m 0
 270 479 265 481 260 481 c 0
 231 481 194 392 193 390 c 0
 185 370 170 335 169 322 c 0
 168 315 162 296 163 294 c 0
 167 290 292 316 325 316 c 0
 342 316 343 316 339 333 c 0
 335 350 335 356 333 359 c 0
 330 362 314 423 304 442 c 0
 299 451 279 475 273 478 c 0
EndSplineSet
EndChar

StartChar: K
Encoding: 75 75 41
Width: 514
VWidth: 172
Flags: HW
AnchorPoint: "above" 246.816 611.375 basechar 0
LayerCount: 2
Fore
SplineSet
234 196 m 0
 229 196 156 258 144 264 c 1
 144 217 l 2
 145 113 144 58 141 52 c 0
 135 40 131 39 107 37 c 0
 68 34 67 41 68 109 c 0
 69 238 64 321 53 394 c 0
 52 401 51 412 51 419 c 0
 51 434 47 465 44 472 c 0
 41 480 39 546 54 562 c 0
 59 567 59 566 76 565 c 0
 109 563 110 558 110 543 c 0
 110 517 121 507 119 487 c 0
 119 481 119 475 120 473 c 0
 120 472 132 396 130 392 c 0
 125 381 141 395 150 409 c 0
 177 453 305 568 305 570 c 0
 305 573 332 590 339 591 c 0
 347 592 359 591 361 588 c 0
 388 557 387 553 376 531 c 0
 369 516 329 488 328 488 c 0
 323 485 310 472 270 431 c 0
 252 412 209 363 198 349 c 0
 189 337 188 336 191 334 c 0
 214 318 180 332 229 293 c 0
 262 267 282 252 283 252 c 0
 289 252 386 157 385 155 c 0
 384 150 460 74 451 19 c 0
 447 1 439 1 439 1 c 0
 438 1 436 0 434 -2 c 0
 430 -6 403 -8 400 -4 c 0
 399 -3 395 -1 393 -1 c 0
 374 -1 375 36 371 44 c 0
 358 69 315 121 281 152 c 0
 268 164 240 196 234 196 c 0
EndSplineSet
EndChar

StartChar: L
Encoding: 76 76 42
Width: 514
VWidth: 161
Flags: HW
AnchorPoint: "above" 246.991 575.001 basechar 0
LayerCount: 2
Fore
SplineSet
77 549 m 0
 84 554 85 555 109 555 c 0
 141 555 141 556 144 495 c 0
 144 493 147 392 137 336 c 0
 137 333 118 131 142 82 c 0
 145 76 147 74 153 73 c 0
 169 70 236 86 264 99 c 0
 292 112 333 116 350 120 c 0
 388 130 428 116 429 112 c 0
 430 110 431 109 432 109 c 0
 434 109 439 99 441 90 c 0
 443 83 442 81 434 65 c 0
 410 17 421 71 277 22 c 0
 221 4 194 -5 144 -5 c 0
 136 -5 107 6 102 12 c 0
 96 19 97 19 90 25 c 0
 78 36 64 64 58 91 c 0
 49 131 50 232 63 394 c 0
 65 414 67 450 68 475 c 0
 70 535 71 545 77 549 c 0
EndSplineSet
EndChar

StartChar: M
Encoding: 77 77 43
Width: 514
VWidth: 174
Flags: HW
AnchorPoint: "above" 247.169 620.999 basechar 0
LayerCount: 2
Fore
SplineSet
359 593 m 0
 365 593 360 597 378 600 c 0
 418 606 432 583 437 583 c 0
 440 583 435 581 439 577 c 0
 444 571 453 559 452 558 c 0
 449 543 477 541 451 347 c 0
 427 170 427 170 426 163 c 0
 416 106 425 40 417 32 c 0
 415 30 413 27 412 25 c 0
 411 23 407 21 403 20 c 0
 399 19 391 18 386 16 c 0
 361 8 349 28 349 34 c 0
 349 37 348 40 347 41 c 0
 339 49 342 145 352 191 c 0
 353 196 398 512 381 506 c 0
 373 503 328 390 300 360 c 0
 290 349 275 339 268 338 c 0
 265 337 261 336 258 335 c 0
 249 331 241 339 236 339 c 0
 216 335 158 394 145 413 c 0
 117 454 116 456 115 451 c 0
 115 448 123 184 117 122 c 0
 116 110 114 91 114 79 c 0
 112 36 99 -4 85 -7 c 0
 80 -8 54 -4 45 -1 c 0
 29 4 31 29 35 81 c 0
 40 143 41 159 41 236 c 0
 41 310 40 363 36 463 c 0
 33 531 43 539 59 555 c 2
 72 568 l 1
 86 567 l 2
 117 564 119 564 128 555 c 0
 129 554 131 553 132 553 c 0
 137 553 158 529 190 483 c 0
 207 458 243 417 247 417 c 0
 255 417 297 526 326 564 c 0
 334 575 350 589 353 589 c 0
 354 589 355 590 355 591 c 0
 355 592 357 593 359 593 c 0
EndSplineSet
EndChar

StartChar: N
Encoding: 78 78 44
Width: 514
VWidth: 215
Flags: HW
AnchorPoint: "above" 247.509 681.006 basechar 0
LayerCount: 2
Fore
SplineSet
399 645 m 0
 402 650 412 665 434 660 c 0
 439 659 461 639 467 630 c 0
 472 623 470 613 464 605 c 0
 461 601 459 597 458 596 c 0
 457 594 432 489 427 407 c 0
 421 321 421 321 421 310 c 0
 421 94 414 48 391 36 c 0
 387 34 382 32 381 32 c 0
 379 32 376 28 373 27 c 0
 372 27 368 26 365 25 c 0
 357 23 331 35 325 43 c 0
 325 44 317 50 282 103 c 0
 257 142 216 202 197 229 c 0
 163 277 146 305 120 355 c 0
 111 371 104 382 104 382 c 1
 104 379 98 233 102 114 c 0
 103 70 103 69 96 61 c 0
 91 56 91 56 65 55 c 0
 32 54 33 53 28 84 c 0
 22 124 27 414 30 435 c 0
 32 451 34 508 38 513 c 0
 39 514 43 585 54 596 c 0
 71 613 76 598 94 602 c 0
 101 603 106 602 112 597 c 0
 124 587 125 586 124 574 c 0
 123 559 131 534 159 454 c 0
 187 375 227 316 287 229 c 0
 305 203 325 174 331 164 c 2
 342 146 l 1
 344 168 l 2
 351 280 336 369 366 531 c 0
 378 596 383 625 392 635 c 0
 393 636 397 641 399 645 c 0
EndSplineSet
EndChar

StartChar: O
Encoding: 79 79 45
Width: 514
VWidth: 164
Flags: HW
AnchorPoint: "above" 247.562 571.637 basechar 0
LayerCount: 2
Fore
SplineSet
61 55 m 0
 61 57 39 95 39 104 c 0
 39 106 28 121 26 156 c 0
 25 164 25 173 24 175 c 0
 24 176 25 245 42 297 c 0
 46 310 52 332 59 348 c 0
 138 521 205 545 207 545 c 0
 213 545 218 550 228 550 c 0
 232 550 235 550 236 551 c 0
 238 553 262 550 269 546 c 0
 280 541 302 513 302 506 c 0
 302 502 327 496 363 471 c 0
 385 456 426 416 432 403 c 0
 434 399 439 391 442 387 c 0
 454 369 462 349 466 328 c 0
 469 309 474 283 469 255 c 0
 467 243 449 197 444 190 c 0
 439 183 433 170 428 164 c 0
 426 162 420 154 414 146 c 0
 396 120 355 79 340 70 c 0
 339 70 308 46 271 27 c 0
 217 0 136 -21 75 39 c 0
 67 46 61 53 61 55 c 0
228 456 m 0
 222 464 227 465 224 465 c 0
 219 465 124 366 105 213 c 0
 105 212 90 77 169 77 c 0
 211 77 264 106 290 129 c 0
 296 135 305 142 310 146 c 0
 333 164 373 216 384 244 c 0
 395 270 395 289 388 314 c 0
 387 318 386 323 386 325 c 0
 386 341 318 431 263 433 c 0
 242 434 241 435 228 456 c 0
EndSplineSet
EndChar

StartChar: P
Encoding: 80 80 46
Width: 514
VWidth: 185
Flags: HW
AnchorPoint: "above" 247.308 624.605 basechar 0
LayerCount: 2
Fore
SplineSet
443 384 m 0
 443 378 432 361 434 361 c 0
 437 361 418 334 419 332 c 0
 419 331 396 300 361 279 c 0
 357 276 352 273 350 271 c 0
 347 268 306 252 290 248 c 0
 245 235 145 245 144 244 c 0
 138 241 146 88 151 79 c 0
 154 74 156 45 154 36 c 0
 152 23 148 19 128 12 c 0
 110 6 104 4 88 19 c 0
 66 40 66 152 66 208 c 0
 66 210 70 408 73 450 c 2
 74 468 l 1
 65 471 l 2
 59 473 41 480 50 509 c 0
 58 534 59 534 69 541 c 0
 74 544 78 548 80 550 c 0
 87 557 124 577 137 581 c 0
 139 582 146 585 152 588 c 0
 153 589 218 616 282 599 c 0
 315 590 314 590 336 581 c 0
 365 568 398 536 399 536 c 0
 403 536 403 530 419 513 c 0
 426 505 428 495 432 492 c 0
 437 488 444 450 446 447 c 0
 448 444 447 396 445 392 c 0
 444 390 443 386 443 384 c 0
368 431 m 0
 368 491 267 561 152 515 c 0
 148 513 147 512 147 506 c 0
 147 502 148 498 149 497 c 0
 152 494 146 341 148 323 c 1
 160 321 l 2
 174 318 234 317 257 320 c 0
 289 324 336 347 350 367 c 0
 364 387 375 415 370 420 c 0
 369 421 368 426 368 431 c 0
EndSplineSet
EndChar

StartChar: Q
Encoding: 81 81 47
Width: 514
VWidth: 188
Flags: HW
AnchorPoint: "above" 247.18 633.036 basechar 0
LayerCount: 2
Fore
SplineSet
161 594 m 0
 162 594 198 614 220 613 c 0
 238 613 263 599 269 599 c 0
 270 599 324 591 372 527 c 0
 399 491 438 398 438 373 c 0
 438 363 441 356 443 329 c 0
 443 320 444 305 445 297 c 0
 447 271 439 277 441 265 c 0
 442 256 437 231 431 216 c 0
 425 201 418 178 412 168 c 0
 407 159 401 149 401 148 c 0
 401 145 415 142 445 123 c 0
 455 117 464 112 465 112 c 0
 466 112 476 103 487 92 c 2
 507 73 l 1
 506 63 l 2
 505 53 503 51 496 45 c 0
 491 41 483 33 477 28 c 0
 464 16 458 14 433 37 c 0
 417 52 397 65 363 82 c 2
 353 87 l 1
 344 78 l 2
 332 66 311 49 302 45 c 0
 301 45 258 21 240 16 c 0
 221 11 193 8 188 9 c 0
 185 10 179 11 174 11 c 0
 156 11 104 38 79 60 c 0
 68 70 37 99 8 177 c 0
 0 198 -6 216 -7 233 c 0
 -7 237 -9 247 -10 256 c 0
 -18 316 -12 412 68 515 c 0
 90 544 143 588 161 594 c 0
268 497 m 0
 233 532 229 528 215 519 c 0
 202 510 187 506 178 510 c 0
 172 512 172 512 161 502 c 0
 147 489 120 458 109 443 c 0
 96 424 76 374 70 346 c 0
 66 324 65 320 66 283 c 0
 67 226 71 211 98 161 c 0
 107 144 113 136 127 121 c 0
 147 100 158 93 182 89 c 0
 205 84 210 84 238 97 c 0
 256 105 279 120 279 123 c 0
 279 127 236 153 215 175 c 0
 208 182 201 190 198 192 c 0
 176 209 190 226 196 234 c 0
 206 246 210 251 227 251 c 0
 230 252 274 219 307 198 c 2
 332 182 l 1
 341 198 l 2
 350 214 354 223 362 252 c 0
 366 265 366 270 366 302 c 0
 366 350 362 368 348 406 c 0
 343 419 325 466 304 491 c 1
 297 486 285 477 274 490 c 0
 272 493 269 496 268 497 c 0
EndSplineSet
EndChar

StartChar: R
Encoding: 82 82 48
Width: 514
VWidth: 182
Flags: HW
AnchorPoint: "above" 246.807 641.07 basechar 0
LayerCount: 2
Fore
SplineSet
353 571 m 0
 358 570 369 552 373 552 c 0
 374 552 376 552 376 551 c 0
 376 549 383 542 388 532 c 0
 390 528 392 525 393 524 c 0
 394 523 408 499 402 442 c 0
 399 415 376 384 376 383 c 0
 376 381 347 343 322 327 c 0
 318 324 311 320 307 317 c 0
 303 314 293 309 285 306 c 2
 271 301 l 1
 292 290 l 2
 333 270 362 241 393 192 c 0
 394 190 480 42 462 14 c 0
 458 8 444 0 437 0 c 0
 428 0 418 -8 410 -3 c 0
 401 2 396 7 392 17 c 0
 376 60 350 118 332 148 c 0
 323 164 316 172 298 190 c 0
 269 219 257 227 212 242 c 0
 185 251 181 257 129 272 c 0
 125 273 125 272 124 238 c 0
 122 171 122 77 123 69 c 0
 124 61 122 53 119 53 c 0
 118 53 120 46 109 40 c 0
 104 37 61 39 57 42 c 0
 45 51 46 67 46 83 c 0
 47 112 47 185 49 339 c 2
 51 456 l 1
 41 460 l 2
 37 462 26 466 30 484 c 0
 31 488 31 494 31 497 c 0
 31 505 50 537 52 547 c 0
 55 556 63 565 71 565 c 0
 77 565 105 599 165 612 c 0
 175 614 183 617 183 618 c 0
 183 620 209 617 209 620 c 0
 209 624 255 616 274 609 c 0
 282 606 289 605 290 605 c 0
 296 605 340 580 347 573 c 0
 348 572 351 571 353 571 c 0
245 540 m 0
 244 541 199 557 140 529 c 2
 126 522 l 1
 126 443 l 2
 126 399 127 363 127 363 c 0
 127 363 149 362 175 363 c 0
 216 364 244 365 273 385 c 0
 274 386 323 420 326 464 c 0
 328 486 325 491 310 506 c 0
 286 528 267 528 245 540 c 0
EndSplineSet
EndChar

StartChar: S
Encoding: 83 83 49
Width: 514
VWidth: 166
Flags: HW
AnchorPoint: "above" 246.778 604 basechar 0
LayerCount: 2
Fore
SplineSet
336 576 m 0
 336 575 361 558 361 543 c 0
 361 532 372 541 365 526 c 0
 355 507 345 502 322 504 c 0
 315 505 295 506 278 506 c 0
 245 506 230 503 181 491 c 2
 154 485 l 1
 148 456 l 2
 143 431 143 432 136 355 c 2
 135 343 l 1
 167 356 228 395 279 407 c 0
 297 412 352 410 355 405 c 0
 359 400 378 392 403 368 c 0
 423 348 446 309 456 277 c 0
 467 242 459 166 446 132 c 0
 442 122 422 82 420 81 c 0
 419 81 383 34 378 34 c 0
 376 34 331 -3 269 -11 c 0
 241 -14 191 -7 178 3 c 0
 177 4 115 29 97 46 c 0
 95 48 90 50 87 52 c 0
 75 57 63 70 44 102 c 0
 22 139 33 147 62 164 c 0
 85 178 89 178 97 163 c 0
 115 131 118 137 125 125 c 0
 130 116 163 94 182 85 c 0
 215 70 223 67 252 67 c 0
 282 67 289 69 311 84 c 0
 319 89 329 96 333 99 c 0
 334 100 394 149 380 253 c 0
 377 273 349 341 299 331 c 0
 252 322 192 281 165 270 c 0
 146 262 146 263 145 263 c 0
 138 263 133 256 124 258 c 0
 121 259 113 259 108 260 c 0
 92 262 84 267 73 284 c 0
 44 329 67 393 61 402 c 0
 60 403 61 417 67 456 c 0
 72 492 76 506 92 530 c 0
 98 540 101 542 119 551 c 0
 181 581 273 584 285 584 c 0
 303 584 336 579 336 576 c 0
EndSplineSet
EndChar

StartChar: T
Encoding: 84 84 50
Width: 514
VWidth: 197
Flags: HW
AnchorPoint: "above" 247.002 631.125 basechar 0
LayerCount: 2
Fore
SplineSet
414 607 m 0
 435 619 446 601 453 601 c 0
 464 601 477 569 470 565 c 0
 469 564 466 560 464 555 c 0
 458 542 453 539 433 532 c 2
 415 526 l 1
 335 524 l 2
 291 523 254 523 252 522 c 0
 247 521 247 546 247 277 c 0
 247 116 247 86 251 59 c 0
 253 43 251 36 240 28 c 0
 234 24 230 23 214 22 c 0
 192 20 186 23 181 34 c 0
 172 53 172 48 171 284 c 0
 171 407 171 508 170 510 c 0
 169 512 168 513 166 513 c 0
 155 512 102 499 80 498 c 0
 35 497 35 498 26 526 c 0
 18 551 21 552 45 562 c 0
 88 581 128 580 144 586 c 0
 159 592 228 598 293 599 c 0
 362 600 402 600 414 607 c 0
EndSplineSet
EndChar

StartChar: B
Encoding: 66 66 51
Width: 514
VWidth: 162
Flags: HW
AnchorPoint: "above" 247.444 614.095 basechar 0
LayerCount: 2
Fore
SplineSet
157 580 m 0
 166 584 263 609 324 581 c 0
 331 578 339 575 340 575 c 0
 342 575 377 548 380 537 c 0
 382 528 389 525 389 521 c 0
 389 520 390 518 391 518 c 0
 394 517 398 475 396 465 c 0
 382 393 329 355 329 350 c 0
 329 349 358 336 366 330 c 0
 369 328 373 326 374 326 c 0
 381 326 413 282 413 282 c 0
 420 276 451 196 447 153 c 0
 447 150 448 145 449 143 c 0
 453 135 435 38 354 2 c 0
 350 0 345 -3 344 -4 c 0
 332 -14 278 -19 275 -20 c 0
 269 -23 219 -21 217 -18 c 0
 215 -15 182 -11 163 -1 c 0
 155 3 154 3 150 4 c 0
 144 4 133 26 122 21 c 0
 114 18 114 23 112 20 c 0
 110 17 101 14 96 14 c 0
 91 15 85 17 74 26 c 0
 62 36 61 41 61 59 c 0
 62 119 59 339 58 340 c 0
 57 341 51 435 51 455 c 0
 50 487 42 481 47 505 c 0
 48 511 50 525 50 536 c 0
 51 566 53 566 80 568 c 0
 119 571 85 556 130 571 c 0
 143 575 155 579 157 580 c 0
154 288 m 0
 154 293 139 285 139 322 c 0
 139 338 140 344 147 349 c 0
 179 376 189 340 267 398 c 0
 274 404 282 411 283 413 c 0
 284 415 290 423 296 430 c 0
 317 455 324 483 313 499 c 0
 309 506 306 507 290 512 c 0
 261 522 230 521 174 509 c 0
 143 502 144 503 136 500 c 2
 121 495 l 1
 122 484 l 2
 123 466 125 482 128 437 c 0
 129 420 131 405 131 404 c 0
 133 401 137 262 138 181 c 2
 139 94 l 1
 147 96 149 97 156 97 c 0
 182 97 167 56 259 56 c 0
 290 56 295 57 317 67 c 0
 342 79 361 100 369 126 c 0
 374 143 374 216 332 260 c 0
 303 290 228 288 210 285 c 0
 179 281 169 281 161 284 c 0
 157 286 154 287 154 288 c 0
EndSplineSet
EndChar

StartChar: U
Encoding: 85 85 52
Width: 514
VWidth: 179
Flags: HW
AnchorPoint: "above" 247.71 648.385 basechar 0
LayerCount: 2
Fore
SplineSet
327 26 m 0
 325 26 284 0 275 0 c 0
 262 0 234 -21 177 -8 c 0
 160 -4 125 11 125 15 c 0
 125 16 91 39 82 58 c 0
 79 63 73 76 67 86 c 0
 61 96 57 107 57 109 c 0
 57 115 44 136 40 179 c 0
 39 189 37 204 36 211 c 0
 29 261 38 475 35 485 c 0
 32 493 38 558 48 567 c 0
 58 577 99 565 103 560 c 0
 113 548 112 501 111 456 c 0
 106 216 107 111 177 70 c 0
 177 70 214 62 233 66 c 0
 273 75 312 103 337 140 c 0
 373 194 381 273 386 329 c 0
 387 346 382 431 378 468 c 0
 378 469 366 548 354 559 c 0
 349 563 337 585 348 601 c 0
 353 609 368 625 373 627 c 0
 373 627 394 632 404 623 c 0
 407 620 410 618 411 618 c 0
 419 618 432 591 435 568 c 0
 436 559 440 543 444 534 c 0
 447 527 461 440 462 379 c 0
 463 344 459 266 456 253 c 0
 455 248 453 238 452 231 c 0
 445 184 409 106 403 101 c 0
 402 101 380 68 344 39 c 0
 335 32 328 26 327 26 c 0
EndSplineSet
EndChar

StartChar: V
Encoding: 86 86 53
Width: 514
VWidth: 179
Flags: HW
AnchorPoint: "above" 247.31 628.257 basechar 0
LayerCount: 2
Fore
SplineSet
119 162 m 0
 119 163 100 215 100 227 c 0
 100 229 89 264 86 289 c 0
 86 291 48 489 33 520 c 0
 21 545 21 567 22 570 c 0
 22 571 48 599 68 597 c 2
 77 596 l 1
 90 578 l 2
 105 555 113 538 115 522 c 0
 116 513 123 488 126 471 c 0
 135 428 146 389 158 327 c 0
 174 246 190 182 201 155 c 0
 205 146 208 139 209 138 c 0
 209 137 232 204 242 226 c 0
 246 234 248 242 248 244 c 0
 248 245 281 311 308 381 c 0
 348 487 365 525 392 569 c 0
 395 574 398 580 398 583 c 0
 398 589 402 600 404 600 c 0
 411 600 399 606 429 607 c 0
 439 608 448 607 448 608 c 0
 448 608 472 614 473 568 c 0
 474 545 431 499 408 429 c 0
 400 407 394 396 383 364 c 0
 364 309 333 253 327 231 c 0
 322 211 315 206 299 159 c 0
 294 143 289 129 288 128 c 0
 287 127 268 40 259 22 c 0
 250 3 238 8 234 2 c 0
 218 -14 181 18 181 26 c 0
 181 28 180 31 178 32 c 0
 169 39 119 149 119 162 c 0
EndSplineSet
EndChar

StartChar: W
Encoding: 87 87 54
Width: 514
VWidth: 203
Flags: HW
AnchorPoint: "above" 247 622.065 basechar 0
LayerCount: 2
Fore
SplineSet
267 77 m 0
 264 77 226 120 224 120 c 0
 223 120 217 107 209 92 c 0
 199 72 175 24 128 38 c 0
 87 51 67 97 67 98 c 0
 67 102 56 123 50 141 c 0
 21 226 6 427 -17 506 c 0
 -23 528 -23 529 -25 534 c 0
 -29 546 -29 562 -25 567 c 0
 -18 575 4 592 9 592 c 0
 15 592 16 591 34 570 c 0
 56 544 60 537 60 527 c 0
 60 512 77 462 80 415 c 0
 81 399 86 363 86 358 c 0
 85 339 114 180 132 140 c 2
 140 123 l 1
 150 142 l 2
 165 170 175 185 186 193 c 0
 191 197 197 201 198 203 c 0
 200 206 205 206 223 206 c 2
 244 206 l 1
 253 198 l 2
 258 194 263 191 264 190 c 0
 268 189 322 125 327 125 c 0
 329 125 368 168 397 334 c 0
 425 486 425 486 433 510 c 0
 458 587 431 551 444 578 c 0
 450 590 454 585 462 594 c 0
 479 613 522 597 522 561 c 0
 522 533 500 476 493 429 c 0
 493 426 467 259 436 174 c 0
 418 121 397 92 397 91 c 0
 395 86 371 61 366 59 c 0
 363 58 359 55 356 53 c 0
 348 47 309 47 308 50 c 0
 307 51 306 52 305 52 c 0
 301 52 270 72 270 74 c 0
 270 75 268 77 267 77 c 0
EndSplineSet
EndChar

StartChar: X
Encoding: 88 88 55
Width: 514
VWidth: 176
Flags: HW
AnchorPoint: "above" 246.948 618.39 basechar 0
LayerCount: 2
Fore
SplineSet
99 21 m 2
 97 21 88 16 84 16 c 0
 79 16 44 39 43 43 c 0
 40 54 44 69 55 86 c 0
 62 97 75 122 89 146 c 0
 94 155 152 256 153 257 c 2
 188 316 l 1
 177 337 l 2
 171 348 165 359 165 360 c 0
 165 361 140 401 108 464 c 0
 95 490 102 471 63 550 c 0
 61 554 61 554 63 570 c 0
 66 588 99 598 99 598 c 0
 101 600 113 594 118 587 c 0
 121 583 127 576 131 572 c 0
 149 554 192 465 199 454 c 0
 200 453 208 439 217 422 c 2
 234 391 l 1
 257 430 l 2
 258 431 336 555 337 559 c 0
 341 604 401 603 405 585 c 0
 408 573 421 584 420 557 c 0
 419 545 418 542 392 503 c 0
 321 396 287 332 278 319 c 0
 276 316 278 312 301 273 c 0
 375 149 395 147 431 82 c 0
 445 59 444 59 445 54 c 0
 446 50 448 43 450 38 c 0
 457 20 442 12 442 12 c 0
 435 12 415 -4 403 -2 c 0
 373 2 383 25 331 96 c 0
 281 163 270 178 247 216 c 0
 239 229 233 240 232 240 c 0
 228 240 108 21 101 21 c 2
 99 21 l 2
EndSplineSet
EndChar

StartChar: Y
Encoding: 89 89 56
Width: 514
VWidth: 171
Flags: HW
AnchorPoint: "above" 247.6 586.562 basechar 0
LayerCount: 2
Fore
SplineSet
441 565 m 0
 458 569 465 566 473 548 c 0
 479 535 479 534 477 524 c 0
 470 495 464 483 446 459 c 0
 411 412 327 302 294 246 c 0
 274 213 281 167 275 148 c 0
 273 142 268 74 268 43 c 0
 268 22 265 13 258 10 c 0
 254 9 219 3 212 3 c 0
 205 3 197 11 196 19 c 0
 188 71 188 66 193 109 c 0
 193 110 204 217 206 224 c 0
 208 231 207 231 200 238 c 0
 191 246 176 268 167 283 c 0
 146 320 68 434 62 438 c 0
 55 442 21 505 18 517 c 0
 15 529 19 542 27 549 c 0
 29 551 38 554 47 557 c 2
 62 562 l 1
 70 558 l 2
 79 553 85 547 95 527 c 0
 125 470 140 472 231 322 c 0
 238 311 243 305 243 305 c 1
 243 307 281 365 285 368 c 0
 286 369 352 459 353 460 c 0
 395 517 401 526 401 536 c 0
 402 548 402 549 406 554 c 0
 411 560 424 565 430 564 c 0
 432 564 437 564 441 565 c 0
EndSplineSet
EndChar

StartChar: Z
Encoding: 90 90 57
Width: 514
VWidth: 193
Flags: HW
AnchorPoint: "above" 247.947 603.747 basechar 0
LayerCount: 2
Fore
SplineSet
455 564 m 0
 455 561 468 558 468 547 c 0
 468 544 470 538 471 534 c 0
 478 515 461 498 461 495 c 0
 461 494 456 485 450 476 c 0
 424 438 294 318 222 232 c 0
 212 220 198 204 193 198 c 0
 173 176 124 109 124 105 c 0
 124 103 165 104 202 108 c 0
 265 114 450 111 458 105 c 0
 459 104 488 48 448 38 c 0
 386 22 335 41 292 37 c 0
 261 35 261 35 89 28 c 0
 58 27 45 28 40 34 c 0
 20 58 19 61 31 91 c 0
 41 118 60 150 83 180 c 0
 141 255 176 301 264 390 c 0
 265 391 354 484 359 489 c 0
 372 502 374 505 371 506 c 0
 356 511 194 482 161 480 c 0
 137 478 82 468 75 468 c 0
 59 468 58 469 47 491 c 0
 32 521 42 526 69 539 c 0
 85 547 93 549 100 550 c 0
 168 555 298 578 335 579 c 0
 336 579 382 586 393 583 c 0
 405 582 436 574 438 572 c 0
 442 569 455 566 455 564 c 0
EndSplineSet
EndChar

StartChar: C
Encoding: 67 67 58
Width: 514
VWidth: 188
Flags: HW
AnchorPoint: "above" 246.989 620.024 basechar 0
LayerCount: 2
Fore
SplineSet
122 503 m 0
 122 509 181 573 188 573 c 0
 195 573 190 579 231 594 c 0
 242 598 248 599 263 600 c 0
 277 600 277 601 299 590 c 0
 337 572 344 555 357 527 c 0
 364 511 365 510 366 494 c 0
 367 481 367 480 362 477 c 0
 323 449 311 469 304 480 c 0
 291 502 282 518 269 522 c 0
 263 524 251 524 246 521 c 0
 241 518 213 495 204 486 c 0
 197 479 170 439 161 424 c 0
 160 422 86 286 134 159 c 0
 140 143 159 95 211 91 c 0
 297 85 374 182 387 182 c 0
 388 182 402 190 409 197 c 0
 418 207 423 206 438 194 c 0
 454 181 457 171 450 161 c 0
 448 158 445 152 443 148 c 0
 425 110 384 83 383 83 c 0
 381 83 320 37 298 32 c 0
 295 31 289 29 286 28 c 0
 222 6 204 16 203 17 c 0
 202 18 199 19 196 19 c 0
 163 19 101 58 87 85 c 0
 59 138 46 163 41 242 c 0
 35 327 77 434 111 485 c 0
 117 494 122 502 122 503 c 0
EndSplineSet
EndChar

StartChar: D
Encoding: 68 68 59
Width: 514
VWidth: 193
Flags: HW
AnchorPoint: "above" 247.273 615.625 basechar 0
LayerCount: 2
Fore
SplineSet
27 95 m 0
 27 99 43 363 43 499 c 0
 43 503 42 511 42 518 c 0
 41 533 44 539 63 565 c 0
 73 579 74 580 80 581 c 0
 89 581 98 587 115 591 c 0
 174 604 248 587 279 572 c 0
 291 566 300 566 327 549 c 0
 338 542 348 537 349 537 c 0
 351 537 370 520 372 520 c 0
 375 520 390 503 393 503 c 0
 394 503 396 500 398 498 c 0
 411 477 417 484 440 438 c 0
 456 406 456 407 458 399 c 0
 460 387 461 392 463 372 c 0
 465 349 469 357 467 350 c 0
 462 326 469 317 454 273 c 0
 449 259 445 245 444 242 c 0
 440 228 417 196 417 195 c 0
 417 192 409 184 410 182 c 0
 411 181 356 113 277 75 c 0
 266 69 256 63 255 62 c 0
 248 53 160 27 137 27 c 0
 134 27 89 19 72 26 c 0
 68 28 62 29 59 30 c 0
 36 35 39 48 35 48 c 0
 34 48 32 50 30 54 c 0
 28 59 27 67 27 95 c 0
271 495 m 0
 270 495 183 539 127 525 c 0
 112 521 107 517 111 513 c 0
 113 510 123 444 117 336 c 0
 116 317 115 284 114 262 c 0
 113 210 107 123 105 115 c 0
 102 104 103 101 110 101 c 0
 121 101 159 109 174 115 c 0
 248 142 269 150 325 205 c 0
 340 220 362 251 369 266 c 0
 379 290 396 359 381 383 c 0
 380 385 376 392 374 398 c 0
 369 410 349 435 335 446 c 0
 330 450 320 460 313 466 c 0
 302 475 274 495 271 495 c 0
EndSplineSet
EndChar

StartChar: E
Encoding: 69 69 60
Width: 514
VWidth: 169
Flags: HW
AnchorPoint: "above" 246.764 615.191 basechar 0
LayerCount: 2
Fore
SplineSet
193 586 m 0
 254 596 376 597 395 593 c 0
 407 590 411 581 414 581 c 0
 429 580 430 538 422 538 c 0
 421 538 420 535 420 533 c 0
 420 513 366 512 360 509 c 0
 349 503 344 510 338 518 c 1
 304 517 l 2
 233 515 132 500 130 500 c 0
 127 500 132 485 133 465 c 0
 133 448 140 421 136 419 c 0
 135 418 134 408 134 395 c 2
 134 373 l 1
 155 377 190 380 201 383 c 0
 212 386 268 384 276 380 c 0
 292 372 268 388 302 368 c 0
 310 364 308 359 315 352 c 0
 324 341 320 314 319 313 c 0
 312 299 297 293 291 282 c 0
 286 272 281 272 266 279 c 0
 255 284 254 285 252 292 c 0
 251 296 250 301 251 303 c 0
 253 310 238 310 205 305 c 0
 183 302 134 297 133 296 c 0
 130 293 128 89 131 83 c 0
 132 81 133 77 133 75 c 2
 133 71 l 1
 145 73 l 2
 147 73 292 106 331 114 c 0
 343 116 362 118 380 119 c 2
 410 120 l 1
 423 114 l 2
 448 103 455 111 463 100 c 0
 469 90 471 46 437 50 c 0
 429 51 426 51 421 48 c 0
 408 40 365 46 333 36 c 0
 327 34 196 4 187 4 c 0
 179 4 138 -8 116 -10 c 0
 74 -13 74 -12 66 -9 c 0
 52 -3 50 0 47 20 c 0
 41 65 59 38 53 64 c 0
 47 89 59 437 56 451 c 0
 55 457 53 459 46 462 c 0
 19 472 21 529 51 547 c 0
 56 550 62 553 65 555 c 0
 77 564 127 578 170 583 c 0
 179 584 189 585 193 586 c 0
EndSplineSet
EndChar

StartChar: F
Encoding: 70 70 61
Width: 514
VWidth: 195
Flags: HW
AnchorPoint: "above" 247.669 599.798 basechar 0
LayerCount: 2
Fore
SplineSet
169 579 m 0
 186 582 267 576 288 570 c 0
 302 565 438 560 447 554 c 0
 449 553 451 551 453 551 c 0
 456 551 462 541 464 531 c 0
 467 516 452 485 441 483 c 0
 436 482 315 487 311 489 c 0
 311 489 311 489 255 497 c 0
 180 506 183 507 173 489 c 0
 161 468 142 361 139 317 c 2
 138 297 l 1
 147 298 l 2
 148 298 271 310 272 309 c 0
 274 308 308 307 315 304 c 0
 321 301 332 277 330 270 c 0
 329 265 322 257 319 257 c 0
 313 257 309 238 267 233 c 0
 219 227 220 227 173 223 c 2
 130 220 l 1
 127 188 l 2
 127 187 112 61 101 49 c 0
 96 43 101 39 89 33 c 0
 81 29 33 26 31 58 c 0
 30 90 44 145 49 201 c 0
 62 357 64 373 75 429 c 0
 87 491 98 511 113 542 c 0
 119 556 148 575 169 579 c 0
EndSplineSet
EndChar

StartChar: G
Encoding: 71 71 62
Width: 514
VWidth: 149
Flags: HW
AnchorPoint: "above" 247.536 550.5 basechar 0
LayerCount: 2
Fore
SplineSet
249 511 m 0
 249 515 315 529 316 529 c 0
 320 531 379 531 381 529 c 0
 382 528 385 527 389 527 c 0
 399 527 441 510 443 504 c 0
 445 498 454 493 455 488 c 0
 457 481 461 471 463 468 c 0
 466 464 464 460 450 448 c 0
 419 422 422 457 350 457 c 0
 252 457 153 369 133 335 c 0
 108 292 94 254 120 189 c 0
 131 161 132 161 157 127 c 0
 166 114 175 103 177 102 c 0
 183 99 201 82 223 71 c 0
 236 65 273 48 315 88 c 0
 316 89 380 164 383 243 c 0
 384 265 384 276 367 281 c 0
 356 284 333 283 328 280 c 0
 320 274 271 266 267 262 c 0
 236 238 227 254 216 274 c 0
 207 291 207 297 216 305 c 0
 219 308 221 310 221 311 c 0
 221 313 261 334 265 334 c 0
 269 334 287 344 314 349 c 0
 315 349 375 355 399 343 c 0
 409 339 407 343 411 338 c 0
 413 336 416 334 417 334 c 0
 420 334 444 325 454 276 c 0
 471 192 397 73 397 72 c 0
 398 70 389 63 389 59 c 0
 388 52 347 14 342 16 c 0
 341 16 340 15 340 14 c 0
 340 7 291 -10 291 -10 c 0
 290 -11 226 -27 154 27 c 0
 134 42 100 74 100 78 c 0
 100 80 84 93 60 142 c 0
 55 153 49 162 48 164 c 0
 45 168 38 193 37 203 c 0
 35 228 30 249 31 258 c 0
 40 331 60 357 61 357 c 0
 62 357 63 360 65 363 c 0
 79 394 146 458 181 476 c 0
 182 476 213 496 239 505 c 0
 245 507 249 510 249 511 c 0
EndSplineSet
EndChar

StartChar: H
Encoding: 72 72 63
Width: 514
VWidth: 176
Flags: HW
AnchorPoint: "above" 247.648 614.5 basechar 0
LayerCount: 2
Fore
SplineSet
150 414 m 0
 150 397 146 403 146 373 c 2
 146 353 l 1
 166 352 l 2
 172 352 241 351 333 370 c 0
 363 376 368 378 367 382 c 0
 364 397 383 456 369 554 c 2
 366 573 l 1
 376 588 375 588 411 593 c 0
 427 595 431 595 431 593 c 0
 431 590 438 591 438 586 c 0
 438 584 440 580 441 577 c 0
 447 565 453 505 451 478 c 0
 448 435 435 287 429 234 c 0
 429 232 415 99 433 46 c 0
 436 37 441 22 429 16 c 0
 427 15 420 10 414 6 c 0
 376 -24 349 37 350 76 c 0
 350 81 349 87 348 89 c 0
 345 96 351 243 355 264 c 0
 356 269 357 278 358 285 c 0
 359 300 361 298 331 293 c 0
 207 271 140 279 140 276 c 0
 140 269 133 216 126 154 c 2
 122 119 l 1
 130 108 139 96 134 57 c 0
 131 36 106 20 96 19 c 0
 96 19 75 17 58 34 c 0
 50 41 43 70 44 94 c 0
 45 133 63 269 63 271 c 0
 62 282 73 338 69 434 c 0
 68 469 69 471 96 481 c 0
 112 487 122 487 128 481 c 0
 129 480 150 437 150 414 c 0
EndSplineSet
EndChar

StartChar: I
Encoding: 73 73 64
Width: 514
VWidth: 189
Flags: HW
AnchorPoint: "above" 246.525 631.405 basechar 0
LayerCount: 2
Fore
SplineSet
144 12 m 0
 77 12 66 25 62 25 c 0
 61 25 58 27 56 30 c 0
 53 34 43 84 70 86 c 0
 74 87 81 88 86 89 c 0
 103 94 118 86 164 89 c 0
 189 91 190 92 191 103 c 0
 198 173 205 323 205 325 c 0
 213 414 215 451 212 490 c 2
 210 507 l 1
 172 507 l 2
 101 507 88 514 86 548 c 0
 85 565 86 566 102 577 c 2
 110 583 l 1
 152 583 l 2
 208 583 304 589 306 592 c 0
 307 593 315 593 325 593 c 0
 368 593 377 605 388 606 c 0
 396 607 407 613 411 611 c 0
 412 610 414 609 415 609 c 0
 423 609 440 576 441 574 c 0
 443 568 436 548 432 546 c 0
 418 539 434 536 396 526 c 0
 363 518 335 515 301 514 c 2
 290 513 l 1
 290 475 l 2
 290 451 276 211 274 155 c 0
 273 127 272 117 270 115 c 0
 267 113 266 101 269 99 c 0
 269 99 295 104 317 104 c 0
 318 104 383 103 391 97 c 0
 393 95 398 92 401 91 c 0
 410 88 415 72 417 72 c 0
 420 72 427 48 420 37 c 0
 416 30 414 20 413 22 c 0
 411 24 389 -5 368 15 c 0
 364 19 357 24 354 25 c 0
 347 27 308 27 305 25 c 0
 301 21 172 14 170 13 c 0
 165 10 175 18 157 14 c 0
 151 13 145 12 144 12 c 0
EndSplineSet
EndChar

StartChar: J
Encoding: 74 74 65
Width: 514
VWidth: 191
Flags: HW
AnchorPoint: "above" 247.202 609.027 basechar 0
LayerCount: 2
Fore
SplineSet
315 198 m 0
 315 176 274 113 275 113 c 0
 280 113 240 70 229 62 c 0
 225 60 222 57 221 56 c 0
 217 51 146 9 97 27 c 0
 52 43 45 51 44 51 c 0
 42 51 16 79 13 85 c 0
 1 107 0 116 2 132 c 0
 4 147 7 150 28 155 c 0
 41 158 47 159 50 158 c 0
 69 151 71 123 105 105 c 2
 120 97 l 1
 138 102 l 2
 165 108 171 110 193 133 c 0
 229 169 239 198 251 262 c 0
 263 329 249 410 249 411 c 0
 241 445 236 485 231 485 c 0
 228 485 198 479 176 474 c 0
 156 470 120 475 106 484 c 0
 96 490 96 493 98 515 c 0
 100 538 102 546 153 550 c 0
 300 563 307 590 441 589 c 0
 494 588 497 588 491 541 c 0
 489 523 489 523 482 519 c 0
 469 510 451 517 403 513 c 0
 402 513 309 504 309 497 c 0
 309 496 330 414 330 376 c 0
 330 366 331 356 332 354 c 0
 335 349 333 281 330 268 c 0
 327 256 321 215 317 208 c 0
 316 205 315 200 315 198 c 0
EndSplineSet
EndChar

StartChar: plus
Encoding: 43 43 66
Width: 514
VWidth: 611
Flags: HW
LayerCount: 2
Fore
SplineSet
287 71 m 0
 287 69 273 62 273 60 c 0
 273 59 262 56 262 57 c 0
 262 57 251 45 235 62 c 0
 223 75 221 68 214 82 c 0
 210 90 210 92 212 98 c 0
 213 102 215 132 216 175 c 2
 217 246 l 1
 182 245 l 2
 102 242 126 233 58 231 c 0
 50 231 36 230 27 265 c 0
 21 285 41 295 41 295 c 0
 80 313 111 323 188 324 c 0
 205 324 219 324 220 325 c 0
 222 327 220 412 218 427 c 0
 216 441 216 442 221 454 c 0
 229 473 230 474 245 477 c 0
 266 481 281 480 285 476 c 0
 287 474 301 457 302 361 c 2
 302 320 l 1
 329 316 396 313 411 312 c 0
 455 310 454 311 459 306 c 0
 463 302 473 262 468 251 c 0
 461 235 445 230 400 232 c 0
 366 233 311 236 304 238 c 0
 300 239 297 240 296 161 c 0
 295 106 294 79 290 75 c 0
 289 73 287 72 287 71 c 0
EndSplineSet
EndChar

StartChar: brokenbar
Encoding: 166 166 67
Width: 514
VWidth: 937
Flags: HW
LayerCount: 2
Fore
SplineSet
210 631 m 0
 210 631 210 631 212 662 c 0
 212 664 215 669 219 673 c 0
 225 680 225 679 266 683 c 0
 267 683 283 676 283 661 c 0
 283 657 284 652 286 650 c 0
 287 649 298 586 288 478 c 0
 274 333 296 304 281 275 c 0
 273 259 263 259 253 259 c 1
 274 253 284 234 284 234 c 0
 288 226 290 191 290 105 c 0
 290 57 291 0 292 -22 c 0
 295 -91 285 -142 285 -143 c 0
 284 -145 283 -149 282 -152 c 0
 281 -156 278 -159 272 -162 c 0
 263 -166 263 -166 245 -163 c 0
 207 -156 206 -155 210 -95 c 0
 212 -54 212 -39 208 23 c 0
 206 59 209 232 218 237 c 0
 219 238 220 240 220 242 c 0
 220 251 232 260 242 258 c 0
 256 256 230 265 230 265 c 0
 226 265 212 271 212 273 c 0
 212 274 210 276 208 279 c 0
 200 288 209 307 204 325 c 0
 201 334 201 439 204 445 c 0
 210 455 211 521 210 631 c 0
EndSplineSet
EndChar

StartChar: ampersand
Encoding: 38 38 68
Width: 514
VWidth: 749
Flags: HW
LayerCount: 2
Fore
SplineSet
91 554 m 0
 97 554 101 568 155 571 c 0
 167 572 177 572 179 571 c 0
 181 570 187 569 192 568 c 0
 242 560 307 507 311 451 c 0
 312 430 311 411 308 406 c 0
 308 405 300 373 280 346 c 0
 264 324 262 321 252 310 c 2
 242 300 l 1
 254 290 l 2
 270 278 270 278 316 238 c 2
 334 223 l 1
 337 231 l 2
 339 235 341 241 342 244 c 0
 343 248 343 248 360 268 c 0
 365 274 369 275 388 269 c 2
 402 265 l 1
 405 255 l 2
 412 225 398 178 396 173 c 0
 394 168 394 167 405 157 c 0
 405 157 441 124 443 124 c 0
 445 124 459 102 466 94 c 0
 471 88 472 77 468 69 c 0
 465 63 427 39 420 39 c 0
 398 39 396 60 369 82 c 2
 356 93 l 1
 279 -13 219 -5 208 -14 c 0
 206 -16 159 -16 159 -14 c 0
 159 -13 153 -11 146 -9 c 0
 130 -5 130 -5 105 10 c 0
 65 33 45 60 34 104 c 0
 6 213 43 242 43 256 c 0
 43 261 70 291 80 296 c 0
 83 298 90 302 96 306 c 0
 107 313 107 314 98 324 c 0
 64 361 28 457 61 516 c 0
 68 529 88 554 91 554 c 0
214 470 m 0
 202 482 184 494 161 494 c 0
 158 494 150 492 142 491 c 0
 127 489 119 464 124 436 c 0
 129 410 159 362 175 355 c 0
 181 352 181 353 192 363 c 0
 201 372 231 404 231 432 c 0
 231 451 228 457 214 470 c 0
278 163 m 2
 263 178 189 241 188 242 c 2
 168 258 l 1
 158 252 l 2
 122 232 96 215 110 138 c 0
 115 112 119 100 126 93 c 0
 134 84 157 72 171 68 c 0
 183 65 184 65 199 68 c 0
 224 73 235 80 261 106 c 0
 273 118 287 132 290 137 c 2
 296 146 l 1
 278 163 l 2
EndSplineSet
EndChar

StartChar: asciicircum
Encoding: 94 94 69
Width: 514
VWidth: 721
Flags: HW
LayerCount: 2
Fore
SplineSet
172 389 m 0
 172 385 158 371 158 367 c 0
 158 363 125 332 117 329 c 0
 102 323 100 325 82 343 c 0
 66 359 65 359 65 369 c 0
 65 386 71 380 71 387 c 0
 71 389 88 414 92 418 c 0
 115 442 140 532 178 582 c 0
 181 586 186 593 187 596 c 0
 195 615 246 613 246 604 c 0
 246 603 248 602 249 602 c 0
 252 602 276 577 276 574 c 0
 276 562 395 453 412 423 c 0
 421 407 426 395 425 392 c 0
 425 391 426 386 427 380 c 0
 431 364 427 360 401 350 c 0
 378 341 366 336 350 368 c 0
 337 395 307 418 289 441 c 0
 287 444 284 447 283 447 c 0
 281 447 281 446 239 492 c 2
 225 508 l 1
 221 497 l 2
 217 487 191 434 191 433 c 0
 191 430 173 399 172 389 c 0
EndSplineSet
EndChar

StartChar: underscore
Encoding: 95 95 70
Width: 514
VWidth: 168
Flags: HW
LayerCount: 2
Fore
SplineSet
431 31 m 0
 451 39 459 22 465 7 c 2
 473 -13 l 1
 467 -26 l 2
 461 -39 455 -44 448 -44 c 0
 447 -44 442 -47 438 -49 c 0
 423 -57 323 -52 317 -55 c 0
 312 -58 167 -60 99 -58 c 0
 46 -57 37 -55 27 -41 c 0
 21 -33 21 -31 24 -5 c 0
 28 25 30 25 107 23 c 0
 154 21 259 23 275 25 c 0
 277 25 427 29 431 31 c 0
EndSplineSet
EndChar

StartChar: emdash
Encoding: 8212 8212 71
Width: 514
VWidth: 510
Flags: HW
LayerCount: 2
Fore
SplineSet
87 276 m 0
 210 276 468 282 472 282 c 2
 539 282 l 1
 546 291 546 291 565 293 c 0
 581 294 598 271 603 271 c 0
 604 271 606 268 608 264 c 0
 611 258 611 256 608 241 c 0
 604 218 603 216 592 209 c 2
 583 203 l 1
 505 202 l 2
 413 201 306 198 278 195 c 0
 266 194 234 194 199 195 c 0
 136 196 79 196 -20 195 c 0
 -73 194 -81 195 -86 198 c 0
 -94 203 -107 204 -113 211 c 0
 -120 220 -116 273 -98 273 c 0
 -96 273 -93 273 -92 274 c 0
 -91 275 -10 276 87 276 c 0
EndSplineSet
EndChar

StartChar: endash
Encoding: 8211 8211 72
Width: 514
VWidth: 435
Flags: HW
LayerCount: 2
Fore
SplineSet
140 289 m 0
 158 289 446 300 449 300 c 0
 464 301 467 284 469 270 c 0
 471 259 473 247 474 244 c 0
 474 244 476 228 450 223 c 0
 418 217 369 214 360 217 c 0
 344 222 78 192 37 215 c 0
 18 226 19 257 23 265 c 0
 37 289 105 289 140 289 c 0
EndSplineSet
EndChar

StartChar: hyphen
Encoding: 45 45 73
Width: 514
VWidth: 446
Flags: HW
LayerCount: 2
Fore
SplineSet
266 316 m 0
 301 320 421 320 423 320 c 0
 442 319 443 319 449 313 c 0
 455 306 456 303 458 278 c 0
 459 259 457 253 447 246 c 0
 439 240 425 239 349 237 c 0
 347 237 115 228 101 226 c 0
 53 219 48 230 40 252 c 0
 23 296 72 297 72 303 c 0
 72 312 220 310 266 316 c 0
EndSplineSet
EndChar

StartChar: parenleft
Encoding: 40 40 74
Width: 514
VWidth: 868
Flags: HW
LayerCount: 2
Fore
SplineSet
345 -79 m 0
 345 -81 332 -102 312 -102 c 0
 293 -102 244 -48 229 -27 c 0
 215 -7 188 42 178 66 c 0
 162 104 160 108 152 137 c 0
 132 210 132 211 133 274 c 0
 134 310 135 332 137 343 c 0
 146 391 158 421 158 422 c 0
 158 432 214 552 239 574 c 0
 241 576 243 580 243 581 c 0
 243 584 261 608 271 618 c 0
 274 622 286 630 296 635 c 0
 327 651 334 648 351 617 c 2
 361 597 l 1
 358 588 l 2
 352 574 346 576 341 567 c 0
 339 564 335 560 331 558 c 0
 315 550 196 407 215 230 c 0
 222 160 265 63 278 44 c 0
 330 -36 354 -28 355 -52 c 0
 355 -70 345 -71 345 -79 c 0
EndSplineSet
EndChar

StartChar: parenright
Encoding: 41 41 75
Width: 514
VWidth: 861
Flags: HW
LayerCount: 2
Fore
SplineSet
144 611 m 0
 150 630 152 639 170 640 c 0
 178 640 215 629 219 625 c 0
 221 623 223 623 224 623 c 0
 226 623 228 615 247 591 c 0
 271 562 303 511 311 488 c 0
 322 461 330 438 336 415 c 0
 353 350 353 349 354 342 c 0
 360 306 357 203 349 181 c 0
 349 180 339 107 331 99 c 0
 330 98 330 96 330 94 c 0
 330 90 311 48 303 33 c 0
 275 -18 225 -68 218 -82 c 0
 214 -90 208 -93 178 -99 c 0
 168 -101 164 -101 156 -94 c 0
 145 -85 138 -74 138 -68 c 0
 138 -64 142 -53 145 -40 c 0
 151 -17 162 -26 176 -6 c 0
 180 0 190 11 197 20 c 0
 217 44 252 83 267 178 c 0
 269 194 273 215 275 226 c 0
 283 269 270 357 268 362 c 0
 267 363 250 437 222 485 c 0
 217 493 214 501 214 502 c 0
 214 507 171 558 155 573 c 0
 137 589 140 597 144 611 c 0
EndSplineSet
EndChar

StartChar: bracketleft
Encoding: 91 91 76
Width: 514
VWidth: 855
Flags: HW
LayerCount: 2
Fore
SplineSet
130 619 m 0
 134 627 158 637 163 636 c 0
 185 631 209 630 209 633 c 0
 209 635 231 635 231 630 c 0
 231 627 232 628 243 629 c 0
 250 630 279 630 309 630 c 0
 382 629 382 630 380 592 c 0
 379 567 376 558 369 558 c 0
 367 558 364 558 364 557 c 0
 363 555 236 549 216 551 c 2
 202 553 l 1
 200 512 l 2
 198 453 199 370 202 366 c 0
 204 364 204 341 204 262 c 0
 204 260 208 53 206 50 c 0
 205 49 204 35 204 19 c 2
 204 -10 l 1
 228 -10 l 2
 241 -10 252 -10 252 -9 c 0
 252 -7 268 -10 269 -7 c 0
 271 -3 312 -4 321 -8 c 0
 338 -15 344 -5 357 -19 c 0
 364 -26 364 -28 365 -45 c 0
 367 -74 368 -75 361 -82 c 0
 357 -86 353 -88 350 -88 c 0
 343 -88 367 -92 242 -89 c 0
 213 -88 165 -102 141 -89 c 0
 111 -74 111 -55 117 -25 c 0
 117 -23 133 127 125 153 c 0
 123 160 122 170 122 187 c 0
 123 248 124 312 119 357 c 0
 112 422 121 486 117 577 c 2
 116 601 l 1
 122 607 127 613 130 619 c 0
EndSplineSet
EndChar

StartChar: bracketright
Encoding: 93 93 77
Width: 514
VWidth: 837
Flags: HW
LayerCount: 2
Fore
SplineSet
155 619 m 0
 198 618 201 624 230 619 c 0
 245 616 240 616 324 616 c 0
 350 616 358 616 364 613 c 0
 368 611 372 609 372 608 c 0
 372 607 374 604 377 600 c 0
 384 592 386 584 387 550 c 0
 391 411 395 255 390 211 c 0
 389 204 384 -67 384 -70 c 0
 382 -86 377 -91 366 -91 c 0
 354 -91 356 -103 333 -96 c 0
 325 -94 312 -93 290 -93 c 0
 243 -93 201 -95 197 -97 c 0
 196 -97 160 -102 139 -92 c 0
 133 -89 127 -87 126 -87 c 0
 125 -87 124 -87 124 -86 c 0
 124 -85 122 -82 120 -79 c 0
 109 -66 126 -24 130 -24 c 0
 134 -24 140 -16 156 -16 c 0
 200 -19 268 -12 288 -12 c 2
 304 -12 l 1
 306 -1 l 2
 307 5 307 51 307 101 c 0
 307 138 311 318 311 320 c 0
 311 386 308 517 306 530 c 2
 304 538 l 1
 263 539 l 2
 194 540 209 545 197 541 c 0
 192 539 182 539 163 540 c 0
 119 542 112 546 107 566 c 0
 102 587 102 598 107 605 c 0
 112 612 116 614 123 614 c 0
 137 614 114 620 155 619 c 0
EndSplineSet
EndChar

StartChar: braceleft
Encoding: 123 123 78
Width: 514
VWidth: 874
Flags: HW
LayerCount: 2
Fore
SplineSet
159 323 m 0
 163 323 175 331 182 331 c 0
 185 331 192 334 198 339 c 0
 208 346 213 350 200 374 c 0
 192 389 190 399 172 432 c 0
 140 489 146 537 147 538 c 0
 148 539 149 543 149 547 c 0
 149 551 150 553 151 553 c 0
 152 553 153 555 153 556 c 0
 153 558 160 572 167 585 c 0
 171 592 192 612 197 614 c 0
 201 615 236 642 258 642 c 0
 272 642 275 646 285 648 c 0
 292 649 321 646 331 643 c 0
 360 634 340 583 337 580 c 0
 325 568 283 573 264 561 c 0
 245 549 238 542 233 533 c 2
 228 524 l 1
 232 506 l 2
 235 489 246 464 250 462 c 0
 255 460 277 400 282 400 c 0
 288 400 294 331 288 327 c 0
 285 325 285 315 278 306 c 0
 264 287 289 283 289 275 c 0
 289 271 311 233 303 194 c 0
 291 139 295 173 288 144 c 0
 282 121 248 67 248 60 c 0
 248 52 233 46 232 21 c 0
 232 6 236 -2 250 -15 c 0
 258 -22 258 -22 268 -21 c 0
 274 -20 282 -20 286 -20 c 0
 301 -20 311 -8 335 -20 c 2
 347 -26 l 1
 354 -44 l 2
 358 -56 370 -91 338 -91 c 0
 324 -91 327 -106 283 -104 c 0
 244 -102 238 -91 235 -91 c 0
 228 -91 169 -49 169 -41 c 0
 169 -40 168 -38 166 -36 c 0
 165 -35 134 31 171 94 c 0
 194 134 212 166 220 203 c 2
 223 219 l 1
 218 229 l 2
 212 241 208 243 194 240 c 0
 186 238 182 240 164 245 c 0
 142 251 140 253 139 267 c 0
 138 276 134 279 134 291 c 0
 133 302 140 316 147 317 c 0
 153 318 155 323 159 323 c 0
EndSplineSet
EndChar

StartChar: braceright
Encoding: 125 125 79
Width: 514
VWidth: 893
Flags: HW
LayerCount: 2
Fore
SplineSet
160 631 m 0
 160 650 178 655 178 655 c 0
 184 655 193 664 209 662 c 0
 255 658 282 653 299 633 c 0
 303 629 306 626 308 626 c 0
 310 626 311 625 310 624 c 0
 307 618 336 607 341 554 c 0
 348 476 307 419 306 419 c 0
 305 419 303 418 303 417 c 0
 303 414 276 374 276 362 c 0
 276 345 339 331 341 328 c 0
 343 324 359 323 362 312 c 0
 362 311 364 309 365 308 c 0
 369 305 370 291 367 285 c 0
 366 282 364 277 363 273 c 0
 362 267 361 265 353 261 c 0
 348 259 342 256 339 254 c 0
 331 249 299 247 296 235 c 0
 291 216 317 160 317 159 c 0
 317 158 330 135 332 78 c 0
 335 0 309 -43 309 -44 c 0
 309 -47 298 -61 296 -61 c 0
 295 -61 293 -63 293 -64 c 0
 293 -74 270 -94 252 -100 c 0
 216 -111 216 -111 215 -110 c 0
 207 -104 122 -120 125 -72 c 0
 126 -59 137 -29 142 -26 c 0
 158 -18 186 -35 214 -27 c 0
 252 -16 261 94 239 138 c 0
 227 163 223 173 223 177 c 0
 223 181 203 244 222 269 c 0
 225 273 226 277 226 278 c 0
 226 280 227 283 229 285 c 0
 237 296 211 296 200 329 c 0
 196 340 195 347 195 365 c 0
 195 374 195 401 211 421 c 0
 217 429 240 467 246 479 c 0
 258 502 273 551 247 569 c 0
 208 595 207 569 182 584 c 0
 169 592 160 611 160 631 c 0
EndSplineSet
EndChar

StartChar: slash
Encoding: 47 47 80
Width: 514
VWidth: 773
Flags: HW
LayerCount: 2
Fore
SplineSet
218 91 m 0
 218 88 200 56 201 56 c 0
 202 56 168 -10 168 -10 c 0
 169 -10 156 -32 154 -46 c 0
 153 -51 137 -62 129 -65 c 0
 112 -70 99 -54 89 -54 c 0
 88 -54 84 -52 81 -49 c 0
 72 -41 75 -24 89 8 c 0
 96 24 128 88 128 88 c 0
 126 88 146 120 145 122 c 0
 145 124 160 154 159 155 c 0
 158 156 198 255 198 256 c 0
 198 259 224 317 225 326 c 0
 226 330 239 353 239 356 c 0
 239 360 287 460 294 469 c 0
 302 480 309 492 307 492 c 0
 306 492 339 539 343 557 c 0
 349 589 374 578 388 573 c 0
 396 570 403 568 404 568 c 0
 408 567 416 559 418 553 c 0
 426 533 389 469 383 464 c 0
 362 427 l 0
 364 427 346 400 344 392 c 0
 343 385 328 361 329 360 c 0
 330 359 312 327 312 325 c 0
 312 324 285 264 285 258 c 0
 285 253 259 199 259 192 c 0
 259 184 218 92 218 91 c 0
EndSplineSet
EndChar

StartChar: backslash
Encoding: 92 92 81
Width: 514
VWidth: 773
Flags: HW
LayerCount: 2
Fore
SplineSet
236 192 m 0
 236 199 211 253 211 258 c 0
 211 272 142 411 141 412 c 0
 136 420 132 427 133 427 c 0
 136 427 66 526 77 553 c 0
 81 563 82 563 107 573 c 0
 116 576 126 579 130 579 c 0
 142 579 150 572 153 557 c 0
 157 539 188 492 188 492 c 0
 183 492 209 460 208 458 c 0
 207 456 216 445 222 431 c 0
 227 417 256 359 256 356 c 0
 256 353 270 330 271 326 c 0
 272 317 297 259 297 256 c 0
 297 252 309 232 312 220 c 0
 323 180 351 123 351 122 c 0
 350 120 369 88 367 88 c 0
 365 88 403 21 402 20 c 0
 402 15 431 -33 414 -49 c 0
 411 -52 408 -54 407 -54 c 0
 397 -54 383 -70 366 -65 c 0
 358 -62 343 -51 342 -46 c 0
 340 -32 327 -10 328 -10 c 0
 330 -10 311 18 310 23 c 0
 309 28 293 56 294 56 c 0
 295 56 278 88 278 91 c 0
 278 92 236 184 236 192 c 0
EndSplineSet
EndChar

StartChar: less
Encoding: 60 60 82
Width: 514
VWidth: 729
Flags: HW
LayerCount: 2
Fore
SplineSet
356 549 m 0
 376 559 376 558 395 539 c 0
 404 530 412 521 414 517 c 0
 421 503 424 507 327 409 c 0
 247 329 217 300 211 300 c 0
 209 300 180 278 179 275 c 0
 178 272 194 262 233 220 c 0
 284 165 301 155 306 143 c 0
 308 138 358 81 371 69 c 0
 398 42 392 43 402 33 c 0
 411 23 410 16 397 -3 c 0
 384 -21 384 -21 373 -24 c 0
 339 -33 318 13 311 16 c 0
 299 22 236 106 223 115 c 0
 197 133 191 155 122 217 c 0
 108 230 74 262 78 277 c 0
 78 278 79 282 80 286 c 0
 82 302 87 308 101 314 c 0
 106 316 109 323 143 348 c 0
 200 390 267 463 271 463 c 0
 272 463 275 466 278 469 c 0
 297 493 346 544 356 549 c 0
EndSplineSet
EndChar

StartChar: greater
Encoding: 62 62 83
Width: 514
VWidth: 729
Flags: HW
LayerCount: 2
Fore
SplineSet
100 539 m 0
 119 558 119 559 139 549 c 0
 149 544 198 493 217 469 c 0
 220 466 223 463 224 463 c 0
 228 463 295 390 352 348 c 0
 369 336 393 314 394 314 c 0
 408 308 413 302 415 286 c 0
 417 269 419 258 373 217 c 0
 304 155 298 133 272 115 c 0
 268 112 261 103 255 96 c 0
 250 90 193 20 184 16 c 0
 176 13 156 -33 122 -24 c 0
 111 -21 111 -21 98 -3 c 0
 85 16 84 23 93 33 c 0
 102 43 97 42 124 69 c 0
 137 82 187 138 189 143 c 0
 194 156 210 164 262 220 c 0
 277 236 296 255 303 261 c 0
 310 267 316 274 316 275 c 0
 315 278 286 300 284 300 c 0
 278 300 247 329 168 409 c 0
 71 507 74 503 81 517 c 0
 83 521 91 530 100 539 c 0
EndSplineSet
EndChar

StartChar: divide
Encoding: 247 247 84
Width: 514
VWidth: 641
Flags: HW
LayerCount: 2
Fore
SplineSet
237 500 m 1
 237 498 246 504 255 505 c 0
 263 505 276 499 277 495 c 0
 281 484 297 487 301 469 c 0
 304 458 280 417 280 423 c 0
 280 425 273 418 269 411 c 0
 264 403 261 400 247 399 c 0
 223 397 214 399 207 409 c 0
 205 411 202 417 198 421 c 0
 179 442 205 481 215 484 c 0
 217 485 219 486 219 487 c 0
 219 489 225 489 232 496 c 0
 235 499 237 500 237 500 c 1
42 315 m 0
 42 330 370 326 373 329 c 0
 375 331 428 329 445 327 c 0
 461 325 463 324 468 319 c 0
 473 313 473 312 473 294 c 0
 473 281 472 273 470 268 c 0
 467 261 457 250 453 250 c 0
 391 247 142 250 78 243 c 0
 68 242 60 241 59 242 c 0
 58 243 52 244 46 245 c 0
 28 247 23 257 22 286 c 2
 21 300 l 1
 29 307 l 2
 33 311 37 314 39 314 c 0
 40 314 42 314 42 315 c 0
208 156 m 0
 209 156 244 172 266 159 c 0
 275 153 276 153 288 130 c 0
 300 109 300 101 290 92 c 0
 287 89 284 86 284 85 c 0
 284 82 270 61 268 61 c 0
 261 61 250 40 221 55 c 0
 216 58 210 59 209 59 c 0
 208 59 207 60 207 61 c 0
 207 63 197 65 194 77 c 0
 194 79 192 85 190 91 c 0
 187 100 186 104 188 109 c 0
 189 113 190 117 190 120 c 0
 190 127 203 153 208 156 c 0
EndSplineSet
EndChar

StartChar: plusminus
Encoding: 177 177 85
Width: 514
VWidth: 745
Flags: HW
LayerCount: 2
Fore
SplineSet
27 405 m 0
 30 405 30 411 34 411 c 0
 40 411 41 420 73 424 c 0
 74 424 150 437 168 438 c 0
 185 439 200 440 201 441 c 0
 203 442 202 517 199 535 c 0
 195 563 200 565 218 576 c 0
 227 582 236 587 239 588 c 0
 243 590 258 590 260 588 c 0
 260 588 266 578 273 566 c 2
 287 544 l 1
 286 513 l 2
 286 510 284 447 284 446 c 0
 285 437 280 438 332 433 c 0
 367 429 417 429 440 433 c 0
 457 436 463 418 463 418 c 0
 467 400 470 376 469 372 c 0
 461 338 330 352 329 352 c 0
 315 354 300 356 293 357 c 2
 281 358 l 1
 279 325 l 2
 275 242 290 260 287 244 c 0
 286 238 282 231 280 231 c 0
 276 231 271 213 256 213 c 0
 250 213 245 207 239 208 c 0
 216 213 215 219 215 219 c 0
 215 220 213 224 210 228 c 0
 200 242 199 255 199 310 c 2
 199 360 l 1
 153 358 l 2
 46 352 31 364 26 371 c 0
 23 375 19 405 27 405 c 0
68 149 m 0
 146 175 265 184 425 176 c 0
 465 174 466 173 471 164 c 0
 474 159 473 125 470 112 c 0
 466 94 453 94 412 96 c 0
 411 96 314 99 288 99 c 0
 219 104 71 71 70 71 c 0
 48 72 43 88 40 98 c 0
 34 120 33 120 38 130 c 0
 43 141 47 142 68 149 c 0
EndSplineSet
EndChar

StartChar: radical
Encoding: 8730 8730 86
Width: 514
VWidth: 857
Flags: HW
LayerCount: 2
Fore
SplineSet
257 638 m 0
 338 607 444 632 474 619 c 0
 479 617 483 616 484 616 c 0
 488 616 495 605 495 599 c 0
 495 587 508 582 502 567 c 0
 499 561 473 534 453 540 c 0
 412 552 347 532 287 547 c 2
 277 550 l 1
 275 518 l 2
 274 501 273 478 272 467 c 0
 269 423 239 214 239 211 c 0
 239 208 201 -38 187 -68 c 0
 178 -87 165 -80 160 -85 c 0
 153 -92 131 -88 124 -79 c 0
 123 -78 67 11 49 54 c 0
 26 112 16 138 10 143 c 0
 8 144 4 149 2 153 c 0
 -12 180 -12 182 -2 197 c 0
 17 225 25 229 40 219 c 0
 61 205 87 180 87 174 c 0
 87 168 123 91 123 90 c 0
 129 75 132 70 133 73 c 0
 133 75 158 227 162 244 c 0
 166 264 194 511 194 514 c 0
 201 585 201 587 207 595 c 0
 207 596 243 643 257 638 c 0
EndSplineSet
EndChar

StartChar: Sigma
Encoding: 931 931 87
Width: 514
Flags: HW
AnchorPoint: "above" 257.007 620.195 basechar 0
LayerCount: 2
Fore
SplineSet
384.733398438 598.982421875 m 0
 400.893554688 598.982421875 417.110351562 598.444335938 427.032226562 598.444335938 c 0
 429.620117188 598.444335938 433.947265625 598.444335938 435.56640625 598.982421875 c 2
 436.76953125 598.982421875 l 2
 439.758789062 598.982421875 449.765625 600.1953125 457.366210938 600.1953125 c 0
 468.247070312 600.1953125 476.182617188 600.1953125 480.77734375 595.600585938 c 0
 488.5234375 587.854492188 491.319335938 577.96484375 491.319335938 564.352539062 c 0
 491.319335938 548.373046875 487.794921875 530.041015625 487.794921875 500.70703125 c 0
 487.794921875 493.43359375 488.09765625 478.518554688 488.09765625 478.294921875 c 0
 488.09765625 474.016601562 487.764648438 470.053710938 485.44921875 466.477539062 c 0
 480.34765625 458.0859375 471.979492188 454.528320312 461.000976562 454.528320312 c 0
 438.44140625 454.528320312 431.224609375 458.561523438 427.557617188 463.102539062 c 0
 421.2109375 469.662109375 420.875976562 476.311523438 420.875976562 493.109375 c 0
 420.875976562 495.090820312 420.880859375 497.213867188 420.880859375 499.495117188 c 0
 420.880859375 514.75 420.018554688 522.54296875 418.584960938 525.044921875 c 0
 417.420898438 527.077148438 413.717773438 528.943359375 395.2265625 529.655273438 c 0
 381.387695312 530.298828125 367.71484375 530.59765625 354.590820312 530.59765625 c 0
 262.354492188 530.59765625 261.208007812 518.58203125 181.403320312 515.11328125 c 0
 157.161132812 514.21484375 143.064453125 513.034179688 138.46875 512.451171875 c 0
 137.970703125 510.872070312 137.377929688 507.130859375 137.323242188 506.80859375 c 0
 139.79296875 503.698242188 149.8828125 491.62109375 150.014648438 491.471679688 c 0
 152.477539062 488.662109375 154.647460938 486.62890625 156.25390625 483.415039062 c 0
 157.327148438 481.267578125 158.987304688 479.469726562 158.987304688 479.469726562 c 1
 165.98828125 475.873046875 168.721679688 468.0546875 168.76953125 467.911132812 c 0
 168.9375 467.407226562 193.26953125 439.9375 206.725585938 430.752929688 c 0
 211.7265625 428.046875 214.079101562 423.495117188 215.556640625 420.541992188 c 0
 220.009765625 415.625976562 217.624023438 422.452148438 236.291992188 403.286132812 c 0
 241.044921875 398.40625 245.052734375 394.262695312 247.12109375 390.125 c 0
 248.220703125 387.928710938 248.634765625 387.43359375 248.704101562 387.359375 c 0
 256.909179688 383.216796875 257.701171875 375.942382812 264.727539062 368.231445312 c 0
 270.395507812 364.083007812 273.884765625 357.2109375 276.451171875 350.793945312 c 0
 278.168945312 346.499023438 284.474609375 336.008789062 284.552734375 335.857421875 c 0
 288.3984375 329.283203125 289.547851562 320.620117188 289.547851562 313.04296875 c 0
 289.547851562 297.60546875 287.564453125 294.262695312 226.344726562 230.1328125 c 0
 219.53515625 223.322265625 212.030273438 213.9765625 211.986328125 213.889648438 c 0
 208.938476562 207.794921875 201.956054688 202.365234375 201.5859375 202.180664062 c 0
 196.57421875 197.8359375 200.32421875 195.631835938 189.997070312 185.303710938 c 0
 188.854492188 184.161132812 186.122070312 180.890625 185.731445312 179.71875 c 0
 183.515625 173.0703125 177.857421875 168.318359375 174.256835938 164.717773438 c 0
 166.513671875 156.9765625 164.857421875 146.955078125 156.700195312 142.786132812 c 0
 152.647460938 139.073242188 149.586914062 129.614257812 142.15625 125.821289062 c 0
 141.71875 125.427734375 125.0703125 99.3359375 124.09765625 95.44921875 c 0
 120.977539062 82.9658203125 113.53125 82.2578125 110.702148438 70.9423828125 c 0
 110.548828125 70.4833984375 110.461914062 70.22265625 110.329101562 69.8056640625 c 1
 114.108398438 69.349609375 121.841796875 68.759765625 133.75 68.318359375 c 0
 133.837890625 68.318359375 133.92578125 68.30859375 134.013671875 68.30859375 c 0
 148.879882812 68.30078125 166.8203125 67.123046875 175.962890625 65.8330078125 c 0
 181.827148438 65.25 189.673828125 64.9775390625 189.909179688 64.9775390625 c 0
 193.782226562 64.9638671875 197.258789062 65.234375 201.924804688 65.8173828125 c 0
 259.416015625 73.65625 342.98828125 67.5791015625 371.638671875 74.9912109375 c 0
 376.439453125 76.2333984375 380.4375 77.2646484375 385.911132812 77.2646484375 c 0
 398.53515625 77.2646484375 409.904296875 75.736328125 421.811523438 72.916015625 c 1
 424.515625 82.62890625 424.515625 82.62890625 424.515625 98.4599609375 c 0
 424.515625 118.745117188 426.94921875 131.216796875 439.915039062 136.774414062 c 0
 445.358398438 139.106445312 449.830078125 141.052734375 455.478515625 141.052734375 c 0
 458.390625 141.052734375 461.223632812 140.48828125 464.12890625 139.552734375 c 0
 472.080078125 137.834960938 472.479492188 137.436523438 496.170898438 113.747070312 c 0
 496.198242188 112.934570312 499.014648438 36.7861328125 499.014648438 32.4296875 c 0
 499.014648438 13.263671875 495.725585938 10.5732421875 485.125 1.8994140625 c 0
 479.749023438 -2.580078125 472.333007812 -7.4072265625 459.452148438 -7.4072265625 c 0
 459.182617188 -7.4072265625 441.010742188 -7.2265625 432.966796875 -2.400390625 c 0
 419.924804688 5.42578125 385.237304688 5.533203125 383.53125 5.533203125 c 0
 382.716796875 5.533203125 353.587890625 3.818359375 302.134765625 3.818359375 c 0
 301.364257812 3.818359375 300.606445312 3.818359375 299.860351562 3.818359375 c 0
 256.504882812 3.818359375 236.198242188 2.4150390625 225.758789062 -0.6865234375 c 0
 216.9375 -3.6083984375 206.686523438 -4.8291015625 194.936523438 -4.8291015625 c 0
 171.448242188 -4.8291015625 138.51953125 1.3955078125 119.334960938 1.3955078125 c 2
 119.130859375 1.3955078125 l 1
 74.5 2.6015625 49.845703125 6.5634765625 39.3037109375 13.27734375 c 0
 39.0615234375 13.40234375 28.90234375 19.08203125 28.794921875 19.1357421875 c 0
 18.798828125 24.1337890625 15 33.021484375 15 45.150390625 c 0
 15 65.7939453125 19.9228515625 73.720703125 28.025390625 80.4736328125 c 0
 31.783203125 82.451171875 31.931640625 93.82421875 41.990234375 98.96484375 c 0
 44.7080078125 101.407226562 57.166015625 125.602539062 58.9951171875 131.091796875 c 0
 60.97265625 137.020507812 65.5537109375 140.791015625 68.337890625 144.965820312 c 0
 77.4951171875 158.706054688 74.587890625 162.326171875 83.80859375 171.545898438 c 0
 88.5185546875 176.256835938 92.580078125 186.659179688 101.490234375 191.112304688 c 0
 105.046875 192.890625 101.208984375 192.008789062 117.544921875 213.37109375 c 0
 120.409179688 217.1171875 123.435546875 221.366210938 123.608398438 221.712890625 c 0
 130.208984375 234.913085938 132.509765625 228.048828125 135.63671875 237.434570312 c 1
 141.630859375 246.42578125 142.0859375 247.107421875 146.1875 249.202148438 c 0
 146.534179688 249.514648438 148.340820312 251.790039062 149.052734375 253.213867188 c 0
 149.827148438 254.762695312 152.778320312 259.712890625 162.041015625 267.65234375 c 0
 169.172851562 273.764648438 159.8671875 268.203125 185.581054688 293.916015625 c 0
 201.334960938 309.669921875 203.256835938 313.677734375 204.819335938 317.58203125 c 0
 205.584960938 318.731445312 206.201171875 319.655273438 206.973632812 321.416992188 c 1
 185.575195312 342.815429688 212.53125 320.706054688 173.46484375 359.772460938 c 0
 153.990234375 379.247070312 149.094726562 383.645507812 146.318359375 385.034179688 c 0
 142.2421875 387.072265625 138.704101562 388.92578125 137.671875 392.85546875 c 0
 136.654296875 394.002929688 134.0625 396.751953125 131.060546875 399.75390625 c 0
 119.173828125 411.637695312 121.834960938 412.008789062 106.977539062 426.866210938 c 0
 84.20703125 449.635742188 78.638671875 457.659179688 72.306640625 469.690429688 c 0
 70.86328125 472.432617188 69.306640625 474.834960938 69.2705078125 474.872070312 c 0
 62.0732421875 482.06640625 56.1611328125 509.348632812 50.662109375 522.19140625 c 0
 48.2177734375 528.3046875 46.501953125 533.50390625 46.501953125 540.688476562 c 0
 46.501953125 540.896484375 46.501953125 541.103515625 46.501953125 541.309570312 c 0
 46.501953125 555.240234375 48.1494140625 560.728515625 66.5615234375 569.2265625 c 0
 85.88671875 578.145507812 87.55859375 578.91796875 140.858398438 581.599609375 c 0
 198.19921875 584.485351562 205.87890625 584.870117188 225.366210938 590.28125 c 0
 247.909179688 595.916992188 295.647460938 599.215820312 356.803710938 599.215820312 c 0
 365.84375 599.215820312 375.16796875 599.139648438 384.733398438 598.982421875 c 0
EndSplineSet
EndChar

StartChar: asterisk
Encoding: 42 42 88
Width: 514
VWidth: 680
Flags: HW
LayerCount: 2
Fore
SplineSet
77 115 m 0
 77 134 87 136 87 142 c 0
 87 143 87 145 88 145 c 0
 89 145 107 163 127 184 c 2
 164 222 l 1
 131 222 l 2
 108 222 41 221 32 228 c 0
 22 235 20 242 20 259 c 0
 20 284 22 284 77 294 c 0
 131 304 162 302 175 304 c 0
 181 305 95 367 86 413 c 0
 85 420 85 421 95 431 c 0
 109 445 115 446 131 434 c 0
 147 422 158 416 177 400 c 0
 195 385 207 377 212 374 c 0
 216 372 216 372 215 380 c 0
 215 381 210 459 216 493 c 0
 219 511 220 513 226 518 c 0
 230 521 234 524 235 524 c 0
 241 524 271 517 275 515 c 0
 288 508 289 457 289 457 c 0
 292 449 293 429 296 385 c 2
 298 370 l 1
 382 471 392 463 416 429 c 0
 436 400 435 399 400 363 c 0
 369 332 347 304 352 303 c 0
 353 303 422 297 438 301 c 0
 443 302 456 306 463 289 c 0
 475 261 476 261 475 253 c 0
 473 240 466 230 460 230 c 0
 458 230 456 229 456 228 c 0
 456 222 418 219 382 222 c 2
 363 224 l 1
 394 187 402 177 414 168 c 0
 432 155 430 153 419 130 c 0
 415 122 405 106 404 107 c 0
 401 108 396 101 374 102 c 0
 368 102 347 121 332 138 c 0
 332 138 311 161 300 175 c 1
 298 162 l 2
 298 161 289 17 287 13 c 0
 280 -1 272 0 255 1 c 0
 224 3 217 6 213 23 c 0
 209 40 213 127 218 152 c 0
 220 159 216 161 212 155 c 0
 208 150 152 97 152 99 c 0
 152 100 148 97 144 92 c 0
 128 76 117 74 100 86 c 0
 79 100 77 103 77 115 c 0
EndSplineSet
EndChar

StartChar: exclam
Encoding: 33 33 89
Width: 514
VWidth: 780
Flags: HW
LayerCount: 2
Fore
SplineSet
238 584 m 0
 263 591 271 595 284 556 c 0
 298 511 297 517 297 421 c 0
 296 341 297 265 297 226 c 0
 297 206 295 202 285 196 c 0
 283 195 280 193 280 191 c 0
 280 187 272 182 264 181 c 0
 255 180 226 193 221 200 c 0
 215 208 214 221 216 308 c 0
 218 421 218 481 215 487 c 0
 212 494 211 522 208 536 c 0
 200 569 202 573 238 584 c 0
237 -49 m 0
 208 -49 214 -38 205 -38 c 0
 196 -38 172 10 191 47 c 0
 201 66 205 71 224 85 c 0
 240 97 242 97 251 97 c 0
 267 97 261 89 267 89 c 0
 271 89 287 64 289 64 c 0
 289 64 305 55 308 37 c 0
 311 13 313 5 303 -5 c 0
 296 -12 273 -40 267 -40 c 0
 257 -40 266 -49 237 -49 c 0
EndSplineSet
EndChar

StartChar: question
Encoding: 63 63 90
Width: 514
VWidth: 804
Flags: HW
LayerCount: 2
Fore
SplineSet
198 596 m 0
 202 601 269 612 296 611 c 0
 309 611 344 602 350 597 c 0
 352 595 354 593 355 593 c 0
 366 592 382 576 392 572 c 0
 397 570 411 553 411 549 c 0
 411 548 445 511 426 443 c 0
 420 423 402 384 394 375 c 0
 392 373 391 371 390 369 c 0
 388 363 358 330 341 316 c 0
 300 281 237 247 236 246 c 0
 230 241 231 242 233 232 c 0
 234 226 253 178 252 168 c 0
 251 153 240 149 222 143 c 0
 208 138 198 136 195 137 c 0
 188 139 177 150 175 157 c 0
 173 166 169 168 166 180 c 0
 165 185 162 192 161 195 c 0
 156 207 151 231 151 247 c 0
 151 264 150 263 162 286 c 0
 173 307 258 346 297 383 c 0
 312 397 337 433 343 449 c 0
 347 459 351 488 349 488 c 0
 348 488 346 492 345 498 c 0
 342 511 335 517 312 525 c 0
 291 532 271 531 241 524 c 0
 211 517 195 508 170 483 c 0
 131 445 150 450 127 423 c 0
 126 422 125 420 125 419 c 0
 125 418 122 415 119 412 c 0
 117 410 87 395 63 427 c 1
 67 454 l 2
 69 472 71 482 74 487 c 0
 89 514 113 540 113 541 c 0
 113 545 164 579 165 581 c 0
 167 585 195 591 198 596 c 0
214 90 m 0
 223 94 237 99 277 53 c 0
 286 42 287 41 287 31 c 2
 287 21 l 1
 268 -1 l 2
 254 -17 242 -31 218 -29 c 0
 217 -29 173 5 171 17 c 0
 168 32 168 36 181 55 c 0
 189 67 208 87 214 90 c 0
EndSplineSet
EndChar

StartChar: numbersign
Encoding: 35 35 91
Width: 514
VWidth: 745
Flags: HW
LayerCount: 2
Fore
SplineSet
65 355 m 0
 74 355 117 369 128 369 c 0
 130 369 133 370 133 371 c 0
 133 374 157 373 160 379 c 0
 165 388 165 432 168 448 c 0
 168 449 184 542 184 543 c 0
 184 549 192 560 196 561 c 0
 196 561 235 565 241 557 c 0
 250 545 246 477 250 475 c 0
 251 474 251 474 244 395 c 0
 243 382 243 381 253 385 c 0
 256 386 268 387 281 388 c 2
 305 390 l 1
 311 422 l 2
 317 450 325 479 336 512 c 0
 341 529 345 537 353 542 c 2
 361 547 l 1
 378 542 l 2
 408 534 408 530 395 444 c 0
 394 439 388 402 386 389 c 1
 397 389 l 2
 403 389 418 390 431 391 c 0
 457 393 465 392 467 384 c 0
 468 381 468 379 469 379 c 0
 471 379 476 370 476 365 c 0
 476 354 487 353 481 334 c 0
 480 332 471 322 467 320 c 0
 437 304 372 312 372 309 c 0
 371 308 359 223 360 222 c 0
 361 221 381 225 427 226 c 0
 462 226 465 225 472 211 c 0
 476 203 477 169 473 162 c 0
 467 151 464 149 432 147 c 0
 415 146 397 145 391 145 c 0
 377 145 369 141 358 141 c 0
 353 141 349 140 348 139 c 0
 344 133 340 36 343 33 c 0
 343 33 352 16 332 7 c 0
 327 5 320 0 317 -2 c 0
 312 -6 312 -6 293 -5 c 0
 282 -4 273 3 264 18 c 0
 257 30 264 124 264 125 c 0
 265 129 265 129 263 128 c 0
 255 125 211 122 211 117 c 0
 211 111 204 30 204 14 c 0
 204 13 204 -40 183 -46 c 0
 181 -47 178 -49 177 -50 c 0
 175 -52 149 -57 139 -50 c 0
 132 -45 129 -42 129 -40 c 0
 129 -34 114 -31 114 -14 c 0
 115 7 120 -19 125 55 c 0
 126 79 127 91 129 105 c 1
 116 104 l 2
 115 104 72 100 58 100 c 0
 35 100 24 110 21 134 c 0
 20 145 20 146 26 153 c 0
 42 172 68 168 75 175 c 0
 76 176 88 179 101 181 c 0
 137 186 135 186 137 195 c 0
 138 202 152 296 146 296 c 0
 141 296 49 281 45 279 c 0
 34 273 28 276 19 289 c 0
 11 300 10 301 11 311 c 0
 11 317 12 323 13 324 c 0
 14 325 56 355 65 355 c 0
275 211 m 0
 275 213 287 284 289 300 c 0
 290 307 290 308 286 308 c 0
 284 308 271 306 257 305 c 2
 232 304 l 1
 229 281 l 2
 229 279 218 204 218 203 c 0
 217 200 219 201 235 204 c 0
 258 209 275 209 275 211 c 0
EndSplineSet
EndChar

StartChar: at
Encoding: 64 64 92
Width: 514
VWidth: 721
Flags: HW
LayerCount: 2
Fore
SplineSet
206 391 m 0
 209 391 224 405 228 405 c 0
 229 405 230 406 230 407 c 0
 230 408 235 411 254 418 c 0
 269 424 313 419 325 411 c 0
 328 409 331 407 332 407 c 0
 335 407 351 392 351 390 c 0
 351 389 354 385 358 380 c 0
 365 372 365 371 364 360 c 0
 363 354 363 348 362 346 c 0
 361 344 362 341 365 338 c 0
 386 315 375 260 382 253 c 0
 385 250 397 266 402 279 c 0
 419 323 394 394 378 418 c 0
 369 431 341 460 333 464 c 0
 319 471 253 501 191 445 c 0
 159 417 113 345 95 297 c 0
 69 228 93 130 149 101 c 0
 181 84 268 91 355 122 c 0
 378 130 387 130 394 120 c 0
 397 116 399 113 400 113 c 0
 401 113 402 112 402 111 c 0
 402 109 419 91 407 82 c 0
 406 81 404 78 403 75 c 0
 398 55 291 18 207 16 c 0
 186 15 155 17 150 20 c 0
 149 20 118 29 96 44 c 0
 73 60 55 88 52 88 c 0
 49 88 33 115 33 120 c 0
 33 124 24 136 15 172 c 0
 10 192 9 200 9 241 c 0
 9 290 26 365 116 480 c 0
 167 546 273 571 326 551 c 0
 369 536 380 527 381 527 c 0
 395 522 450 463 463 421 c 0
 464 416 466 413 467 413 c 0
 469 413 475 388 477 383 c 0
 494 348 485 248 460 222 c 0
 457 219 450 210 443 202 c 0
 431 188 423 181 421 183 c 0
 420 184 413 181 406 178 c 0
 374 164 345 178 343 180 c 0
 343 180 315 200 313 217 c 0
 312 221 311 225 310 225 c 0
 309 226 268 189 246 184 c 0
 200 174 194 172 170 190 c 0
 161 197 154 203 153 206 c 0
 149 225 142 213 142 254 c 0
 142 274 142 308 171 351 c 0
 183 368 203 391 206 391 c 0
294 349 m 0
 285 352 277 349 262 340 c 0
 244 329 244 328 230 305 c 0
 211 274 214 253 214 253 c 0
 216 250 247 265 264 287 c 0
 269 294 275 301 277 303 c 0
 283 309 281 317 291 335 c 0
 297 346 297 348 294 349 c 0
EndSplineSet
EndChar

StartChar: dollar
Encoding: 36 36 93
Width: 514
VWidth: 807
Flags: HW
LayerCount: 2
Fore
SplineSet
149 519 m 0
 149 519 180 536 193 536 c 0
 200 536 198 587 209 602 c 0
 213 608 228 612 235 598 c 0
 238 592 239 585 239 564 c 2
 240 538 l 1
 250 538 l 2
 256 538 263 537 265 537 c 0
 271 537 268 550 271 555 c 0
 272 556 274 564 277 572 c 0
 283 592 285 595 299 592 c 0
 315 588 316 584 313 548 c 0
 312 532 313 530 324 530 c 0
 336 530 380 522 383 519 c 0
 385 517 387 517 388 517 c 0
 390 517 396 508 399 499 c 0
 401 492 400 491 393 475 c 0
 382 452 379 450 326 458 c 2
 308 461 l 1
 309 451 l 2
 310 440 307 408 305 402 c 0
 301 392 331 409 364 395 c 0
 373 392 435 366 445 294 c 0
 447 277 448 221 445 202 c 0
 439 156 416 121 416 120 c 0
 416 118 387 74 352 58 c 0
 323 45 314 41 312 41 c 0
 311 41 309 39 307 37 c 0
 299 29 308 -10 302 -20 c 0
 297 -30 307 -51 289 -49 c 0
 279 -48 284 -37 276 -28 c 0
 274 -25 270 -18 267 -13 c 0
 259 5 259 5 259 7 c 0
 259 7 258 23 250 20 c 0
 248 19 236 19 223 19 c 2
 200 19 l 1
 200 0 l 2
 198 -32 195 -47 186 -60 c 0
 179 -70 160 -61 160 -61 c 0
 159 -60 159 -55 159 -50 c 0
 159 -29 154 -60 153 -1 c 2
 152 34 l 1
 139 43 l 2
 98 70 73 114 72 117 c 0
 68 127 66 121 55 155 c 0
 49 175 48 180 49 185 c 0
 52 193 51 210 54 213 c 0
 54 213 96 234 96 218 c 0
 96 210 110 193 117 180 c 0
 127 161 134 152 145 140 c 0
 155 129 156 129 157 134 c 0
 159 139 158 154 161 172 c 0
 162 176 162 176 169 243 c 0
 171 265 170 268 163 266 c 0
 159 265 140 275 137 275 c 0
 134 275 114 288 114 290 c 0
 114 293 96 308 89 334 c 0
 85 350 83 403 86 405 c 0
 87 406 88 409 88 411 c 0
 88 427 107 477 124 493 c 0
 132 500 128 504 140 511 c 0
 152 517 146 519 149 519 c 0
255 441 m 0
 255 465 262 463 257 466 c 0
 255 467 251 467 246 467 c 2
 238 467 l 1
 238 457 l 2
 238 442 235 436 233 395 c 2
 231 367 l 1
 240 372 l 2
 246 375 249 377 249 380 c 0
 249 408 255 418 255 441 c 0
177 346 m 0
 185 346 183 401 188 444 c 0
 189 450 189 456 189 456 c 1
 186 456 179 445 172 429 c 0
 152 384 165 346 177 346 c 0
356 305 m 0
 345 319 341 322 326 320 c 0
 307 318 298 314 298 307 c 0
 298 305 294 237 295 130 c 2
 295 118 l 1
 307 124 l 2
 315 128 324 135 335 146 c 0
 350 161 351 163 356 180 c 0
 364 205 367 235 365 272 c 0
 364 284 363 294 363 295 c 0
 363 296 360 300 356 305 c 0
242 239 m 0
 242 262 241 281 241 281 c 0
 241 281 237 281 232 279 c 0
 221 275 222 277 216 217 c 0
 211 164 207 118 204 98 c 1
 222 97 l 2
 241 96 244 98 242 104 c 0
 241 106 241 127 241 152 c 0
 241 177 242 216 242 239 c 0
EndSplineSet
EndChar

StartChar: percent
Encoding: 37 37 94
Width: 514
VWidth: 657
Flags: HW
LayerCount: 2
Fore
SplineSet
137 505 m 0
 165 504 173 498 197 480 c 0
 209 464 l 0
 209 457 225 443 219 405 c 0
 213 372 190 335 183 328 c 0
 176 322 151 285 112 263 c 0
 79 245 -17 244 1 387 c 0
 3 404 20 450 26 454 c 0
 26 454 45 488 63 491 c 0
 84 494 91 507 137 505 c 0
150 421 m 1
 140 431 139 432 130 432 c 0
 107 432 96 415 84 415 c 0
 75 415 73 412 68 390 c 0
 64 374 62 328 73 322 c 0
 88 314 141 376 148 410 c 2
 150 421 l 1
433 397 m 0
 432 397 323 287 323 288 c 0
 323 288 214 174 203 159 c 0
 193 145 157 107 136 79 c 0
 120 58 99 37 92 36 c 0
 88 35 83 38 70 46 c 0
 49 60 49 61 49 71 c 0
 50 107 183 263 196 270 c 0
 204 274 195 272 262 339 c 0
 321 398 357 436 358 441 c 0
 359 447 365 456 368 456 c 0
 371 456 383 467 389 469 c 0
 404 472 423 462 425 462 c 0
 443 462 444 425 444 425 c 0
 444 423 443 419 443 415 c 0
 443 408 437 397 433 397 c 0
362 235 m 0
 368 236 384 222 389 222 c 0
 391 222 394 219 396 216 c 0
 399 211 401 210 412 208 c 0
 426 206 458 193 465 187 c 0
 484 171 497 153 495 146 c 0
 495 145 494 140 494 135 c 0
 493 105 467 75 467 75 c 0
 464 72 459 67 457 64 c 0
 449 52 352 -40 292 16 c 0
 281 26 266 47 266 52 c 0
 266 69 257 76 262 112 c 0
 262 113 277 227 346 234 c 0
 353 235 360 235 362 235 c 0
418 127 m 0
 418 133 348 144 344 146 c 0
 338 150 322 86 335 70 c 0
 339 66 338 66 348 69 c 0
 391 83 418 126 418 127 c 0
EndSplineSet
EndChar

StartChar: one
Encoding: 49 49 95
Width: 514
VWidth: 733
Flags: HW
LayerCount: 2
Fore
SplineSet
244 567 m 0
 274 573 279 570 283 551 c 0
 295 487 295 486 291 273 c 0
 288 112 285 41 282 34 c 0
 279 27 272 20 265 19 c 0
 260 18 224 23 215 27 c 0
 212 28 208 33 206 37 c 0
 202 44 201 45 203 63 c 0
 204 74 207 129 208 187 c 0
 212 405 213 404 211 444 c 0
 208 529 208 546 213 554 c 0
 217 561 219 562 244 567 c 0
EndSplineSet
EndChar

StartChar: integral
Encoding: 8747 8747 96
Width: 514
VWidth: 1064
Flags: HW
LayerCount: 2
Fore
SplineSet
15 -132 m 0
 15 -130 2 -111 2 -109 c 0
 2 -107 -15 -83 -17 -77 c 0
 -19 -73 -19 -70 -18 -60 c 0
 -18 -58 12 -27 28 -30 c 0
 31 -30 35 -31 36 -31 c 0
 38 -32 65 -67 81 -84 c 2
 93 -96 l 1
 105 -83 l 2
 141 -45 170 11 177 59 c 0
 186 127 237 371 240 404 c 0
 240 406 268 589 269 601 c 0
 273 646 272 603 277 665 c 0
 280 694 298 740 312 754 c 0
 314 756 345 782 365 778 c 0
 386 774 434 782 449 765 c 0
 452 762 455 760 456 760 c 0
 466 760 505 695 508 692 c 0
 522 680 508 659 505 658 c 0
 497 655 509 646 488 633 c 0
 462 617 434 652 434 653 c 0
 426 670 421 678 413 687 c 2
 404 697 l 1
 393 697 382 698 371 698 c 1
 367 684 l 2
 359 661 351 616 349 587 c 0
 347 553 316 359 309 326 c 0
 302 292 298 258 295 251 c 0
 291 245 292 225 290 218 c 0
 277 157 261 50 253 23 c 0
 249 9 236 -33 231 -37 c 0
 229 -39 208 -83 204 -88 c 0
 202 -90 160 -147 146 -155 c 0
 115 -173 110 -173 89 -173 c 0
 67 -173 66 -172 58 -166 c 0
 53 -163 48 -160 45 -159 c 0
 40 -158 15 -135 15 -132 c 0
EndSplineSet
EndChar

StartChar: equal
Encoding: 61 61 97
Width: 514
VWidth: 596
Flags: HW
LayerCount: 2
Fore
SplineSet
318 440 m 0
 402 440 438 466 459 446 c 0
 468 437 473 395 465 385 c 0
 451 369 437 378 431 374 c 0
 430 373 391 361 326 360 c 0
 198 357 167 357 166 356 c 0
 158 352 46 341 39 348 c 0
 37 349 34 351 31 351 c 0
 28 351 23 354 18 359 c 2
 10 366 l 1
 10 384 l 2
 10 394 10 403 10 404 c 0
 10 410 20 416 30 417 c 0
 47 419 61 422 67 424 c 0
 87 431 225 440 318 440 c 0
14 224 m 0
 14 234 61 246 62 246 c 0
 64 246 66 247 66 248 c 0
 69 257 244 266 295 260 c 0
 354 253 375 256 439 266 c 0
 462 269 474 265 479 253 c 0
 480 249 483 246 484 245 c 0
 487 243 482 230 483 215 c 0
 484 196 478 190 456 188 c 0
 447 187 431 185 420 182 c 0
 363 167 284 183 242 183 c 0
 218 183 47 169 45 169 c 0
 32 169 29 170 25 174 c 0
 22 177 20 179 20 180 c 0
 20 181 20 183 19 183 c 0
 17 183 8 220 12 222 c 0
 13 222 14 223 14 224 c 0
EndSplineSet
EndChar

StartChar: approxequal
Encoding: 8776 8776 98
Width: 514
VWidth: 658
Flags: HW
LayerCount: 2
Fore
SplineSet
110 476 m 0
 111 477 120 477 132 477 c 0
 154 477 197 469 200 465 c 0
 202 462 247 456 330 393 c 0
 359 371 359 370 379 378 c 0
 423 394 454 459 478 459 c 0
 484 459 505 448 513 440 c 0
 515 438 519 434 522 432 c 0
 529 426 529 414 523 402 c 0
 517 391 488 357 472 344 c 0
 440 316 432 314 432 314 c 0
 427 308 387 293 379 294 c 0
 379 294 334 283 296 317 c 0
 274 337 222 372 202 380 c 0
 179 389 140 397 125 396 c 0
 120 396 69 390 29 341 c 0
 -13 289 -27 301 -40 312 c 0
 -59 328 -67 340 -43 374 c 0
 -40 379 -36 384 -36 385 c 0
 -36 389 -13 416 -4 422 c 0
 41 455 45 459 86 469 c 0
 99 472 109 475 110 476 c 0
112 300 m 0
 153 307 222 277 223 276 c 0
 226 274 239 269 251 265 c 0
 286 252 289 250 310 229 c 0
 319 220 323 219 339 214 c 2
 358 208 l 1
 377 213 l 1
 459 232 474 302 499 302 c 0
 510 302 548 276 550 265 c 0
 552 255 551 252 531 225 c 0
 508 193 478 167 459 160 c 0
 456 159 419 135 395 135 c 0
 388 135 366 126 336 131 c 0
 323 133 284 139 259 166 c 0
 247 179 242 182 216 191 c 0
 206 195 189 201 179 206 c 0
 113 238 81 210 74 193 c 0
 74 193 62 169 45 169 c 0
 40 169 29 172 20 175 c 0
 -3 183 -3 184 4 213 c 0
 11 242 13 246 27 260 c 0
 50 284 72 294 112 300 c 0
EndSplineSet
EndChar

StartChar: notequal
Encoding: 8800 8800 99
Width: 514
VWidth: 697
Flags: HW
LayerCount: 2
Fore
SplineSet
174 439 m 0
 217 439 248 439 260 436 c 1
 284 484 l 2
 304 524 313 541 321 542 c 0
 324 542 325 543 326 543 c 0
 327 545 330 541 342 541 c 0
 353 541 350 537 357 537 c 0
 367 537 380 513 377 501 c 0
 371 474 350 438 350 437 c 0
 350 436 426 435 443 436 c 0
 471 438 475 436 485 425 c 2
 494 416 l 1
 494 395 l 2
 494 383 493 373 493 372 c 0
 493 368 482 361 476 360 c 0
 411 350 352 357 309 355 c 1
 292 320 l 2
 282 301 274 284 274 283 c 0
 274 282 405 282 454 283 c 0
 485 284 493 247 493 246 c 0
 493 240 488 228 484 223 c 0
 482 221 473 209 471 206 c 0
 463 194 411 210 256 199 c 2
 237 198 l 1
 232 187 l 2
 213 143 172 56 165 45 c 0
 155 30 145 29 119 42 c 0
 112 45 93 55 99 66 c 0
 102 72 102 87 105 92 c 0
 108 97 104 91 127 145 c 0
 137 168 144 187 144 187 c 0
 144 189 111 181 80 180 c 0
 71 180 63 178 62 178 c 0
 58 177 34 181 34 182 c 0
 34 189 24 174 17 216 c 0
 14 231 14 236 23 245 c 0
 35 257 180 271 181 272 c 0
 182 272 194 303 211 337 c 0
 217 348 222 358 222 359 c 0
 222 364 106 355 64 358 c 0
 8 362 0 367 0 393 c 0
 0 419 6 429 23 432 c 0
 44 436 104 439 174 439 c 0
EndSplineSet
EndChar

StartChar: asciitilde
Encoding: 126 126 100
Width: 514
VWidth: 597
Flags: HW
LayerCount: 2
Fore
SplineSet
165 432 m 0
 220 432 241 410 250 410 c 0
 258 410 321 355 352 353 c 0
 387 350 427 397 427 402 c 0
 426 415 447 434 453 432 c 0
 455 432 459 432 461 434 c 0
 469 440 497 436 497 428 c 0
 497 425 507 425 507 422 c 0
 507 421 509 418 511 416 c 0
 517 409 509 372 509 372 c 0
 509 370 496 358 489 346 c 0
 473 318 396 268 356 273 c 0
 296 278 290 291 287 291 c 0
 286 291 217 338 198 346 c 0
 179 355 151 352 125 338 c 0
 97 324 62 280 48 273 c 0
 44 271 40 268 38 266 c 0
 34 261 26 258 18 258 c 0
 12 258 9 260 -4 274 c 0
 -18 290 -19 290 -19 300 c 0
 -19 322 -1 327 -1 334 c 0
 -1 337 38 377 50 385 c 0
 59 392 93 412 98 415 c 0
 99 415 126 432 165 432 c 0
EndSplineSet
EndChar

StartChar: lessequal
Encoding: 8804 8804 101
Width: 514
VWidth: 729
Flags: HW
LayerCount: 2
Fore
SplineSet
332 548 m 0
 335 548 363 575 367 576 c 0
 375 579 380 577 398 561 c 0
 415 546 416 543 415 537 c 0
 414 521 403 516 404 513 c 0
 406 511 385 490 385 487 c 0
 385 483 257 357 217 321 c 0
 184 292 186 294 201 295 c 0
 226 297 260 303 291 304 c 0
 305 305 324 306 334 307 c 0
 358 310 399 309 401 307 c 0
 402 304 423 302 424 299 c 0
 425 295 431 294 431 284 c 0
 431 274 422 243 417 236 c 0
 415 233 413 231 413 232 c 0
 413 232 405 227 384 229 c 0
 341 233 143 207 121 206 c 0
 72 203 65 205 47 229 c 0
 30 251 50 273 50 274 c 0
 50 281 171 387 244 458 c 0
 305 518 306 518 306 519 c 0
 306 522 329 548 332 548 c 0
414 157 m 0
 424 161 435 161 440 145 c 0
 446 128 452 136 453 113 c 0
 453 100 453 100 446 93 c 0
 403 53 302 91 156 72 c 0
 109 66 82 67 69 76 c 0
 57 84 55 118 59 126 c 0
 62 132 72 138 78 138 c 0
 92 138 58 140 125 149 c 0
 246 165 395 150 414 157 c 0
EndSplineSet
EndChar

StartChar: greaterequal
Encoding: 8805 8805 102
Width: 514
VWidth: 744
Flags: HW
LayerCount: 2
Fore
SplineSet
316 420 m 0
 317 420 387 353 396 353 c 0
 398 353 425 329 434 326 c 0
 443 322 441 316 447 309 c 0
 453 303 454 277 449 269 c 0
 441 257 391 236 363 234 c 0
 362 234 276 223 273 224 c 0
 269 225 248 223 195 217 c 0
 171 214 78 215 74 218 c 0
 68 223 43 223 36 238 c 0
 32 247 32 252 37 274 c 0
 41 293 42 296 52 301 c 0
 58 304 60 304 86 299 c 0
 124 292 172 294 237 301 c 0
 264 304 292 306 301 307 c 0
 320 308 324 310 314 314 c 0
 303 319 176 447 158 472 c 0
 149 484 93 524 93 555 c 0
 93 564 94 566 106 580 c 0
 118 594 119 595 127 595 c 0
 157 595 253 487 254 486 c 0
 264 474 316 420 316 420 c 0
167 182 m 0
 172 186 366 178 382 178 c 0
 450 177 448 177 452 162 c 0
 453 158 456 152 459 148 c 0
 464 141 465 136 461 123 c 0
 454 98 425 98 396 98 c 0
 360 98 316 100 287 102 c 0
 257 104 131 103 114 100 c 0
 40 89 39 97 33 134 c 0
 31 144 28 157 43 166 c 0
 66 179 166 181 167 182 c 0
EndSplineSet
EndChar

StartChar: u1F382
Encoding: 127874 127874 103
Width: 514
VWidth: 931
Flags: HW
LayerCount: 2
Fore
SplineSet
-10 325 m 1
 -32 324 -49 336 -49 336 c 0
 -49 337 -52 340 -55 343 c 0
 -67 354 -69 384 -59 395 c 0
 -54 400 -49 423 -46 425 c 0
 -40 428 -49 436 -24 442 c 0
 -18 443 -18 444 3 462 c 0
 31 487 77 482 87 468 c 0
 93 459 97 473 118 475 c 0
 125 476 129 476 128 478 c 0
 127 479 128 479 130 478 c 0
 132 476 135 475 140 476 c 0
 157 479 156 477 155 494 c 0
 154 505 155 512 157 516 c 0
 161 524 164 535 167 535 c 0
 168 535 169 536 169 537 c 0
 169 544 196 566 210 569 c 0
 224 573 225 573 235 574 c 0
 244 575 246 575 247 580 c 0
 249 587 256 595 256 598 c 0
 256 601 277 636 277 636 c 0
 279 638 300 665 335 681 c 0
 348 687 352 689 356 689 c 0
 362 689 359 693 372 694 c 0
 388 696 403 704 409 703 c 0
 430 701 431 713 441 715 c 0
 455 718 459 705 463 705 c 0
 466 705 463 700 465 692 c 0
 468 682 461 663 465 653 c 0
 469 643 463 648 459 638 c 0
 458 635 456 634 454 634 c 0
 452 634 447 633 444 632 c 0
 439 631 437 632 432 637 c 0
 424 645 403 655 395 653 c 0
 392 652 384 651 378 650 c 0
 332 643 303 602 303 602 c 0
 302 602 301 600 301 598 c 0
 301 593 289 585 289 578 c 0
 289 576 291 574 295 574 c 0
 310 574 339 563 342 556 c 0
 342 555 344 555 345 555 c 0
 350 555 362 536 362 533 c 0
 362 533 373 515 371 493 c 0
 368 471 368 470 377 469 c 0
 386 468 424 475 426 470 c 0
 427 466 449 462 465 462 c 0
 493 462 503 457 539 422 c 0
 548 414 554 405 554 403 c 0
 554 401 556 398 557 397 c 0
 564 390 552 339 552 339 c 0
 551 339 550 337 550 336 c 0
 550 328 521 315 521 313 c 0
 521 312 518 311 516 311 c 0
 507 311 512 307 492 306 c 0
 484 306 493 304 476 236 c 0
 476 235 447 124 447 120 c 0
 447 119 433 36 438 30 c 0
 440 28 440 15 438 12 c 0
 436 9 418 1 413 1 c 0
 403 1 388 4 377 1 c 0
 359 -4 347 12 347 7 c 0
 347 7 325 -3 315 5 c 0
 308 10 300 10 293 6 c 0
 286 2 265 2 262 6 c 0
 259 9 252 10 252 7 c 0
 252 4 230 -5 222 -5 c 0
 205 -5 206 16 190 6 c 0
 181 0 153 0 153 6 c 0
 153 21 114 -13 94 0 c 0
 83 7 72 -8 65 -4 c 0
 64 -3 52 0 52 5 c 0
 52 8 32 21 24 70 c 0
 21 89 18 90 18 98 c 0
 18 106 11 131 8 175 c 0
 8 176 1 244 -8 307 c 2
 -10 325 l 1
15 398 m 0
 10 398 16 392 1 392 c 0
 -8 392 -9 392 -12 385 c 0
 -17 376 -16 372 -11 370 c 0
 -6 368 11 368 18 370 c 0
 24 371 25 370 32 351 c 0
 34 346 38 343 38 347 c 0
 38 349 59 374 71 362 c 0
 73 360 74 359 75 359 c 0
 76 359 79 356 82 352 c 0
 94 336 102 355 111 354 c 0
 112 354 115 353 117 353 c 0
 119 353 121 352 121 350 c 0
 121 341 139 348 139 351 c 0
 139 352 141 353 143 353 c 0
 143 353 175 363 178 355 c 0
 178 354 180 353 181 353 c 0
 188 353 184 333 223 352 c 0
 239 359 253 361 258 356 c 0
 260 354 262 353 263 353 c 0
 264 353 266 352 266 351 c 0
 266 351 266 342 283 350 c 2
 293 354 l 1
 277 363 277 363 283 374 c 0
 288 383 291 386 298 382 c 0
 314 372 314 373 310 367 c 2
 307 362 l 1
 317 364 322 364 326 362 c 0
 332 359 339 353 339 350 c 0
 339 346 342 345 345 347 c 0
 349 350 364 352 373 356 c 0
 394 366 404 345 404 345 c 0
 404 342 417 345 422 349 c 0
 429 354 447 355 447 351 c 0
 447 342 460 337 472 348 c 0
 485 359 496 353 503 369 c 0
 508 383 508 385 494 398 c 0
 479 413 475 415 453 416 c 0
 419 418 425 425 393 422 c 0
 351 418 346 437 321 430 c 0
 293 423 291 437 263 432 c 0
 244 429 243 433 230 429 c 0
 203 419 201 437 189 429 c 0
 182 425 165 424 159 429 c 0
 153 433 123 433 119 429 c 0
 118 427 115 426 114 426 c 0
 112 426 111 425 111 424 c 0
 111 421 90 412 85 413 c 0
 77 415 72 416 72 418 c 0
 72 419 70 420 69 420 c 0
 66 420 58 428 58 431 c 0
 58 439 25 431 21 409 c 0
 20 403 17 398 15 398 c 0
73 204 m 0
 58 343 63 343 63 343 c 0
 62 343 56 332 48 328 c 0
 42 325 41 325 48 289 c 0
 55 253 58 211 70 146 c 0
 70 145 86 51 86 51 c 0
 86 47 87 46 87 46 c 1
 87 47 90 48 91 48 c 0
 98 48 86 97 86 110 c 0
 86 122 82 127 78 157 c 0
 77 166 75 188 73 204 c 0
380 243 m 0
 380 251 386 259 386 271 c 0
 386 290 401 310 388 322 c 0
 379 332 381 338 376 336 c 0
 359 328 359 328 358 327 c 0
 357 325 352 325 344 325 c 0
 332 325 332 325 325 333 c 0
 313 346 312 343 312 311 c 0
 312 273 307 245 305 216 c 0
 293 72 294 75 286 57 c 0
 283 49 284 49 297 54 c 0
 316 61 323 47 339 52 c 0
 347 55 347 55 350 74 c 0
 359 135 360 145 360 148 c 0
 360 161 380 241 380 243 c 0
158 195 m 2
 158 274 158 339 157 339 c 0
 155 339 132 322 116 330 c 0
 102 337 99 323 86 323 c 0
 82 323 82 323 83 320 c 0
 84 319 92 256 92 255 c 0
 93 220 119 59 119 57 c 0
 120 48 120 39 120 39 c 0
 121 38 140 50 151 50 c 2
 158 50 l 1
 158 195 l 2
255 331 m 0
 249 331 252 343 233 332 c 0
 202 314 190 320 186 322 c 0
 180 325 179 324 183 320 c 0
 189 314 181 44 192 47 c 0
 201 50 218 48 218 44 c 0
 218 43 221 43 225 43 c 0
 229 43 232 43 232 44 c 0
 232 47 256 56 264 56 c 2
 271 56 l 1
 270 81 l 2
 269 153 282 256 283 257 c 0
 283 257 286 281 295 320 c 0
 296 324 296 329 296 329 c 0
 296 329 266 319 259 328 c 0
 258 330 256 331 255 331 c 0
434 266 m 0
 434 275 450 311 442 311 c 0
 440 311 437 315 433 320 c 2
 427 329 l 1
 419 324 l 2
 412 319 412 320 408 292 c 0
 408 290 399 239 395 228 c 0
 394 226 381 180 364 50 c 1
 374 51 l 2
 386 53 386 53 386 63 c 0
 386 75 392 100 392 111 c 0
 392 135 434 264 434 266 c 0
232 410 m 0
 232 416 246 424 250 424 c 0
 253 424 264 410 264 407 c 0
 264 403 249 392 244 392 c 0
 240 392 232 405 232 410 c 0
197 386 m 1
 176 398 177 401 184 411 c 0
 188 416 192 420 193 420 c 0
 197 420 212 409 212 406 c 0
 212 404 208 399 204 394 c 2
 197 386 l 1
331 410 m 0
 336 418 339 418 350 411 c 0
 363 403 360 400 348 386 c 1
 339 391 l 2
 328 397 326 401 331 410 c 0
135 407 m 0
 140 411 145 414 147 414 c 0
 150 414 165 393 165 390 c 0
 165 389 160 385 154 381 c 0
 141 373 137 374 130 385 c 0
 123 396 124 399 135 407 c 0
452 407 m 0
 466 410 468 409 470 394 c 0
 471 386 471 386 457 384 c 0
 449 383 447 385 445 395 c 0
 444 403 445 405 452 407 c 0
19 395 m 0
 23 404 23 404 42 395 c 1
 38 387 l 2
 34 378 34 378 24 382 c 0
 16 385 15 385 19 395 c 0
69 395 m 0
 77 397 78 396 80 390 c 0
 82 382 78 378 70 379 c 0
 63 380 63 380 63 387 c 0
 63 393 64 394 69 395 c 0
414 393 m 0
 418 401 428 393 424 388 c 0
 419 382 410 386 414 393 c 0
410 375 m 0
 415 383 414 383 429 374 c 0
 437 369 437 367 430 359 c 2
 424 353 l 1
 417 357 l 2
 406 364 405 367 410 375 c 0
EndSplineSet
EndChar

StartChar: two
Encoding: 50 50 104
Width: 514
VWidth: 797
Flags: HW
LayerCount: 2
Fore
SplineSet
415 328 m 0
 415 325 374 271 374 270 c 0
 374 264 282 173 276 166 c 0
 264 152 194 81 179 68 c 2
 169 59 l 1
 179 61 l 2
 185 62 192 62 195 62 c 0
 197 62 386 58 390 56 c 0
 399 52 407 58 409 55 c 0
 410 53 431 54 431 48 c 0
 431 47 438 38 444 32 c 0
 455 20 441 8 441 -3 c 0
 441 -24 407 -31 407 -29 c 0
 407 -28 369 -19 332 -22 c 0
 293 -25 305 -19 271 -20 c 0
 169 -20 168 -20 160 -22 c 0
 145 -27 115 -27 112 -29 c 0
 111 -30 111 -30 100 -30 c 0
 100 -30 69 -16 64 -11 c 0
 57 -4 49 17 49 26 c 0
 49 29 48 32 47 33 c 0
 44 35 57 54 57 58 c 0
 57 63 168 171 169 172 c 0
 179 183 208 209 259 265 c 0
 266 273 309 312 320 331 c 0
 322 334 323 336 324 336 c 0
 326 336 382 412 352 487 c 0
 351 490 350 494 351 495 c 0
 352 497 343 511 338 514 c 0
 333 517 312 522 298 524 c 0
 280 527 239 519 222 509 c 0
 211 502 191 496 182 488 c 0
 141 452 115 426 115 427 c 0
 115 433 113 417 102 426 c 0
 87 437 70 438 65 452 c 0
 62 460 63 462 67 474 c 0
 74 494 79 500 107 527 c 0
 155 573 226 601 257 603 c 0
 258 603 308 606 313 607 c 0
 314 607 314 606 314 605 c 0
 314 604 316 603 318 603 c 0
 323 603 357 595 358 593 c 0
 362 588 365 592 391 574 c 0
 405 564 416 551 415 547 c 0
 415 546 441 494 436 489 c 0
 433 486 444 484 441 422 c 0
 440 405 439 390 438 389 c 0
 436 387 426 341 418 333 c 0
 417 332 415 329 415 328 c 0
EndSplineSet
EndChar

StartChar: period
Encoding: 46 46 105
Width: 514
VWidth: 153
Flags: HW
LayerCount: 2
Fore
SplineSet
219 95 m 0
 242 116 248 116 266 101 c 0
 272 96 278 93 280 93 c 0
 285 93 294 84 294 80 c 0
 294 76 314 49 300 23 c 0
 287 -3 277 -15 269 -16 c 0
 263 -17 254 -34 225 -23 c 0
 203 -16 201 -13 193 11 c 0
 185 35 193 27 193 43 c 0
 193 46 195 56 197 64 c 0
 201 79 203 80 219 95 c 0
EndSplineSet
EndChar

StartChar: comma
Encoding: 44 44 106
Width: 514
VWidth: 172
Flags: HW
LayerCount: 2
Fore
SplineSet
288 93 m 0
 304 97 311 86 319 59 c 0
 328 29 328 29 322 -14 c 0
 315 -59 275 -116 275 -117 c 0
 272 -125 237 -162 231 -163 c 0
 221 -165 206 -168 206 -168 c 0
 200 -171 168 -148 168 -132 c 0
 169 -121 174 -117 173 -112 c 0
 171 -106 183 -90 190 -90 c 0
 197 -90 223 -54 233 -29 c 0
 254 24 231 48 243 71 c 0
 246 76 249 80 250 81 c 0
 252 82 279 91 288 93 c 0
EndSplineSet
EndChar

StartChar: semicolon
Encoding: 59 59 107
Width: 514
VWidth: 657
Flags: HW
LayerCount: 2
Fore
SplineSet
318 370 m 0
 318 367 303 351 304 351 c 0
 310 351 290 341 285 337 c 0
 276 328 262 326 241 332 c 0
 217 338 224 355 217 355 c 0
 211 355 209 389 208 391 c 0
 207 393 210 411 212 411 c 0
 214 411 213 418 222 428 c 0
 225 432 228 436 228 437 c 0
 228 440 255 460 261 462 c 0
 272 465 287 454 292 454 c 0
 298 454 312 448 316 444 c 0
 340 415 327 386 323 380 c 0
 320 375 318 371 318 370 c 0
266 91 m 0
 275 93 303 101 307 84 c 0
 309 77 309 85 316 53 c 0
 321 29 322 8 318 3 c 0
 315 -2 307 -47 303 -52 c 0
 303 -52 277 -117 264 -136 c 0
 255 -150 255 -155 251 -156 c 0
 249 -157 248 -158 248 -159 c 0
 248 -162 235 -169 226 -176 c 0
 219 -182 200 -182 192 -176 c 0
 189 -174 184 -171 180 -169 c 0
 165 -162 163 -137 168 -131 c 0
 174 -124 173 -105 189 -97 c 0
 197 -93 198 -92 209 -69 c 0
 250 17 224 47 238 75 c 0
 243 85 247 87 266 91 c 0
EndSplineSet
EndChar

StartChar: colon
Encoding: 58 58 108
Width: 514
VWidth: 618
Flags: HW
LayerCount: 2
Fore
SplineSet
231 485 m 0
 243 493 256 485 269 485 c 0
 281 486 292 479 292 472 c 0
 292 470 293 469 294 469 c 0
 294 469 308 459 303 433 c 0
 300 418 279 378 264 378 c 0
 255 378 251 373 244 371 c 0
 233 368 227 370 210 382 c 0
 201 389 193 395 192 396 c 0
 185 407 214 474 231 485 c 0
208 141 m 0
 211 141 223 158 232 162 c 0
 250 170 287 154 289 148 c 0
 290 146 293 143 295 141 c 0
 304 134 306 90 277 75 c 0
 269 71 267 62 263 62 c 0
 262 62 260 61 260 60 c 0
 260 57 249 54 241 54 c 0
 237 54 232 55 229 57 c 0
 226 59 221 61 218 62 c 0
 212 64 190 75 192 108 c 0
 193 117 204 141 208 141 c 0
EndSplineSet
EndChar

StartChar: quoteright
Encoding: 8217 8217 109
Width: 514
VWidth: 824
Flags: HW
LayerCount: 2
Fore
SplineSet
219 686 m 0
 237 723 254 757 278 759 c 0
 282 759 313 740 318 734 c 0
 319 732 325 711 310 689 c 0
 309 688 257 592 252 559 c 0
 249 541 248 535 217 539 c 0
 171 545 187 557 179 557 c 0
 177 557 175 568 175 577 c 0
 176 592 191 629 219 686 c 0
EndSplineSet
EndChar

StartChar: quoteleft
Encoding: 8216 8216 110
Width: 514
VWidth: 825
Flags: HW
LayerCount: 2
Fore
SplineSet
180 717 m 0
 189 753 191 752 227 743 c 0
 282 729 262 706 284 687 c 0
 288 684 301 648 302 638 c 0
 303 631 321 563 318 534 c 0
 316 510 316 510 303 499 c 0
 301 497 292 496 278 496 c 0
 257 496 256 496 249 502 c 0
 238 511 237 513 235 542 c 0
 233 591 219 643 204 659 c 0
 195 669 193 673 194 674 c 0
 195 675 194 675 193 675 c 0
 192 675 190 676 190 677 c 0
 190 681 185 680 179 692 c 0
 175 699 175 699 180 717 c 0
EndSplineSet
EndChar

StartChar: three
Encoding: 51 51 111
Width: 514
VWidth: 786
Flags: HW
LayerCount: 2
Fore
SplineSet
369 158 m 0
 369 167 374 181 375 203 c 0
 375 223 369 268 365 275 c 0
 361 282 342 292 313 302 c 0
 280 314 270 316 247 313 c 0
 236 312 225 310 222 309 c 0
 213 306 207 309 196 319 c 0
 175 338 175 341 180 366 c 0
 184 384 208 412 208 412 c 0
 214 420 234 449 241 456 c 0
 244 459 247 463 247 464 c 0
 247 466 272 501 278 507 c 0
 282 511 282 510 249 509 c 0
 212 508 179 506 156 503 c 0
 133 500 129 506 113 505 c 0
 84 505 79 507 74 530 c 0
 70 548 70 552 74 558 c 0
 85 574 112 571 125 578 c 0
 139 585 343 593 343 600 c 0
 343 601 345 602 347 601 c 0
 358 597 382 603 400 588 c 0
 401 587 404 585 406 584 c 0
 418 578 422 549 414 536 c 0
 412 533 411 529 411 527 c 0
 411 521 400 517 398 511 c 0
 397 509 396 507 395 507 c 0
 394 507 390 506 385 503 c 0
 375 498 373 496 321 430 c 0
 309 414 309 414 292 392 c 1
 298 391 304 390 304 388 c 0
 304 387 356 375 363 369 c 0
 368 366 388 360 391 356 c 0
 397 349 404 354 426 330 c 0
 439 315 439 315 444 298 c 0
 451 275 460 218 456 213 c 0
 453 210 455 178 453 162 c 0
 448 117 422 82 423 82 c 0
 425 82 401 47 392 36 c 0
 384 26 351 -9 295 -14 c 0
 288 -14 279 -16 273 -17 c 0
 248 -22 219 -18 184 -7 c 0
 121 13 99 20 69 70 c 0
 62 81 56 91 55 92 c 0
 54 92 29 139 40 161 c 0
 46 173 53 178 72 182 c 2
 89 185 l 1
 98 181 l 2
 103 179 107 175 108 173 c 0
 108 172 134 110 149 96 c 0
 156 89 174 80 202 70 c 2
 226 62 l 1
 253 63 l 2
 281 64 303 68 313 73 c 0
 332 83 369 142 369 158 c 0
EndSplineSet
EndChar

StartChar: quotesingle
Encoding: 39 39 112
Width: 514
VWidth: 781
Flags: HW
LayerCount: 2
Fore
SplineSet
234 704 m 0
 253 707 270 706 274 703 c 0
 283 696 293 596 289 594 c 0
 288 593 287 571 287 546 c 0
 287 510 288 499 290 496 c 0
 295 490 290 477 283 475 c 0
 277 473 278 468 274 468 c 0
 272 468 271 466 270 464 c 0
 268 461 248 450 232 457 c 0
 225 460 212 474 211 481 c 0
 210 484 208 488 207 491 c 0
 202 502 209 609 204 655 c 0
 202 675 202 677 206 683 c 0
 216 701 217 702 234 704 c 0
EndSplineSet
EndChar

StartChar: quotedbl
Encoding: 34 34 113
Width: 514
VWidth: 780
Flags: HW
LayerCount: 2
Fore
SplineSet
287 700 m 0
 309 708 317 708 324 701 c 0
 330 695 352 636 349 634 c 0
 346 632 349 625 346 621 c 0
 341 616 331 509 331 492 c 2
 331 474 l 1
 320 465 318 464 302 461 c 0
 277 457 265 460 259 467 c 0
 248 480 243 485 255 574 c 0
 262 624 264 644 258 657 c 0
 256 659 262 676 264 683 c 0
 266 692 268 693 287 700 c 0
152 622 m 0
 152 633 153 678 164 689 c 0
 170 695 170 695 192 695 c 0
 213 695 215 695 220 690 c 0
 228 683 231 677 230 668 c 0
 228 650 235 659 231 602 c 0
 230 584 229 551 228 526 c 0
 227 483 227 481 222 474 c 0
 217 466 216 466 187 461 c 0
 171 458 169 458 164 461 c 0
 147 472 145 482 147 532 c 0
 147 532 152 621 152 622 c 0
EndSplineSet
EndChar

StartChar: four
Encoding: 52 52 114
Width: 514
VWidth: 775
Flags: HW
LayerCount: 2
Fore
SplineSet
356 43 m 0
 356 73 344 50 344 204 c 0
 344 240 344 275 344 280 c 0
 344 285 344 289 343 290 c 0
 340 293 296 291 282 287 c 0
 247 277 231 273 227 273 c 0
 218 273 165 248 120 255 c 0
 93 259 79 267 66 288 c 0
 39 330 61 398 62 399 c 0
 68 411 77 492 84 509 c 0
 89 522 88 569 105 588 c 0
 110 593 111 593 128 593 c 0
 169 593 169 587 169 531 c 0
 169 502 168 498 165 496 c 0
 159 492 165 488 148 419 c 0
 143 401 133 341 133 335 c 0
 133 329 169 340 231 357 c 0
 271 368 297 372 331 372 c 2
 349 372 l 1
 351 387 l 2
 351 389 357 467 348 549 c 0
 346 565 348 575 352 575 c 0
 354 575 351 579 352 579 c 0
 352 579 365 581 379 584 c 0
 416 591 419 592 430 536 c 0
 436 504 436 504 433 411 c 0
 432 381 431 349 430 339 c 0
 424 247 423 156 428 112 c 0
 430 97 434 66 437 44 c 2
 442 3 l 1
 437 -4 434 -7 425 -10 c 0
 413 -14 390 -19 384 -19 c 0
 382 -19 375 -14 370 -9 c 0
 364 -4 356 4 356 43 c 0
EndSplineSet
EndChar

StartChar: five
Encoding: 53 53 115
Width: 514
VWidth: 800
Flags: HW
LayerCount: 2
Fore
SplineSet
86 18 m 0
 78 18 36 62 36 65 c 0
 36 68 29 72 27 80 c 0
 25 88 22 88 22 94 c 0
 22 96 21 104 19 110 c 0
 11 134 26 153 29 177 c 0
 31 190 33 192 47 192 c 0
 64 192 68 189 68 176 c 0
 68 169 69 164 71 161 c 0
 78 154 87 127 107 105 c 0
 113 98 119 93 120 93 c 0
 124 93 129 84 166 73 c 0
 190 66 190 66 210 68 c 0
 248 72 259 82 278 97 c 0
 299 114 320 162 321 163 c 0
 323 166 355 293 314 339 c 0
 274 387 194 339 186 330 c 0
 178 321 140 314 134 320 c 0
 132 322 129 323 127 323 c 0
 121 323 116 329 108 344 c 0
 97 366 97 367 103 504 c 0
 106 562 107 584 117 589 c 0
 119 590 168 594 174 589 c 0
 178 585 197 587 242 591 c 0
 338 596 393 599 432 610 c 0
 458 617 463 604 464 602 c 0
 466 594 473 594 474 582 c 0
 475 577 476 572 477 570 c 0
 482 561 470 541 456 535 c 0
 411 516 210 511 191 504 c 0
 183 501 183 501 182 456 c 0
 181 425 182 418 185 423 c 0
 187 426 215 435 232 438 c 0
 257 443 298 440 311 433 c 0
 316 430 323 431 331 427 c 0
 334 425 336 424 337 424 c 0
 338 424 365 410 383 384 c 0
 390 374 400 355 400 351 c 0
 400 350 400 348 401 348 c 0
 402 348 402 349 411 315 c 0
 418 292 414 189 406 170 c 0
 402 160 398 148 399 147 c 0
 402 142 378 91 366 75 c 0
 363 71 360 68 360 67 c 0
 360 64 326 32 321 30 c 0
 319 29 317 27 317 26 c 0
 317 26 276 -17 186 -13 c 0
 138 -11 87 18 86 18 c 0
EndSplineSet
EndChar

StartChar: six
Encoding: 54 54 116
Width: 514
VWidth: 804
Flags: HW
LayerCount: 2
Fore
SplineSet
412 58 m 0
 412 49 361 6 358 6 c 0
 357 6 324 -15 301 -20 c 0
 275 -27 232 -37 183 -15 c 0
 167 -7 140 7 131 14 c 0
 104 35 75 80 66 113 c 0
 64 120 62 127 61 129 c 0
 47 155 45 241 48 266 c 0
 48 268 64 389 97 448 c 0
 112 474 140 524 177 557 c 0
 191 569 211 583 214 583 c 0
 215 583 243 605 259 610 c 0
 265 612 276 611 304 606 c 0
 311 605 325 594 325 589 c 0
 325 582 335 590 326 546 c 0
 324 536 305 540 299 535 c 0
 296 533 291 531 286 531 c 0
 275 531 265 524 234 497 c 0
 200 467 184 444 168 403 c 0
 163 389 157 375 155 372 c 0
 138 336 127 252 131 252 c 0
 133 252 240 300 300 297 c 0
 330 295 343 292 366 280 c 0
 377 274 388 270 389 270 c 0
 393 270 420 243 421 238 c 0
 422 235 425 231 428 228 c 0
 430 226 453 202 447 141 c 0
 444 118 428 78 415 64 c 0
 413 62 412 60 412 58 c 0
243 208 m 0
 242 208 139 175 135 164 c 0
 134 160 148 123 157 106 c 0
 194 41 301 25 355 120 c 0
 383 171 356 239 243 208 c 0
EndSplineSet
EndChar

StartChar: seven
Encoding: 55 55 117
Width: 514
VWidth: 783
Flags: HW
LayerCount: 2
Fore
SplineSet
435 527 m 0
 421 504 l 0
 421 502 372 434 333 319 c 0
 326 299 326 309 319 280 c 0
 312 251 304 230 298 202 c 0
 298 200 261 31 246 -1 c 0
 234 -29 234 -29 232 -29 c 0
 225 -29 225 -49 194 -32 c 0
 159 -13 155 -7 171 25 c 0
 193 67 213 214 223 235 c 0
 227 243 252 347 259 358 c 0
 261 361 265 377 277 401 c 0
 281 410 285 416 285 417 c 0
 285 421 330 507 329 509 c 0
 328 510 175 515 157 511 c 0
 149 509 138 508 132 508 c 0
 115 508 129 507 96 505 c 0
 67 504 65 506 58 539 c 0
 54 559 56 564 67 573 c 0
 80 584 133 589 138 590 c 0
 169 593 169 594 169 593 c 0
 169 592 185 591 204 591 c 0
 314 590 415 589 415 585 c 0
 415 584 416 583 418 583 c 0
 420 583 421 582 421 581 c 0
 421 580 425 578 429 575 c 0
 438 569 439 568 438 550 c 0
 437 528 437 527 435 527 c 0
EndSplineSet
EndChar

StartChar: eight
Encoding: 56 56 118
Width: 514
VWidth: 787
Flags: HW
LayerCount: 2
Fore
SplineSet
112 17 m 0
 103 17 75 66 75 75 c 0
 75 77 74 81 72 82 c 0
 67 87 65 133 69 162 c 0
 70 170 83 205 86 208 c 0
 90 212 99 239 113 261 c 0
 123 277 157 312 173 324 c 2
 180 330 l 1
 170 336 l 1
 34 420 125 527 140 540 c 0
 140 540 164 561 174 569 c 0
 186 579 223 596 232 596 c 0
 238 596 260 607 295 597 c 0
 322 589 336 574 336 574 c 0
 339 573 358 543 358 539 c 0
 358 536 360 541 366 535 c 0
 368 533 370 531 370 532 c 0
 370 539 393 501 399 470 c 0
 407 430 403 420 397 402 c 0
 392 387 389 381 385 378 c 0
 376 371 372 360 350 342 c 0
 341 335 334 330 334 329 c 0
 334 328 397 277 397 269 c 0
 397 268 415 241 420 218 c 0
 427 183 427 183 428 181 c 0
 430 177 426 140 421 125 c 0
 418 114 398 69 394 65 c 0
 392 63 386 56 382 50 c 0
 368 30 332 4 306 -4 c 0
 179 -42 114 17 112 17 c 0
284 512 m 0
 276 521 275 521 267 521 c 0
 256 521 243 518 237 515 c 0
 214 503 182 471 177 454 c 0
 174 446 181 429 191 419 c 0
 199 411 253 378 258 378 c 0
 259 378 304 403 316 420 c 0
 325 432 317 470 308 475 c 0
 301 479 299 485 299 494 c 0
 299 503 293 506 293 504 c 0
 293 503 289 507 284 512 c 0
276 272 m 0
 258 286 260 286 240 273 c 0
 208 252 162 211 151 138 c 2
 147 113 l 1
 153 99 l 2
 163 73 173 68 215 66 c 0
 257 64 286 71 306 87 c 0
 316 95 334 119 341 136 c 0
 346 147 347 165 343 188 c 0
 340 205 337 225 276 272 c 0
EndSplineSet
EndChar

StartChar: nine
Encoding: 57 57 119
Width: 514
VWidth: 811
Flags: HW
LayerCount: 2
Fore
SplineSet
193 601 m 0
 224 619 273 619 274 619 c 0
 306 611 333 603 346 591 c 0
 350 587 360 585 362 580 c 0
 363 578 364 577 365 577 c 0
 367 577 371 573 387 555 c 0
 392 549 400 540 404 536 c 0
 411 529 411 527 412 515 c 2
 413 502 l 1
 425 496 l 2
 431 493 436 490 437 489 c 0
 437 489 444 469 435 451 c 0
 432 445 430 439 430 438 c 0
 430 434 425 429 424 421 c 0
 420 401 393 347 387 317 c 0
 386 314 321 90 315 62 c 0
 306 18 298 2 298 2 c 0
 298 2 295 -15 282 -21 c 0
 274 -24 275 -24 250 -16 c 2
 225 -8 l 1
 222 -2 219 6 216 12 c 1
 224 37 l 2
 234 74 239 77 241 99 c 0
 242 115 283 249 285 253 c 0
 288 258 294 278 294 283 c 0
 294 288 307 327 306 326 c 0
 253 296 201 289 200 288 c 0
 196 286 155 287 143 290 c 0
 47 314 44 415 66 462 c 0
 67 464 70 472 73 479 c 0
 100 545 169 592 181 595 c 0
 184 596 189 599 193 601 c 0
344 468 m 0
 324 522 280 547 242 535 c 0
 209 524 140 477 138 409 c 0
 137 384 138 367 179 368 c 0
 229 370 302 408 333 444 c 0
 347 461 347 461 344 468 c 0
EndSplineSet
EndChar

StartChar: zero
Encoding: 48 48 120
Width: 514
VWidth: 774
Flags: HW
LayerCount: 2
Fore
SplineSet
35 252 m 0
 35 340 50 361 50 378 c 0
 50 392 77 467 89 488 c 0
 114 530 114 531 122 539 c 0
 127 545 131 551 131 552 c 0
 131 555 156 579 158 579 c 0
 161 579 179 592 192 595 c 0
 215 602 242 592 243 592 c 0
 249 592 272 581 272 578 c 0
 272 578 276 578 282 572 c 0
 294 559 342 555 351 545 c 0
 358 537 377 534 401 502 c 0
 453 435 458 310 458 308 c 0
 457 293 460 294 458 255 c 0
 456 225 456 224 445 191 c 0
 434 157 427 143 427 142 c 0
 427 141 384 63 338 40 c 0
 314 27 314 27 313 27 c 0
 308 27 287 15 281 15 c 0
 265 15 282 9 230 9 c 0
 210 9 183 9 136 38 c 0
 122 47 89 80 85 89 c 0
 82 96 62 129 62 134 c 0
 62 141 35 180 35 252 c 0
314 472 m 0
 258 503 224 472 204 506 c 0
 200 512 177 482 177 482 c 0
 162 460 142 405 138 397 c 0
 137 395 103 303 123 204 c 0
 127 184 133 151 169 116 c 0
 185 101 189 99 200 95 c 0
 266 74 339 121 368 213 c 2
 375 236 l 1
 375 277 l 2
 375 335 368 382 350 426 c 0
 339 454 333 461 314 472 c 0
EndSplineSet
EndChar

StartChar: uni026A
Encoding: 618 618 121
Width: 514
VWidth: 475
Flags: HW
AnchorPoint: "above" 246.715 386.843 basechar 0
LayerCount: 2
Fore
SplineSet
287.799804688 285.616210938 m 1
 287.799804688 278.15234375 287.799804688 270.750976562 287.799804688 277.584960938 c 2
 287.799804688 275.665039062 277.75 89.6640625 277.43359375 85.7685546875 c 1
 281.149414062 86.0546875 285.09375 86.2451171875 289 86.2451171875 c 0
 289.46875 86.2451171875 323.71875 85.9384765625 335.728515625 82.5986328125 c 0
 339.249023438 81.6201171875 341.825195312 80.3330078125 343.569335938 78.724609375 c 0
 343.872070312 78.546875 344.3125 78.3203125 344.4375 78.2568359375 c 0
 352.26171875 75.744140625 356.669921875 69.857421875 359.965820312 64.35546875 c 0
 361.590820312 62.8828125 367.606445312 56.48828125 367.606445312 42.5654296875 c 0
 367.606445312 38.5576171875 367.186523438 33.603515625 363.768554688 28.412109375 c 0
 361.384765625 24.0576171875 362.958984375 23.755859375 359.083984375 18.9033203125 c 0
 358.682617188 18.400390625 356.82421875 15.255859375 352.009765625 13.8193359375 c 0
 348.396484375 10.828125 340.74609375 4.7587890625 329.282226562 4.7587890625 c 0
 326.83984375 4.7587890625 317.091796875 5.294921875 308.993164062 13.3974609375 c 0
 308.380859375 14.0107421875 307.133789062 14.9443359375 306.283203125 15.5595703125 c 0
 303.91015625 15.7412109375 299.578125 15.900390625 295.599609375 15.900390625 c 0
 289.708984375 15.900390625 287.984375 15.900390625 284.139648438 14.97265625 c 0
 277.009765625 13.2529296875 255.005859375 11.6279296875 221.963867188 9.3759765625 c 0
 201.97265625 8.0126953125 200.15625 7.3857421875 199.934570312 7.3857421875 c 0
 198.483398438 7.3857421875 196.6640625 7.7529296875 194.8046875 8.48828125 c 0
 191.033203125 7.8154296875 189.638671875 7.2001953125 185.200195312 7.2001953125 c 0
 160.727539062 7.2001953125 143.643554688 10.04296875 129.385742188 16.4443359375 c 0
 125.938476562 17.9921875 114.818359375 22.9853515625 114.818359375 48.57421875 c 0
 114.818359375 56.8447265625 117.208984375 78.96484375 138.321289062 81.4287109375 c 0
 138.516601562 81.47265625 153.018554688 84.46484375 158.133789062 84.4130859375 c 0
 165.76953125 84.4130859375 172.473632812 82.9833984375 184.85546875 82.9833984375 c 0
 186.359375 82.9833984375 192.432617188 82.9833984375 198.982421875 83.529296875 c 1
 202.92578125 120.786132812 206.799804688 192.774414062 206.799804688 192.774414062 c 1
 206.799804688 190.8515625 206.799804688 191.361328125 206.799804688 193.364257812 c 1
 210.0078125 224.212890625 211.793945312 244.529296875 211.793945312 260.233398438 c 0
 211.793945312 265.178710938 211.627929688 269.690429688 211.298828125 274.200195312 c 1
 202 274.200195312 l 2
 163.799804688 274.200195312 135.236328125 275.723632812 135.236328125 318.098632812 c 0
 135.236328125 332.475585938 142.96875 337.174804688 151.2734375 343.40234375 c 0
 159.802734375 349.799804688 159.802734375 349.799804688 159.802734375 349.799804688 c 1
 190 349.799804688 l 2
 218.184570312 349.799804688 266.874023438 352.73828125 277.01953125 354.25390625 c 0
 280.477539062 355.561523438 282.834960938 355.799804688 292.065429688 355.799804688 c 0
 292.633789062 355.799804688 293.211914062 355.799804688 293.799804688 355.799804688 c 0
 318.875 355.799804688 317.508789062 362.172851562 329.741210938 363.489257812 c 0
 334.482421875 364.567382812 336.984375 366.842773438 344.149414062 366.842773438 c 0
 364.624023438 366.842773438 377.487304688 337.108398438 377.635742188 336.69921875 c 0
 378.543945312 334.186523438 378.611328125 332.365234375 378.611328125 330.822265625 c 0
 378.611328125 326.520507812 375.932617188 310.100585938 365.461914062 304.84375 c 1
 358.703125 296.54296875 348.1484375 294.184570312 339.94140625 292.3515625 c 0
 321.75 288.287109375 305.58203125 286.408203125 287.799804688 285.616210938 c 1
EndSplineSet
EndChar

StartChar: _comic_pi
Encoding: 1114185 -1 123
Width: 514
VWidth: -213
Flags: HW
LayerCount: 2
Fore
SplineSet
384.776367188 103.09375 m 0
 384.776367188 96.96875 386.891601562 49.482421875 386.891601562 42.419921875 c 0
 386.891601562 32.0498046875 385.0703125 28.7216796875 382.565429688 25.0908203125 c 0
 376.91796875 17.5615234375 359.7734375 10.1826171875 346.887695312 8.5517578125 c 2
 335.934570312 6.7265625 l 1
 324.106445312 20.244140625 l 2
 313.694335938 30.66015625 312.58984375 32.671875 311.051757812 43.439453125 c 0
 309.904296875 52.619140625 308.876953125 102.654296875 308.876953125 147.671875 c 0
 308.876953125 166.280273438 309.060546875 183.9453125 309.517578125 197.530273438 c 0
 310.268554688 206.545898438 310.64453125 215.55859375 310.64453125 224.571289062 c 0
 310.64453125 238.955078125 306.787109375 303.294921875 304.448242188 305.6328125 c 0
 296.875976562 309.890625 270.725585938 317.595703125 260.938476562 319.805664062 c 0
 255.499023438 319.93359375 243.015625 322.82421875 230.485351562 324.391601562 c 0
 209.760742188 327.3515625 191.259765625 329.869140625 185.923828125 332.073242188 c 0
 183.62890625 331.248046875 177.340820312 326.983398438 174.211914062 323.853515625 c 0
 172.631835938 322.274414062 171.283203125 317.362304688 171.283203125 309.651367188 c 0
 171.283203125 305.3125 171.625976562 300.259765625 172.174804688 294.768554688 c 2
 172.192382812 294.595703125 l 1
 172.192382812 261.013671875 l 2
 172.192382812 246.1015625 173.997070312 235.447265625 174.864257812 233.711914062 c 0
 176.540039062 230.362304688 176.834960938 220.561523438 176.834960938 204.13671875 c 0
 176.834960938 195.202148438 176.748046875 184.307617188 176.748046875 171.424804688 c 0
 176.748046875 141.173828125 178.271484375 97.0517578125 179.779296875 75.9423828125 c 0
 180.581054688 60.30078125 181.0703125 48.3408203125 181.0703125 38.990234375 c 0
 181.0703125 12.943359375 176.557617188 5.94921875 164.196289062 -0.23046875 c 0
 159.635742188 -2.5107421875 155.189453125 -3.4697265625 150.399414062 -3.4697265625 c 0
 144.116210938 -3.4697265625 135.896484375 -1.7783203125 125.948242188 0.3740234375 c 0
 116.139648438 2.49609375 111.39453125 3.6337890625 108.010742188 10.2470703125 c 0
 105.161132812 14.640625 105.51953125 18.62109375 105.30859375 43.0205078125 c 0
 104.83984375 97.3291015625 102.725585938 213.9453125 98.439453125 291.383789062 c 1
 98.439453125 302.333984375 l 1
 94.6630859375 301.579101562 l 1
 94.31640625 301.579101562 l 2
 91.619140625 301.579101562 88.8671875 300.953125 87.3935546875 300.556640625 c 1
 82.185546875 292.743164062 l 1
 75.5322265625 277.840820312 71.3037109375 275.764648438 56.35546875 275.764648438 c 0
 43.9111328125 275.764648438 32.1962890625 275.764648438 22.8798828125 294.390625 c 0
 20.5498046875 299.051757812 20 306.49609375 20 314.502929688 c 0
 20 320.17578125 20.3759765625 326.10546875 21.0244140625 331.296875 c 0
 22.5224609375 343.284179688 23.4765625 345.396484375 31.001953125 352.93359375 c 0
 44.767578125 369.735351562 57.28125 380.776367188 71.5791015625 387.149414062 c 0
 77.5380859375 390.131835938 83.767578125 393.551757812 84.271484375 394.0546875 c 0
 90.6591796875 400.442382812 93.4765625 400.845703125 116.53515625 404.138671875 c 0
 168.874023438 413.643554688 247.749023438 398.653320312 261.194335938 393.274414062 c 0
 270.44140625 389.311523438 311.729492188 385.9609375 347.900390625 385.9609375 c 2
 360.197265625 385.9609375 l 1
 364.275390625 380.697265625 368.458007812 375.5390625 373.334960938 371.073242188 c 1
 380.584960938 372.524414062 380.584960938 372.524414062 387.102539062 376.211914062 c 0
 408.796875 388.486328125 413.060546875 381.223632812 425.791015625 393.920898438 c 0
 432.291015625 401.998046875 436.014648438 402.697265625 447.616210938 404.147460938 c 0
 449.612304688 404.477539062 453.538085938 404.696289062 453.640625 404.696289062 c 0
 461.060546875 404.6953125 467.359375 401.537109375 474.772460938 394.150390625 c 0
 485.5703125 384.870117188 489.327148438 377.754882812 490.975585938 368.154296875 c 0
 491.500976562 366.59765625 492.02734375 365.216796875 492.498046875 363.986328125 c 0
 493.296875 361.89453125 494.10546875 360.37890625 494.10546875 358.196289062 c 0
 494.10546875 355.134765625 492.200195312 350.514648438 487.506835938 342.694335938 c 0
 479.659179688 330.137695312 474.991210938 327.559570312 459.797851562 322.999023438 c 0
 457.07421875 322.083007812 454.075195312 320.415039062 451.43359375 318.920898438 c 0
 439.053710938 311.916992188 437.232421875 310.885742188 423.1484375 307.756835938 c 0
 405.583984375 303.365234375 391.208007812 295.59375 388.884765625 292.6796875 c 0
 388.124023438 290.696289062 386.295898438 279.491210938 386.295898438 207.868164062 c 0
 386.295898438 171.780273438 384.776367188 104.141601562 384.776367188 103.09375 c 0
EndSplineSet
EndChar

StartChar: pi
Encoding: 960 960 124
Width: 514
Flags: HW
AnchorPoint: "above" 257.053 427.225 basechar 0
LayerCount: 2
Fore
SplineSet
384.776367188 103.09375 m 0
 384.776367188 96.96875 386.891601562 49.482421875 386.891601562 42.419921875 c 0
 386.891601562 32.0498046875 385.0703125 28.7216796875 382.565429688 25.0908203125 c 0
 376.91796875 17.5615234375 359.7734375 10.1826171875 346.887695312 8.5517578125 c 2
 335.934570312 6.7265625 l 1
 324.106445312 20.244140625 l 2
 313.694335938 30.66015625 312.58984375 32.671875 311.051757812 43.439453125 c 0
 309.904296875 52.619140625 308.876953125 102.654296875 308.876953125 147.671875 c 0
 308.876953125 166.280273438 309.060546875 183.9453125 309.517578125 197.530273438 c 0
 310.268554688 206.545898438 310.64453125 215.55859375 310.64453125 224.571289062 c 0
 310.64453125 238.955078125 306.787109375 303.294921875 304.448242188 305.6328125 c 0
 296.875976562 309.890625 270.725585938 317.595703125 260.938476562 319.805664062 c 0
 255.499023438 319.93359375 243.015625 322.82421875 230.485351562 324.391601562 c 0
 209.760742188 327.3515625 191.259765625 329.869140625 185.923828125 332.073242188 c 0
 183.62890625 331.248046875 177.340820312 326.983398438 174.211914062 323.853515625 c 0
 172.631835938 322.274414062 171.283203125 317.362304688 171.283203125 309.651367188 c 0
 171.283203125 305.3125 171.625976562 300.259765625 172.174804688 294.768554688 c 2
 172.192382812 294.595703125 l 1
 172.192382812 261.013671875 l 2
 172.192382812 246.1015625 173.997070312 235.447265625 174.864257812 233.711914062 c 0
 176.540039062 230.362304688 176.834960938 220.561523438 176.834960938 204.13671875 c 0
 176.834960938 195.202148438 176.748046875 184.307617188 176.748046875 171.424804688 c 0
 176.748046875 141.173828125 178.271484375 97.0517578125 179.779296875 75.9423828125 c 0
 180.581054688 60.30078125 181.0703125 48.3408203125 181.0703125 38.990234375 c 0
 181.0703125 12.943359375 176.557617188 5.94921875 164.196289062 -0.23046875 c 0
 159.635742188 -2.5107421875 155.189453125 -3.4697265625 150.399414062 -3.4697265625 c 0
 144.116210938 -3.4697265625 135.896484375 -1.7783203125 125.948242188 0.3740234375 c 0
 116.139648438 2.49609375 111.39453125 3.6337890625 108.010742188 10.2470703125 c 0
 105.161132812 14.640625 105.51953125 18.62109375 105.30859375 43.0205078125 c 0
 104.83984375 97.3291015625 102.725585938 213.9453125 98.439453125 291.383789062 c 1
 98.439453125 302.333984375 l 1
 94.6630859375 301.579101562 l 1
 94.31640625 301.579101562 l 2
 91.619140625 301.579101562 88.8671875 300.953125 87.3935546875 300.556640625 c 1
 82.185546875 292.743164062 l 1
 75.5322265625 277.840820312 71.3037109375 275.764648438 56.35546875 275.764648438 c 0
 43.9111328125 275.764648438 32.1962890625 275.764648438 22.8798828125 294.390625 c 0
 20.5498046875 299.051757812 20 306.49609375 20 314.502929688 c 0
 20 320.17578125 20.3759765625 326.10546875 21.0244140625 331.296875 c 0
 22.5224609375 343.284179688 23.4765625 345.396484375 31.001953125 352.93359375 c 0
 44.767578125 369.735351562 57.28125 380.776367188 71.5791015625 387.149414062 c 0
 77.5380859375 390.131835938 83.767578125 393.551757812 84.271484375 394.0546875 c 0
 90.6591796875 400.442382812 93.4765625 400.845703125 116.53515625 404.138671875 c 0
 168.874023438 413.643554688 247.749023438 398.653320312 261.194335938 393.274414062 c 0
 270.44140625 389.311523438 311.729492188 385.9609375 347.900390625 385.9609375 c 2
 360.197265625 385.9609375 l 1
 364.275390625 380.697265625 368.458007812 375.5390625 373.334960938 371.073242188 c 1
 380.584960938 372.524414062 380.584960938 372.524414062 387.102539062 376.211914062 c 0
 408.796875 388.486328125 413.060546875 381.223632812 425.791015625 393.920898438 c 0
 432.291015625 401.998046875 436.014648438 402.697265625 447.616210938 404.147460938 c 0
 449.612304688 404.477539062 453.538085938 404.696289062 453.640625 404.696289062 c 0
 461.060546875 404.6953125 467.359375 401.537109375 474.772460938 394.150390625 c 0
 485.5703125 384.870117188 489.327148438 377.754882812 490.975585938 368.154296875 c 0
 491.500976562 366.59765625 492.02734375 365.216796875 492.498046875 363.986328125 c 0
 493.296875 361.89453125 494.10546875 360.37890625 494.10546875 358.196289062 c 0
 494.10546875 355.134765625 492.200195312 350.514648438 487.506835938 342.694335938 c 0
 479.659179688 330.137695312 474.991210938 327.559570312 459.797851562 322.999023438 c 0
 457.07421875 322.083007812 454.075195312 320.415039062 451.43359375 318.920898438 c 0
 439.053710938 311.916992188 437.232421875 310.885742188 423.1484375 307.756835938 c 0
 405.583984375 303.365234375 391.208007812 295.59375 388.884765625 292.6796875 c 0
 388.124023438 290.696289062 386.295898438 279.491210938 386.295898438 207.868164062 c 0
 386.295898438 171.780273438 384.776367188 104.141601562 384.776367188 103.09375 c 0
EndSplineSet
EndChar

StartChar: _comic_Delta
Encoding: 1114186 -1 125
Width: 514
VWidth: -60
Flags: HW
LayerCount: 2
Fore
SplineSet
268.94140625 498.004882812 m 0
 262.330078125 509.022460938 260.126953125 507.920898438 253.516601562 490.291992188 c 0
 251.3125 484.783203125 248.0078125 477.071289062 245.803710938 474.8671875 c 0
 243.600585938 472.6640625 241.396484375 466.052734375 239.193359375 460.543945312 c 0
 234.786132812 448.424804688 232.58203125 444.017578125 228.17578125 439.610351562 c 0
 225.971679688 437.407226562 222.666015625 430.795898438 219.361328125 423.083984375 c 0
 216.055664062 415.37109375 211.6484375 406.556640625 209.4453125 404.353515625 c 0
 207.241210938 402.149414062 203.936523438 394.4375 201.732421875 387.827148438 c 0
 199.529296875 381.215820312 196.223632812 373.50390625 192.91796875 370.198242188 c 0
 189.61328125 366.892578125 186.307617188 359.180664062 184.104492188 351.467773438 c 0
 181.900390625 344.857421875 177.493164062 336.04296875 175.290039062 332.737304688 c 0
 173.0859375 329.432617188 168.6796875 321.719726562 166.475585938 316.2109375 c 0
 164.272460938 309.600585938 159.865234375 301.887695312 156.559570312 298.58203125 c 0
 153.25390625 294.17578125 149.94921875 289.768554688 147.745117188 282.055664062 c 0
 145.541992188 276.546875 141.134765625 267.732421875 138.930664062 264.427734375 c 0
 136.727539062 261.122070312 133.421875 253.409179688 131.21875 246.798828125 c 0
 129.014648438 240.188476562 125.709960938 232.475585938 122.404296875 229.169921875 c 0
 119.098632812 225.865234375 115.793945312 218.15234375 113.58984375 210.440429688 c 0
 111.38671875 203.829101562 108.081054688 195.014648438 104.776367188 191.709960938 c 0
 101.470703125 188.404296875 97.0634765625 180.692382812 94.8603515625 174.081054688 c 0
 92.65625 167.470703125 89.3505859375 159.7578125 87.1474609375 157.5546875 c 0
 84.9443359375 154.249023438 80.537109375 145.434570312 77.2314453125 137.72265625 c 0
 73.92578125 128.908203125 69.5185546875 121.196289062 68.4169921875 118.9921875 c 0
 67.3154296875 116.7890625 62.908203125 110.177734375 59.6025390625 103.567382812 c 0
 56.2978515625 96.95703125 52.9921875 90.345703125 50.7890625 88.142578125 c 0
 43.076171875 80.4296875 43.076171875 77.125 46.3818359375 73.8193359375 c 0
 49.6865234375 70.513671875 50.7890625 70.513671875 68.4169921875 71.615234375 c 0
 87.1474609375 72.7177734375 108.081054688 74.9208984375 127.913085938 79.328125 c 0
 133.97265625 80.4296875 144.440429688 80.98046875 154.76953125 80.98046875 c 0
 165.098632812 80.98046875 175.290039062 80.4296875 180.798828125 79.328125 c 0
 188.51171875 77.125 313.012695312 74.9208984375 371.407226562 74.9208984375 c 0
 408.8671875 74.9208984375 411.071289062 74.9208984375 444.124023438 81.5322265625 c 0
 462.854492188 84.8369140625 469.46484375 88.142578125 472.770507812 92.5498046875 c 0
 473.872070312 94.7529296875 472.770507812 94.7529296875 469.46484375 99.16015625 c 0
 467.26171875 102.465820312 463.956054688 109.076171875 461.752929688 114.584960938 c 0
 459.548828125 120.09375 456.244140625 126.705078125 452.938476562 131.112304688 c 0
 449.6328125 134.416992188 446.328125 141.028320312 445.225585938 145.434570312 c 0
 444.124023438 148.740234375 440.819335938 155.350585938 437.513671875 158.65625 c 0
 434.208007812 163.063476562 429.80078125 168.572265625 428.69921875 174.081054688 c 0
 425.393554688 187.302734375 424.291992188 189.505859375 418.783203125 196.1171875 c 0
 415.477539062 199.421875 412.172851562 206.033203125 409.96875 214.846679688 c 0
 407.765625 222.559570312 404.459960938 230.272460938 401.155273438 234.6796875 c 0
 397.849609375 237.984375 393.442382812 247.900390625 391.239257812 253.409179688 c 0
 389.03515625 258.91796875 385.729492188 266.630859375 382.424804688 269.936523438 c 0
 379.119140625 273.241210938 375.813476562 280.954101562 374.711914062 284.259765625 c 0
 373.610351562 288.666015625 369.203125 295.27734375 365.897460938 298.58203125 c 0
 362.592773438 301.887695312 358.185546875 308.498046875 355.981445312 314.0078125 c 0
 353.778320312 319.516601562 349.37109375 326.126953125 347.16796875 329.432617188 c 0
 343.862304688 332.737304688 341.659179688 341.551757812 339.455078125 349.264648438 c 0
 337.251953125 358.078125 333.946289062 363.587890625 330.640625 366.892578125 c 0
 327.3359375 370.198242188 325.131835938 376.80859375 321.827148438 386.724609375 c 0
 319.623046875 395.5390625 315.215820312 406.556640625 311.911132812 410.963867188 c 0
 308.60546875 415.37109375 305.299804688 425.287109375 303.096679688 431.897460938 c 0
 300.892578125 440.711914062 297.587890625 446.220703125 294.282226562 450.627929688 c 0
 290.9765625 455.03515625 288.7734375 460.543945312 285.467773438 470.459960938 c 0
 282.162109375 481.477539062 278.857421875 485.884765625 276.653320312 488.088867188 c 0
 274.450195312 489.190429688 271.14453125 493.59765625 268.94140625 498.004882812 c 0
244.702148438 599.368164062 m 0
 247.456054688 599.918945312 256.270507812 600.1953125 264.947265625 600.1953125 c 0
 273.624023438 600.1953125 282.162109375 599.918945312 284.366210938 599.368164062 c 0
 290.9765625 597.165039062 304.198242188 581.740234375 308.60546875 571.82421875 c 0
 310.80859375 566.315429688 315.215820312 559.704101562 318.521484375 556.399414062 c 0
 321.827148438 553.09375 325.131835938 545.380859375 326.233398438 540.974609375 c 0
 327.3359375 536.567382812 329.5390625 529.956054688 332.844726562 526.651367188 c 0
 337.251953125 521.142578125 346.065429688 507.920898438 346.065429688 504.615234375 c 0
 346.065429688 503.513671875 348.26953125 499.106445312 351.575195312 493.59765625 c 0
 357.083984375 483.681640625 358.185546875 481.477539062 362.592773438 466.052734375 c 0
 363.694335938 461.645507812 367 455.03515625 370.3046875 450.627929688 c 0
 373.610351562 446.220703125 376.916015625 438.508789062 379.119140625 429.694335938 c 0
 381.323242188 420.879882812 384.627929688 412.065429688 387.93359375 407.659179688 c 0
 391.239257812 403.251953125 394.543945312 395.5390625 396.748046875 387.827148438 c 0
 398.951171875 380.114257812 401.155273438 372.401367188 403.358398438 370.198242188 c 0
 404.459960938 367.995117188 409.96875 361.383789062 413.274414062 353.671875 c 0
 416.580078125 345.958984375 420.987304688 339.348632812 423.190429688 337.14453125 c 0
 425.393554688 334.94140625 428.69921875 328.330078125 430.903320312 321.719726562 c 0
 434.208007812 314.0078125 438.615234375 307.396484375 441.920898438 304.091796875 c 0
 446.328125 299.684570312 448.53125 295.27734375 450.735351562 287.564453125 c 0
 452.938476562 282.055664062 456.244140625 274.34375 458.447265625 271.038085938 c 0
 460.651367188 267.732421875 465.05859375 260.020507812 467.26171875 253.409179688 c 0
 469.46484375 245.697265625 472.770507812 237.984375 476.076171875 234.6796875 c 0
 479.380859375 231.374023438 482.686523438 223.661132812 485.9921875 214.846679688 c 0
 488.1953125 206.033203125 491.500976562 200.524414062 493.704101562 198.3203125 c 0
 495.908203125 196.1171875 500.315429688 188.404296875 502.518554688 181.793945312 c 0
 505.82421875 174.081054688 509.12890625 167.470703125 512.434570312 163.063476562 c 0
 515.740234375 159.7578125 519.044921875 153.147460938 521.249023438 148.740234375 c 0
 522.350585938 144.333007812 526.7578125 138.82421875 528.9609375 135.518554688 c 0
 533.368164062 130.009765625 539.979492188 114.584960938 539.979492188 110.177734375 c 0
 539.979492188 109.076171875 543.284179688 103.567382812 546.58984375 99.16015625 c 0
 554.302734375 88.142578125 556.505859375 81.5322265625 558.708984375 58.39453125 c 0
 559.811523438 41.8671875 560.913085938 39.6640625 557.607421875 34.1552734375 c 0
 552.098632812 23.1376953125 542.182617188 16.5263671875 531.165039062 13.2216796875 c 0
 527.859375 12.119140625 521.249023438 13.2216796875 510.231445312 15.4248046875 c 0
 502.846679688 16.8095703125 498.75 17.4208984375 493.646484375 17.4208984375 c 0
 486.56640625 17.4208984375 477.551757812 16.244140625 455.142578125 14.3232421875 c 0
 443.022460938 13.2216796875 390.13671875 12.119140625 276.653320312 12.119140625 c 0
 129.014648438 12.119140625 113.58984375 12.119140625 97.0634765625 9.916015625 c 0
 86.0458984375 7.712890625 67.3154296875 7.712890625 46.3818359375 6.6103515625 c 0
 18.8369140625 5.5087890625 11.125 5.5087890625 4.513671875 3.3056640625 c 2
 -4.30078125 0 l 1
 -16.419921875 5.5087890625 l 2
 -30.7431640625 13.2216796875 -38.455078125 20.93359375 -41.7607421875 29.748046875 c 0
 -45.06640625 38.5625 -45.06640625 42.9697265625 -40.6591796875 52.8857421875 c 0
 -38.455078125 57.29296875 -35.150390625 67.208984375 -32.9462890625 73.8193359375 c 0
 -30.7431640625 80.4296875 -27.4375 88.142578125 -25.234375 91.4482421875 c 0
 -23.0302734375 94.7529296875 -20.8271484375 102.465820312 -18.623046875 107.974609375 c 0
 -16.419921875 116.7890625 -14.216796875 120.09375 -8.70703125 125.602539062 c 0
 -4.30078125 130.009765625 0.1064453125 136.62109375 2.310546875 143.231445312 c 0
 4.513671875 148.740234375 8.9208984375 154.249023438 11.125 157.5546875 c 0
 14.4296875 160.860351562 17.7353515625 167.470703125 21.041015625 175.182617188 c 0
 23.244140625 181.793945312 27.6513671875 190.608398438 29.8544921875 193.913085938 c 0
 32.05859375 197.21875 35.3642578125 204.930664062 36.4658203125 209.337890625 c 0
 39.7705078125 220.356445312 43.076171875 228.068359375 47.4833984375 231.374023438 c 0
 49.6865234375 233.577148438 52.9921875 240.188476562 56.2978515625 247.900390625 c 0
 58.5009765625 255.61328125 61.806640625 262.223632812 64.009765625 264.427734375 c 0
 66.2138671875 266.630859375 69.5185546875 273.241210938 72.82421875 282.055664062 c 0
 75.0283203125 289.768554688 78.3330078125 298.58203125 81.638671875 301.887695312 c 0
 83.841796875 305.193359375 88.2490234375 312.905273438 90.453125 318.4140625 c 0
 94.8603515625 330.534179688 97.0634765625 333.83984375 101.470703125 339.348632812 c 0
 103.673828125 341.551757812 106.979492188 348.162109375 109.182617188 354.7734375 c 0
 111.38671875 361.383789062 114.692382812 367.995117188 117.997070312 371.299804688 c 0
 121.302734375 374.60546875 124.608398438 380.114257812 126.811523438 388.928710938 c 0
 129.014648438 396.640625 131.21875 403.251953125 134.524414062 406.556640625 c 0
 136.727539062 409.862304688 140.033203125 416.47265625 143.337890625 425.287109375 c 0
 146.643554688 434.1015625 149.94921875 440.711914062 153.25390625 444.017578125 c 0
 156.559570312 447.323242188 159.865234375 455.03515625 162.068359375 461.645507812 c 0
 164.272460938 468.256835938 167.577148438 475.96875 169.78125 478.172851562 c 0
 171.984375 480.375976562 176.391601562 489.190429688 179.697265625 495.80078125 c 0
 183.001953125 502.412109375 186.307617188 510.124023438 188.51171875 512.328125 c 0
 190.71484375 514.53125 196.223632812 523.345703125 198.427734375 529.956054688 c 0
 200.630859375 536.567382812 203.936523438 543.177734375 205.038085938 545.380859375 c 0
 206.139648438 547.584960938 210.546875 555.296875 213.852539062 563.009765625 c 0
 218.259765625 575.12890625 221.564453125 578.434570312 230.37890625 587.249023438 c 0
 235.887695312 592.7578125 242.498046875 598.266601562 244.702148438 599.368164062 c 0
EndSplineSet
EndChar

StartChar: uni0394
Encoding: 916 916 126
Width: 514
Flags: HW
AnchorPoint: "above" 257.847 620.195 basechar 0
LayerCount: 2
Fore
SplineSet
268.94140625 498.004882812 m 0
 262.330078125 509.022460938 260.126953125 507.920898438 253.516601562 490.291992188 c 0
 251.3125 484.783203125 248.0078125 477.071289062 245.803710938 474.8671875 c 0
 243.600585938 472.6640625 241.396484375 466.052734375 239.193359375 460.543945312 c 0
 234.786132812 448.424804688 232.58203125 444.017578125 228.17578125 439.610351562 c 0
 225.971679688 437.407226562 222.666015625 430.795898438 219.361328125 423.083984375 c 0
 216.055664062 415.37109375 211.6484375 406.556640625 209.4453125 404.353515625 c 0
 207.241210938 402.149414062 203.936523438 394.4375 201.732421875 387.827148438 c 0
 199.529296875 381.215820312 196.223632812 373.50390625 192.91796875 370.198242188 c 0
 189.61328125 366.892578125 186.307617188 359.180664062 184.104492188 351.467773438 c 0
 181.900390625 344.857421875 177.493164062 336.04296875 175.290039062 332.737304688 c 0
 173.0859375 329.432617188 168.6796875 321.719726562 166.475585938 316.2109375 c 0
 164.272460938 309.600585938 159.865234375 301.887695312 156.559570312 298.58203125 c 0
 153.25390625 294.17578125 149.94921875 289.768554688 147.745117188 282.055664062 c 0
 145.541992188 276.546875 141.134765625 267.732421875 138.930664062 264.427734375 c 0
 136.727539062 261.122070312 133.421875 253.409179688 131.21875 246.798828125 c 0
 129.014648438 240.188476562 125.709960938 232.475585938 122.404296875 229.169921875 c 0
 119.098632812 225.865234375 115.793945312 218.15234375 113.58984375 210.440429688 c 0
 111.38671875 203.829101562 108.081054688 195.014648438 104.776367188 191.709960938 c 0
 101.470703125 188.404296875 97.0634765625 180.692382812 94.8603515625 174.081054688 c 0
 92.65625 167.470703125 89.3505859375 159.7578125 87.1474609375 157.5546875 c 0
 84.9443359375 154.249023438 80.537109375 145.434570312 77.2314453125 137.72265625 c 0
 73.92578125 128.908203125 69.5185546875 121.196289062 68.4169921875 118.9921875 c 0
 67.3154296875 116.7890625 62.908203125 110.177734375 59.6025390625 103.567382812 c 0
 56.2978515625 96.95703125 52.9921875 90.345703125 50.7890625 88.142578125 c 0
 43.076171875 80.4296875 43.076171875 77.125 46.3818359375 73.8193359375 c 0
 49.6865234375 70.513671875 50.7890625 70.513671875 68.4169921875 71.615234375 c 0
 87.1474609375 72.7177734375 108.081054688 74.9208984375 127.913085938 79.328125 c 0
 133.97265625 80.4296875 144.440429688 80.98046875 154.76953125 80.98046875 c 0
 165.098632812 80.98046875 175.290039062 80.4296875 180.798828125 79.328125 c 0
 188.51171875 77.125 313.012695312 74.9208984375 371.407226562 74.9208984375 c 0
 408.8671875 74.9208984375 411.071289062 74.9208984375 444.124023438 81.5322265625 c 0
 462.854492188 84.8369140625 469.46484375 88.142578125 472.770507812 92.5498046875 c 0
 473.872070312 94.7529296875 472.770507812 94.7529296875 469.46484375 99.16015625 c 0
 467.26171875 102.465820312 463.956054688 109.076171875 461.752929688 114.584960938 c 0
 459.548828125 120.09375 456.244140625 126.705078125 452.938476562 131.112304688 c 0
 449.6328125 134.416992188 446.328125 141.028320312 445.225585938 145.434570312 c 0
 444.124023438 148.740234375 440.819335938 155.350585938 437.513671875 158.65625 c 0
 434.208007812 163.063476562 429.80078125 168.572265625 428.69921875 174.081054688 c 0
 425.393554688 187.302734375 424.291992188 189.505859375 418.783203125 196.1171875 c 0
 415.477539062 199.421875 412.172851562 206.033203125 409.96875 214.846679688 c 0
 407.765625 222.559570312 404.459960938 230.272460938 401.155273438 234.6796875 c 0
 397.849609375 237.984375 393.442382812 247.900390625 391.239257812 253.409179688 c 0
 389.03515625 258.91796875 385.729492188 266.630859375 382.424804688 269.936523438 c 0
 379.119140625 273.241210938 375.813476562 280.954101562 374.711914062 284.259765625 c 0
 373.610351562 288.666015625 369.203125 295.27734375 365.897460938 298.58203125 c 0
 362.592773438 301.887695312 358.185546875 308.498046875 355.981445312 314.0078125 c 0
 353.778320312 319.516601562 349.37109375 326.126953125 347.16796875 329.432617188 c 0
 343.862304688 332.737304688 341.659179688 341.551757812 339.455078125 349.264648438 c 0
 337.251953125 358.078125 333.946289062 363.587890625 330.640625 366.892578125 c 0
 327.3359375 370.198242188 325.131835938 376.80859375 321.827148438 386.724609375 c 0
 319.623046875 395.5390625 315.215820312 406.556640625 311.911132812 410.963867188 c 0
 308.60546875 415.37109375 305.299804688 425.287109375 303.096679688 431.897460938 c 0
 300.892578125 440.711914062 297.587890625 446.220703125 294.282226562 450.627929688 c 0
 290.9765625 455.03515625 288.7734375 460.543945312 285.467773438 470.459960938 c 0
 282.162109375 481.477539062 278.857421875 485.884765625 276.653320312 488.088867188 c 0
 274.450195312 489.190429688 271.14453125 493.59765625 268.94140625 498.004882812 c 0
244.702148438 599.368164062 m 0
 247.456054688 599.918945312 256.270507812 600.1953125 264.947265625 600.1953125 c 0
 273.624023438 600.1953125 282.162109375 599.918945312 284.366210938 599.368164062 c 0
 290.9765625 597.165039062 304.198242188 581.740234375 308.60546875 571.82421875 c 0
 310.80859375 566.315429688 315.215820312 559.704101562 318.521484375 556.399414062 c 0
 321.827148438 553.09375 325.131835938 545.380859375 326.233398438 540.974609375 c 0
 327.3359375 536.567382812 329.5390625 529.956054688 332.844726562 526.651367188 c 0
 337.251953125 521.142578125 346.065429688 507.920898438 346.065429688 504.615234375 c 0
 346.065429688 503.513671875 348.26953125 499.106445312 351.575195312 493.59765625 c 0
 357.083984375 483.681640625 358.185546875 481.477539062 362.592773438 466.052734375 c 0
 363.694335938 461.645507812 367 455.03515625 370.3046875 450.627929688 c 0
 373.610351562 446.220703125 376.916015625 438.508789062 379.119140625 429.694335938 c 0
 381.323242188 420.879882812 384.627929688 412.065429688 387.93359375 407.659179688 c 0
 391.239257812 403.251953125 394.543945312 395.5390625 396.748046875 387.827148438 c 0
 398.951171875 380.114257812 401.155273438 372.401367188 403.358398438 370.198242188 c 0
 404.459960938 367.995117188 409.96875 361.383789062 413.274414062 353.671875 c 0
 416.580078125 345.958984375 420.987304688 339.348632812 423.190429688 337.14453125 c 0
 425.393554688 334.94140625 428.69921875 328.330078125 430.903320312 321.719726562 c 0
 434.208007812 314.0078125 438.615234375 307.396484375 441.920898438 304.091796875 c 0
 446.328125 299.684570312 448.53125 295.27734375 450.735351562 287.564453125 c 0
 452.938476562 282.055664062 456.244140625 274.34375 458.447265625 271.038085938 c 0
 460.651367188 267.732421875 465.05859375 260.020507812 467.26171875 253.409179688 c 0
 469.46484375 245.697265625 472.770507812 237.984375 476.076171875 234.6796875 c 0
 479.380859375 231.374023438 482.686523438 223.661132812 485.9921875 214.846679688 c 0
 488.1953125 206.033203125 491.500976562 200.524414062 493.704101562 198.3203125 c 0
 495.908203125 196.1171875 500.315429688 188.404296875 502.518554688 181.793945312 c 0
 505.82421875 174.081054688 509.12890625 167.470703125 512.434570312 163.063476562 c 0
 515.740234375 159.7578125 519.044921875 153.147460938 521.249023438 148.740234375 c 0
 522.350585938 144.333007812 526.7578125 138.82421875 528.9609375 135.518554688 c 0
 533.368164062 130.009765625 539.979492188 114.584960938 539.979492188 110.177734375 c 0
 539.979492188 109.076171875 543.284179688 103.567382812 546.58984375 99.16015625 c 0
 554.302734375 88.142578125 556.505859375 81.5322265625 558.708984375 58.39453125 c 0
 559.811523438 41.8671875 560.913085938 39.6640625 557.607421875 34.1552734375 c 0
 552.098632812 23.1376953125 542.182617188 16.5263671875 531.165039062 13.2216796875 c 0
 527.859375 12.119140625 521.249023438 13.2216796875 510.231445312 15.4248046875 c 0
 502.846679688 16.8095703125 498.75 17.4208984375 493.646484375 17.4208984375 c 0
 486.56640625 17.4208984375 477.551757812 16.244140625 455.142578125 14.3232421875 c 0
 443.022460938 13.2216796875 390.13671875 12.119140625 276.653320312 12.119140625 c 0
 129.014648438 12.119140625 113.58984375 12.119140625 97.0634765625 9.916015625 c 0
 86.0458984375 7.712890625 67.3154296875 7.712890625 46.3818359375 6.6103515625 c 0
 18.8369140625 5.5087890625 11.125 5.5087890625 4.513671875 3.3056640625 c 2
 -4.30078125 0 l 1
 -16.419921875 5.5087890625 l 1
 -30.7431640625 13.2216796875 -38.455078125 20.93359375 -41.7607421875 29.748046875 c 0
 -45.06640625 38.5625 -45.06640625 42.9697265625 -40.6591796875 52.8857421875 c 0
 -38.455078125 57.29296875 -35.150390625 67.208984375 -32.9462890625 73.8193359375 c 0
 -30.7431640625 80.4296875 -27.4375 88.142578125 -25.234375 91.4482421875 c 0
 -23.0302734375 94.7529296875 -20.8271484375 102.465820312 -18.623046875 107.974609375 c 0
 -16.419921875 116.7890625 -14.216796875 120.09375 -8.70703125 125.602539062 c 0
 -4.30078125 130.009765625 0.1064453125 136.62109375 2.310546875 143.231445312 c 0
 4.513671875 148.740234375 8.9208984375 154.249023438 11.125 157.5546875 c 0
 14.4296875 160.860351562 17.7353515625 167.470703125 21.041015625 175.182617188 c 0
 23.244140625 181.793945312 27.6513671875 190.608398438 29.8544921875 193.913085938 c 0
 32.05859375 197.21875 35.3642578125 204.930664062 36.4658203125 209.337890625 c 0
 39.7705078125 220.356445312 43.076171875 228.068359375 47.4833984375 231.374023438 c 0
 49.6865234375 233.577148438 52.9921875 240.188476562 56.2978515625 247.900390625 c 0
 58.5009765625 255.61328125 61.806640625 262.223632812 64.009765625 264.427734375 c 0
 66.2138671875 266.630859375 69.5185546875 273.241210938 72.82421875 282.055664062 c 0
 75.0283203125 289.768554688 78.3330078125 298.58203125 81.638671875 301.887695312 c 0
 83.841796875 305.193359375 88.2490234375 312.905273438 90.453125 318.4140625 c 0
 94.8603515625 330.534179688 97.0634765625 333.83984375 101.470703125 339.348632812 c 0
 103.673828125 341.551757812 106.979492188 348.162109375 109.182617188 354.7734375 c 0
 111.38671875 361.383789062 114.692382812 367.995117188 117.997070312 371.299804688 c 0
 121.302734375 374.60546875 124.608398438 380.114257812 126.811523438 388.928710938 c 0
 129.014648438 396.640625 131.21875 403.251953125 134.524414062 406.556640625 c 0
 136.727539062 409.862304688 140.033203125 416.47265625 143.337890625 425.287109375 c 0
 146.643554688 434.1015625 149.94921875 440.711914062 153.25390625 444.017578125 c 0
 156.559570312 447.323242188 159.865234375 455.03515625 162.068359375 461.645507812 c 0
 164.272460938 468.256835938 167.577148438 475.96875 169.78125 478.172851562 c 0
 171.984375 480.375976562 176.391601562 489.190429688 179.697265625 495.80078125 c 0
 183.001953125 502.412109375 186.307617188 510.124023438 188.51171875 512.328125 c 0
 190.71484375 514.53125 196.223632812 523.345703125 198.427734375 529.956054688 c 0
 200.630859375 536.567382812 203.936523438 543.177734375 205.038085938 545.380859375 c 0
 206.139648438 547.584960938 210.546875 555.296875 213.852539062 563.009765625 c 0
 218.259765625 575.12890625 221.564453125 578.434570312 230.37890625 587.249023438 c 0
 235.887695312 592.7578125 242.498046875 598.266601562 244.702148438 599.368164062 c 0
EndSplineSet
EndChar

StartChar: _comic_delta
Encoding: 1114187 -1 127
Width: 514
VWidth: 86
Flags: HW
LayerCount: 2
Fore
SplineSet
224.943359375 612 m 0
 225.108398438 612 225.259765625 612 225.397460938 612 c 2
 225.883789062 612 l 1
 264.565429688 606.954101562 269.825195312 606.135742188 277.120117188 598.840820312 c 0
 278.291015625 597.669921875 278.291015625 597.669921875 285.28125 593.01171875 c 0
 294.904296875 586.595703125 292.147460938 582.126953125 299.095703125 575.17578125 c 0
 307.21875 567.049804688 304.604492188 562.6796875 313.815429688 546.561523438 c 0
 315.282226562 543.99609375 317.14453125 541.30859375 317.14453125 536.991210938 c 0
 317.14453125 528.373046875 312.060546875 530.698242188 309.634765625 516.424804688 c 0
 307.935546875 503.78515625 304.220703125 493.004882812 283.794921875 493.004882812 c 0
 256.043945312 493.004882812 249.163085938 502.073242188 245.177734375 521.995117188 c 0
 242.649414062 534.634765625 243.127929688 532.528320312 239.341796875 537.0703125 c 0
 238.6171875 537.813476562 238.6171875 537.813476562 233.456054688 544.642578125 c 0
 232.823242188 544.709960938 231.823242188 544.780273438 230.46875 544.780273438 c 2
 229.287109375 544.780273438 l 1
 228.3203125 541.151367188 227.666992188 536.524414062 227.666992188 530.55859375 c 0
 227.666992188 521.142578125 229.762695312 511.278320312 231.693359375 507.92578125 c 0
 238.365234375 497.653320312 234.092773438 494.015625 245.94140625 474.31640625 c 0
 252.3125 465.540039062 251.44921875 457.677734375 258.375 448.447265625 c 0
 264.436523438 440.362304688 268.453125 431.797851562 270.138671875 429.048828125 c 0
 273.694335938 427.037109375 277.092773438 423.626953125 278.803710938 418.775390625 c 0
 279.810546875 417.090820312 285.796875 410.143554688 291.48828125 404.452148438 c 0
 297.041992188 398.8984375 306.543945312 388.55078125 306.700195312 388.393554688 c 0
 310.017578125 385.077148438 321.228515625 376.158203125 324.892578125 373.3671875 c 0
 328.155273438 371.547851562 329.46484375 369.3671875 331.26953125 367.3828125 c 0
 335.783203125 362.416992188 337.86328125 360.139648438 339.420898438 359.361328125 c 0
 347.42578125 355.359375 347.397460938 349.885742188 352.892578125 346.22265625 c 0
 360.392578125 341.224609375 362.270507812 335.928710938 365.62109375 333.161132812 c 0
 374.518554688 328.711914062 375.65625 319.21484375 381.397460938 315.38671875 c 0
 384.391601562 312.404296875 387.905273438 308.853515625 391.171875 301.38671875 c 0
 392.499023438 298.067382812 396.288085938 292.044921875 396.288085938 292.044921875 c 1
 403.452148438 284.880859375 403.57421875 274.102539062 410.359375 260.533203125 c 0
 416.756835938 247.73828125 417.8984375 241.553710938 417.8984375 204.826171875 c 2
 417.8984375 204.359375 l 2
 417.8984375 169.176757812 417.881835938 160.646484375 410.26953125 147.25 c 0
 400.672851562 128.024414062 402.89453125 123.028320312 397.219726562 114.516601562 c 0
 388.642578125 101.650390625 389.666015625 94.92578125 381.075195312 86.3349609375 c 0
 375.09375 80.353515625 372.28515625 71.16015625 352.249023438 52.4375 c 0
 341.119140625 41.306640625 333.208984375 33.3974609375 323.801757812 28.5390625 c 0
 321.255859375 26.828125 316.63671875 23.5869140625 315.15234375 22.1005859375 c 0
 307.965820312 14.9169921875 301.162109375 15.146484375 287.711914062 7.990234375 c 0
 282.279296875 5.099609375 281.752929688 4.009765625 277.88671875 2.6572265625 c 0
 269.0546875 -0.9462890625 237.541992188 -6.26953125 227.932617188 -6.26953125 c 0
 215.994140625 -6.26953125 218.907226562 -7.4091796875 212.765625 -7.4091796875 c 0
 204.888671875 -7.4091796875 169.506835938 1.88671875 167.204101562 3.421875 c 0
 167.124023438 3.4755859375 164.48828125 5.2333984375 160.94921875 7.88671875 c 0
 158.541015625 9.6943359375 153.701171875 12.1171875 152.166992188 12.6669921875 c 0
 143.057617188 15.34765625 136.854492188 22.5986328125 120.362304688 39.91796875 c 0
 109.7578125 50.5625 109.641601562 63.5966796875 105.787109375 70.0205078125 c 0
 102.322265625 75.794921875 97 84.662109375 97 129.811523438 c 0
 97 140.75 97.552734375 184.494140625 106.107421875 205.8828125 c 0
 112.219726562 221.162109375 109.533203125 236.590820312 120.818359375 250.1328125 c 0
 123.62109375 253.49609375 124.297851562 266.334960938 133.951171875 275.985351562 c 0
 135.470703125 277.504882812 138.763671875 282.760742188 138.920898438 283.232421875 c 0
 140.596679688 288.26171875 144.9296875 293.5859375 148.615234375 298.19140625 c 0
 155.397460938 306.668945312 151.123046875 303.181640625 159.798828125 313.685546875 c 0
 163.901367188 318.65234375 169.802734375 325.349609375 176.083984375 331.640625 c 0
 193.043945312 350.29296875 199.55859375 356.546875 205.188476562 359.361328125 c 0
 205.8203125 359.741210938 205.8203125 359.741210938 212.920898438 365.098632812 c 0
 216.189453125 368.379882812 219.919921875 372.262695312 223.494140625 374.728515625 c 1
 219.404296875 386.997070312 213.797851562 385.86328125 207.528320312 401.538085938 c 0
 206.833007812 403.275390625 204.517578125 406.661132812 202.567382812 409.3125 c 0
 195.2109375 419.315429688 194.548828125 420.215820312 192.009765625 430.370117188 c 0
 191.297851562 433.217773438 183.625976562 440.67578125 181.094726562 451.984375 c 0
 178.140625 459.328125 177.389648438 461.196289062 174.030273438 467.633789062 c 0
 166.096679688 482.837890625 162.038085938 506.959960938 162.038085938 531.552734375 c 0
 162.038085938 545.841796875 162.038085938 545.841796875 166.55078125 574.251953125 c 0
 167.736328125 581.717773438 168.446289062 586.185546875 179.848632812 596.55078125 c 0
 190.912109375 606.609375 194.095703125 607.592773438 215.474609375 611.014648438 c 0
 219.44921875 611.961914062 223.048828125 612 224.943359375 612 c 0
162.49609375 126.54296875 m 0
 162.49609375 118.674804688 164.450195312 110.466796875 169.927734375 92.9375 c 0
 172.420898438 84.6279296875 171.9453125 85.306640625 177.557617188 78.896484375 c 0
 185.859375 70.705078125 193.055664062 69.9638671875 199.133789062 64.0771484375 c 0
 203.329101562 60.4970703125 205.572265625 59.2587890625 222.016601562 59.2587890625 c 0
 238.122070312 59.2587890625 242.352539062 60.6904296875 249.727539062 65.1162109375 c 0
 255.83984375 68.171875 259.098632812 69.8017578125 263.236328125 70.849609375 c 0
 270.77734375 72.9169921875 274.022460938 75.55859375 274.546875 76.28515625 c 0
 278.557617188 84.306640625 288.166015625 85.40625 291.067382812 89.7587890625 c 0
 296.299804688 97.6103515625 304.05859375 100.79296875 306.280273438 104.126953125 c 0
 308.561523438 107.548828125 311.223632812 110.654296875 315.059570312 112.572265625 c 1
 319.717773438 116.728515625 317.55078125 117.20703125 325.499023438 125.23828125 c 0
 331.505859375 132.84765625 333.734375 145.758789062 339.716796875 152.938476562 c 0
 342.594726562 156.390625 344.044921875 160.565429688 345.709960938 170.552734375 c 0
 345.767578125 170.916992188 345.458984375 168.627929688 353.86328125 206.451171875 c 1
 349.415039062 224.990234375 349.415039062 224.990234375 348.197265625 230.044921875 c 0
 343.063476562 251.360351562 343.565429688 249.44140625 341.018554688 251.98828125 c 0
 336.766601562 256.240234375 331.745117188 268.022460938 324.959960938 274.807617188 c 0
 314.340820312 285.426757812 324.946289062 277.357421875 301.294921875 301.0078125 c 0
 300.00390625 302.298828125 295.52734375 305.930664062 291.998046875 309.4609375 c 0
 289.140625 312.318359375 285.301757812 315.96875 284.411132812 316.629882812 c 0
 279.489257812 319.155273438 278.139648438 320.912109375 274.02734375 326.270507812 c 0
 273.950195312 326.2890625 271.837890625 326.5546875 266.28125 327.790039062 c 1
 260.786132812 323.143554688 259.438476562 321.830078125 253.170898438 315.287109375 c 0
 249.532226562 311.487304688 244.5625 306.583007812 235.78125 297.155273438 c 0
 226.541992188 287.235351562 226.541992188 287.235351562 225.266601562 285.19140625 c 0
 223.555664062 281.76953125 220.349609375 277.635742188 215.977539062 274.721679688 c 0
 214.076171875 273.454101562 211.181640625 265.495117188 204.435546875 258.749023438 c 0
 196.952148438 251.265625 195.030273438 239.485351562 187.419921875 234.2734375 c 0
 185.380859375 232.76953125 185.053710938 232.52734375 183.528320312 225.663085938 c 0
 179.186523438 212.63671875 178.90234375 211.784179688 176.698242188 208.431640625 c 0
 173.192382812 202.826171875 172.779296875 202.502929688 169.34375 175.879882812 c 0
 165.376953125 148.111328125 165.376953125 148.111328125 164.228515625 141.794921875 c 0
 163.072265625 135.440429688 162.49609375 130.850585938 162.49609375 126.54296875 c 0
EndSplineSet
EndChar

StartChar: delta
Encoding: 948 948 128
Width: 514
Flags: HW
AnchorPoint: "above" 257.449 632 basechar 0
LayerCount: 2
Fore
SplineSet
224.943359375 612 m 0
 225.108398438 612 225.259765625 612 225.397460938 612 c 2
 225.883789062 612 l 1
 264.565429688 606.954101562 269.825195312 606.135742188 277.120117188 598.840820312 c 0
 278.291015625 597.669921875 278.291015625 597.669921875 285.28125 593.01171875 c 0
 294.904296875 586.595703125 292.147460938 582.126953125 299.095703125 575.17578125 c 0
 307.21875 567.049804688 304.604492188 562.6796875 313.815429688 546.561523438 c 0
 315.282226562 543.99609375 317.14453125 541.30859375 317.14453125 536.991210938 c 0
 317.14453125 528.373046875 312.060546875 530.698242188 309.634765625 516.424804688 c 0
 307.935546875 503.78515625 304.220703125 493.004882812 283.794921875 493.004882812 c 0
 256.043945312 493.004882812 249.163085938 502.073242188 245.177734375 521.995117188 c 0
 242.649414062 534.634765625 243.127929688 532.528320312 239.341796875 537.0703125 c 0
 238.6171875 537.813476562 238.6171875 537.813476562 233.456054688 544.642578125 c 0
 232.823242188 544.709960938 231.823242188 544.780273438 230.46875 544.780273438 c 2
 229.287109375 544.780273438 l 1
 228.3203125 541.151367188 227.666992188 536.524414062 227.666992188 530.55859375 c 0
 227.666992188 521.142578125 229.762695312 511.278320312 231.693359375 507.92578125 c 0
 238.365234375 497.653320312 234.092773438 494.015625 245.94140625 474.31640625 c 0
 252.3125 465.540039062 251.44921875 457.677734375 258.375 448.447265625 c 0
 264.436523438 440.362304688 268.453125 431.797851562 270.138671875 429.048828125 c 0
 273.694335938 427.037109375 277.092773438 423.626953125 278.803710938 418.775390625 c 0
 279.810546875 417.090820312 285.796875 410.143554688 291.48828125 404.452148438 c 0
 297.041992188 398.8984375 306.543945312 388.55078125 306.700195312 388.393554688 c 0
 310.017578125 385.077148438 321.228515625 376.158203125 324.892578125 373.3671875 c 0
 328.155273438 371.547851562 329.46484375 369.3671875 331.26953125 367.3828125 c 0
 335.783203125 362.416992188 337.86328125 360.139648438 339.420898438 359.361328125 c 0
 347.42578125 355.359375 347.397460938 349.885742188 352.892578125 346.22265625 c 0
 360.392578125 341.224609375 362.270507812 335.928710938 365.62109375 333.161132812 c 0
 374.518554688 328.711914062 375.65625 319.21484375 381.397460938 315.38671875 c 0
 384.391601562 312.404296875 387.905273438 308.853515625 391.171875 301.38671875 c 0
 392.499023438 298.067382812 396.288085938 292.044921875 396.288085938 292.044921875 c 1
 403.452148438 284.880859375 403.57421875 274.102539062 410.359375 260.533203125 c 0
 416.756835938 247.73828125 417.8984375 241.553710938 417.8984375 204.826171875 c 2
 417.8984375 204.359375 l 2
 417.8984375 169.176757812 417.881835938 160.646484375 410.26953125 147.25 c 0
 400.672851562 128.024414062 402.89453125 123.028320312 397.219726562 114.516601562 c 0
 388.642578125 101.650390625 389.666015625 94.92578125 381.075195312 86.3349609375 c 0
 375.09375 80.353515625 372.28515625 71.16015625 352.249023438 52.4375 c 0
 341.119140625 41.306640625 333.208984375 33.3974609375 323.801757812 28.5390625 c 0
 321.255859375 26.828125 316.63671875 23.5869140625 315.15234375 22.1005859375 c 0
 307.965820312 14.9169921875 301.162109375 15.146484375 287.711914062 7.990234375 c 0
 282.279296875 5.099609375 281.752929688 4.009765625 277.88671875 2.6572265625 c 0
 269.0546875 -0.9462890625 237.541992188 -6.26953125 227.932617188 -6.26953125 c 0
 215.994140625 -6.26953125 218.907226562 -7.4091796875 212.765625 -7.4091796875 c 0
 204.888671875 -7.4091796875 169.506835938 1.88671875 167.204101562 3.421875 c 0
 167.124023438 3.4755859375 164.48828125 5.2333984375 160.94921875 7.88671875 c 0
 158.541015625 9.6943359375 153.701171875 12.1171875 152.166992188 12.6669921875 c 0
 143.057617188 15.34765625 136.854492188 22.5986328125 120.362304688 39.91796875 c 0
 109.7578125 50.5625 109.641601562 63.5966796875 105.787109375 70.0205078125 c 0
 102.322265625 75.794921875 97 84.662109375 97 129.811523438 c 0
 97 140.75 97.552734375 184.494140625 106.107421875 205.8828125 c 0
 112.219726562 221.162109375 109.533203125 236.590820312 120.818359375 250.1328125 c 0
 123.62109375 253.49609375 124.297851562 266.334960938 133.951171875 275.985351562 c 0
 135.470703125 277.504882812 138.763671875 282.760742188 138.920898438 283.232421875 c 0
 140.596679688 288.26171875 144.9296875 293.5859375 148.615234375 298.19140625 c 0
 155.397460938 306.668945312 151.123046875 303.181640625 159.798828125 313.685546875 c 0
 163.901367188 318.65234375 169.802734375 325.349609375 176.083984375 331.640625 c 0
 193.043945312 350.29296875 199.55859375 356.546875 205.188476562 359.361328125 c 0
 205.8203125 359.741210938 205.8203125 359.741210938 212.920898438 365.098632812 c 0
 216.189453125 368.379882812 219.919921875 372.262695312 223.494140625 374.728515625 c 1
 219.404296875 386.997070312 213.797851562 385.86328125 207.528320312 401.538085938 c 0
 206.833007812 403.275390625 204.517578125 406.661132812 202.567382812 409.3125 c 0
 195.2109375 419.315429688 194.548828125 420.215820312 192.009765625 430.370117188 c 0
 191.297851562 433.217773438 183.625976562 440.67578125 181.094726562 451.984375 c 0
 178.140625 459.328125 177.389648438 461.196289062 174.030273438 467.633789062 c 0
 166.096679688 482.837890625 162.038085938 506.959960938 162.038085938 531.552734375 c 0
 162.038085938 545.841796875 162.038085938 545.841796875 166.55078125 574.251953125 c 0
 167.736328125 581.717773438 168.446289062 586.185546875 179.848632812 596.55078125 c 0
 190.912109375 606.609375 194.095703125 607.592773438 215.474609375 611.014648438 c 0
 219.44921875 611.961914062 223.048828125 612 224.943359375 612 c 0
162.49609375 126.54296875 m 0
 162.49609375 118.674804688 164.450195312 110.466796875 169.927734375 92.9375 c 0
 172.420898438 84.6279296875 171.9453125 85.306640625 177.557617188 78.896484375 c 0
 185.859375 70.705078125 193.055664062 69.9638671875 199.133789062 64.0771484375 c 0
 203.329101562 60.4970703125 205.572265625 59.2587890625 222.016601562 59.2587890625 c 0
 238.122070312 59.2587890625 242.352539062 60.6904296875 249.727539062 65.1162109375 c 0
 255.83984375 68.171875 259.098632812 69.8017578125 263.236328125 70.849609375 c 0
 270.77734375 72.9169921875 274.022460938 75.55859375 274.546875 76.28515625 c 0
 278.557617188 84.306640625 288.166015625 85.40625 291.067382812 89.7587890625 c 0
 296.299804688 97.6103515625 304.05859375 100.79296875 306.280273438 104.126953125 c 0
 308.561523438 107.548828125 311.223632812 110.654296875 315.059570312 112.572265625 c 1
 319.717773438 116.728515625 317.55078125 117.20703125 325.499023438 125.23828125 c 0
 331.505859375 132.84765625 333.734375 145.758789062 339.716796875 152.938476562 c 0
 342.594726562 156.390625 344.044921875 160.565429688 345.709960938 170.552734375 c 0
 345.767578125 170.916992188 345.458984375 168.627929688 353.86328125 206.451171875 c 1
 349.415039062 224.990234375 349.415039062 224.990234375 348.197265625 230.044921875 c 0
 343.063476562 251.360351562 343.565429688 249.44140625 341.018554688 251.98828125 c 0
 336.766601562 256.240234375 331.745117188 268.022460938 324.959960938 274.807617188 c 0
 314.340820312 285.426757812 324.946289062 277.357421875 301.294921875 301.0078125 c 0
 300.00390625 302.298828125 295.52734375 305.930664062 291.998046875 309.4609375 c 0
 289.140625 312.318359375 285.301757812 315.96875 284.411132812 316.629882812 c 0
 279.489257812 319.155273438 278.139648438 320.912109375 274.02734375 326.270507812 c 0
 273.950195312 326.2890625 271.837890625 326.5546875 266.28125 327.790039062 c 1
 260.786132812 323.143554688 259.438476562 321.830078125 253.170898438 315.287109375 c 0
 249.532226562 311.487304688 244.5625 306.583007812 235.78125 297.155273438 c 0
 226.541992188 287.235351562 226.541992188 287.235351562 225.266601562 285.19140625 c 0
 223.555664062 281.76953125 220.349609375 277.635742188 215.977539062 274.721679688 c 0
 214.076171875 273.454101562 211.181640625 265.495117188 204.435546875 258.749023438 c 0
 196.952148438 251.265625 195.030273438 239.485351562 187.419921875 234.2734375 c 0
 185.380859375 232.76953125 185.053710938 232.52734375 183.528320312 225.663085938 c 0
 179.186523438 212.63671875 178.90234375 211.784179688 176.698242188 208.431640625 c 0
 173.192382812 202.826171875 172.779296875 202.502929688 169.34375 175.879882812 c 0
 165.376953125 148.111328125 165.376953125 148.111328125 164.228515625 141.794921875 c 0
 163.072265625 135.440429688 162.49609375 130.850585938 162.49609375 126.54296875 c 0
EndSplineSet
EndChar

